<svg width="26" height="34" viewBox="0 0 26 34" fill="none" xmlns="http://www.w3.org/2000/svg">
<g clip-path="url(#clip0_1511_16930)">
<path d="M11.6202 2.45784C12.1737 2.12873 12.6576 1.68823 13.0326 1.17178C13.1885 0.956954 13.3318 0.696921 13.2655 0.441951C13.1948 0.170344 12.8938 -0.000721035 12.6069 2.28483e-06C12.3199 0.000725604 12.0512 0.139603 11.8235 0.310306C10.8913 1.00976 10.5159 2.33705 10.9483 3.40503L11.6199 2.45784H11.6202Z" fill="#1C1C1C"/>
<path d="M10.8888 3.72174C10.8695 3.29715 10.8499 2.8722 10.8307 2.44761C10.7981 1.73297 10.7403 0.955768 10.2494 0.424851C10.1284 0.29393 9.96768 0.177476 9.78701 0.180731C9.59005 0.184347 9.41864 0.337329 9.35014 0.517798C9.28165 0.698266 9.29905 0.900072 9.34644 1.08669C9.48342 1.62628 9.84957 2.07836 10.2057 2.51199C10.7152 3.13224 11.225 3.75248 11.7344 4.37237L10.8884 3.72138L10.8888 3.72174Z" fill="#1C1C1C"/>
<path d="M10.5427 21.6555C11.2746 23.139 10.5183 24.952 9.37059 26.1582C8.77491 26.7842 7.76568 27.3281 7.0841 26.7925C6.48249 26.3198 6.6365 25.3777 6.26109 24.7188C5.76277 23.8454 4.48254 23.7336 3.52071 24.0754C1.87025 24.6623 0.725895 26.1976 0.187961 27.8312C0.0372806 28.2887 -0.0737862 28.7835 0.0598642 29.246C0.193515 29.7086 0.644076 30.1144 1.13203 30.0536C1.3997 30.0203 1.63146 29.859 1.83397 29.6847C2.59663 29.0287 3.11198 28.1328 3.87538 27.4771C4.02458 27.3491 4.19192 27.2265 4.38814 27.1961C4.95458 27.109 5.30037 27.7632 5.75019 28.1108C6.20149 28.4594 6.84234 28.5046 7.39398 28.3448C7.94561 28.1846 8.42394 27.845 8.86154 27.4797C10.5727 26.0515 11.8441 24.1264 12.4708 22.0146L10.5427 21.6548V21.6555Z" fill="#1C1C1C"/>
<path d="M20.6521 21.3264C19.029 22.44 17.7569 24.0349 17.0487 25.8443C16.9065 26.2077 16.7847 26.5925 16.8232 26.9799C16.8617 27.3672 17.0957 27.7589 17.4733 27.8833C17.8443 28.0055 18.2475 27.8511 18.5944 27.6743C19.6521 27.1347 20.574 26.3672 21.6302 25.8244C22.6861 25.2815 23.9745 24.9792 25.0677 25.4457C25.5275 25.6417 25.9577 26.0215 25.997 26.5101C26.0192 26.7882 25.9122 27.0605 25.7823 27.3086C25.198 28.4258 24.1237 29.2536 22.9308 29.718C21.7379 30.1827 20.4303 30.3086 19.1468 30.2674C18.1198 30.2345 17.0831 30.0938 16.1346 29.7079C15.7888 29.5672 15.4438 29.3842 15.2283 29.0851C14.7652 28.4421 15.0684 27.5437 15.5034 26.8822C15.9384 26.2207 16.5119 25.5864 16.583 24.803C16.6966 23.5546 15.4897 22.5698 14.3005 22.0986L20.6517 21.3257L20.6521 21.3264Z" fill="#1C1C1C"/>
<path d="M14.2421 23.5446C20.4326 23.5446 25.4509 18.8143 25.4509 12.9791C25.4509 7.14392 20.4326 2.41357 14.2421 2.41357C8.05158 2.41357 3.0332 7.14392 3.0332 12.9791C3.0332 18.8143 8.05158 23.5446 14.2421 23.5446Z" fill="#1C1C1C"/>
<path d="M18.2934 16.0674C19.7198 15.8237 20.6183 14.1859 20.3002 12.4092C19.9821 10.6325 18.568 9.38978 17.1416 9.63347C15.7152 9.87716 14.8167 11.515 15.1348 13.2917C15.4528 15.0683 16.867 16.3111 18.2934 16.0674Z" fill="white"/>
<path d="M12.5256 17.0923C13.952 16.8486 14.8505 15.2108 14.5324 13.4341C14.2143 11.6574 12.8001 10.4147 11.3737 10.6584C9.94734 10.9021 9.04887 12.5399 9.36694 14.3166C9.68502 16.0933 11.0992 17.336 12.5256 17.0923Z" fill="white"/>
<path d="M13.3795 15.8502C13.9062 15.721 14.1902 15.0601 14.0139 14.3741C13.8375 13.6882 13.2675 13.2368 12.7408 13.3661C12.2141 13.4953 11.9301 14.1562 12.1065 14.8422C12.2829 15.5281 12.8528 15.9794 13.3795 15.8502Z" fill="#1C1C1C"/>
<path d="M18.9264 14.8302C19.4531 14.7009 19.7371 14.0401 19.5607 13.3541C19.3843 12.6681 18.8144 12.2168 18.2877 12.3461C17.761 12.4753 17.477 13.1362 17.6534 13.8221C17.8297 14.5081 18.3997 14.9594 18.9264 14.8302Z" fill="#1C1C1C"/>
<path d="M4.13621 10.4379C4.19026 10.1894 4.25727 9.94349 4.33687 9.70154C4.37648 9.58074 4.41943 9.46067 4.4657 9.34169C4.48792 9.28454 4.5105 9.22776 4.53382 9.17134C4.54567 9.14313 4.55752 9.11493 4.56937 9.08672C4.55604 9.11818 4.57603 9.07189 4.57714 9.06936C4.58529 9.05055 4.5938 9.03211 4.60195 9.0133C4.81075 8.54784 5.06769 8.10264 5.3672 7.68709C5.40903 7.62887 5.45198 7.57136 5.49566 7.51422C5.51751 7.48565 5.53935 7.45744 5.56156 7.42923C5.54083 7.45527 5.5723 7.41549 5.57378 7.41404C5.58674 7.39813 5.59933 7.38221 5.61228 7.3663C5.70299 7.25491 5.79702 7.14641 5.89402 7.04008C5.95215 6.97643 5.96288 6.87155 5.89402 6.81007C5.83071 6.75329 5.72039 6.74208 5.65856 6.81007C5.30093 7.20138 4.9829 7.62778 4.71338 8.0813C4.44386 8.53482 4.22358 9.01185 4.05216 9.50624C3.95628 9.78327 3.87742 10.0654 3.81485 10.3511C3.79671 10.4343 3.84003 10.5308 3.9311 10.5514C4.01477 10.5702 4.11658 10.5268 4.13621 10.4379Z" fill="white"/>
<path d="M5.25264 24.3999C4.61179 24.3033 3.94021 24.4502 3.41708 24.8306C3.34748 24.8813 3.3049 24.9739 3.35747 25.0534C3.4019 25.1207 3.51075 25.1663 3.58553 25.1117C3.70437 25.0252 3.83136 24.9503 3.96501 24.8885C3.9813 24.8809 3.99722 24.8737 4.01351 24.8668C4.02054 24.8639 4.02758 24.8607 4.03461 24.8578C4.01832 24.8643 4.01906 24.8639 4.0372 24.8567C4.07015 24.8437 4.10347 24.831 4.13716 24.8191C4.20677 24.7948 4.27785 24.7739 4.34967 24.7561C4.42149 24.7384 4.49406 24.7243 4.56736 24.7135C4.57069 24.7131 4.62067 24.707 4.58365 24.7109C4.60401 24.7088 4.62401 24.7062 4.64437 24.7044C4.67991 24.7012 4.71545 24.6983 4.75136 24.6968C4.82282 24.6932 4.89427 24.6932 4.96535 24.6961C5.00089 24.6975 5.0368 24.7001 5.07235 24.7033C5.09271 24.7051 5.11307 24.7077 5.13306 24.7098C5.15305 24.7124 5.15342 24.7124 5.13417 24.7098C5.14417 24.7113 5.15454 24.7127 5.16453 24.7142C5.25042 24.7272 5.34779 24.6928 5.36963 24.6006C5.38778 24.5229 5.3452 24.4144 5.25338 24.4003L5.25264 24.3999Z" fill="white"/>
<path d="M24.6277 26.2431C24.6469 26.2452 24.6451 26.2449 24.6225 26.242C24.631 26.2434 24.6399 26.2449 24.6484 26.2463C24.6654 26.2496 24.6828 26.2536 24.6995 26.2579C24.7161 26.2622 24.7332 26.2673 24.7495 26.2731C24.7576 26.276 24.7658 26.2789 24.7743 26.2821C24.7546 26.2738 24.7535 26.2734 24.7709 26.2807C24.7987 26.2937 24.8257 26.3071 24.852 26.323C24.8672 26.332 24.8813 26.3422 24.8961 26.3512C24.9109 26.3621 24.9105 26.3613 24.8938 26.349C24.9009 26.3545 24.9075 26.3599 24.9142 26.3653C24.9409 26.3874 24.9664 26.4116 24.9897 26.4369C24.9986 26.4467 25.0068 26.4564 25.0153 26.4662C24.9883 26.4355 25.0238 26.4781 25.0282 26.485C25.0479 26.5136 25.0638 26.5436 25.0804 26.574C25.0882 26.5906 25.0878 26.5895 25.0797 26.5704C25.083 26.5783 25.0864 26.5863 25.0893 26.5942C25.0945 26.6083 25.0993 26.6225 25.1038 26.6369C25.1082 26.6514 25.1119 26.6662 25.1152 26.681C25.1171 26.6894 25.1249 26.7458 25.1201 26.702C25.1238 26.7367 25.1256 26.7711 25.1245 26.8062C25.1238 26.8235 25.1223 26.8409 25.1208 26.8583C25.1178 26.8933 25.1278 26.8293 25.1193 26.8666C25.1115 26.9006 25.1045 26.9346 25.0934 26.9678C25.0878 26.9845 25.0816 27.0007 25.0753 27.017C25.0904 26.9787 25.0682 27.0308 25.0645 27.0376C25.0505 27.0648 25.0345 27.0912 25.0171 27.1165C25.0127 27.123 24.9771 27.1664 25.0034 27.136C24.992 27.1494 24.9805 27.1624 24.9683 27.1751C24.956 27.1877 24.9435 27.2 24.9301 27.2116C24.9246 27.2167 24.8794 27.2517 24.9124 27.2275C24.8431 27.2785 24.7998 27.3704 24.8528 27.4503C24.8968 27.5172 25.0064 27.5635 25.0808 27.5085C25.3133 27.3367 25.4566 27.0742 25.4581 26.7866C25.4595 26.4991 25.3055 26.2405 25.0697 26.0738C24.9398 25.982 24.7861 25.9331 24.6277 25.9176C24.5407 25.9089 24.4574 25.9986 24.4611 26.0803C24.4655 26.1758 24.5344 26.2337 24.6277 26.2431Z" fill="white"/>
</g>
<defs>
<clipPath id="clip0_1511_16930">
<rect width="26" height="34" fill="white"/>
</clipPath>
</defs>
</svg>
