<svg width="1800" height="1720" viewBox="0 0 1800 1720" fill="none" xmlns="http://www.w3.org/2000/svg">
<path d="M1073.25 689.657C1072.71 689.657 1072.18 689.452 1071.77 689.034C1070.97 688.217 1070.98 686.907 1071.8 686.108L1078.53 679.484C1079.34 678.685 1080.66 678.695 1081.46 679.512C1082.26 680.33 1082.25 681.64 1081.43 682.438L1074.7 689.062C1074.3 689.461 1073.77 689.657 1073.25 689.657Z" fill="#E41417"/>
<path d="M1040.98 721.381C1040.44 721.381 1039.91 721.176 1039.5 720.758C1038.7 719.941 1038.71 718.631 1039.53 717.832L1046.26 711.209C1047.07 710.41 1048.39 710.419 1049.19 711.236C1049.99 712.054 1049.98 713.364 1049.16 714.163L1042.43 720.786C1042.03 721.186 1041.5 721.381 1040.98 721.381Z" fill="#E41417"/>
<path d="M1047.94 689.331C1047.41 689.331 1046.87 689.127 1046.46 688.709L1039.84 681.918C1039.04 681.101 1039.06 679.791 1039.88 678.992C1040.71 678.202 1042.01 678.212 1042.81 679.029L1049.42 685.82C1050.22 686.637 1050.2 687.947 1049.38 688.746C1048.98 689.136 1048.46 689.331 1047.93 689.331H1047.94Z" fill="#E41417"/>
<path d="M1079.64 721.873C1079.1 721.873 1078.56 721.669 1078.16 721.251L1071.54 714.46C1070.74 713.642 1070.76 712.332 1071.58 711.534C1072.4 710.735 1073.71 710.753 1074.5 711.571L1081.12 718.361C1081.92 719.179 1081.9 720.489 1081.08 721.288C1080.68 721.678 1080.16 721.873 1079.64 721.873Z" fill="#E41417"/>
<path d="M1258.76 1530.43C1257.63 1530.43 1256.7 1529.51 1256.69 1528.38C1256.69 1527.24 1257.6 1526.31 1258.74 1526.3L1268.19 1526.24H1268.2C1269.33 1526.24 1270.26 1527.16 1270.27 1528.3C1270.27 1529.44 1269.36 1530.37 1268.22 1530.38L1258.77 1530.43H1258.76Z" fill="#E41417"/>
<path d="M1213.51 1530.7C1212.38 1530.7 1211.45 1529.78 1211.44 1528.65C1211.44 1527.51 1212.35 1526.58 1213.49 1526.57L1222.94 1526.51H1222.95C1224.08 1526.51 1225.01 1527.43 1225.02 1528.56C1225.02 1529.71 1224.11 1530.64 1222.97 1530.65L1213.52 1530.7H1213.51Z" fill="#E41417"/>
<path d="M1240.83 1512.57C1239.69 1512.57 1238.76 1511.64 1238.76 1510.5V1501.01C1238.74 1499.87 1239.67 1498.94 1240.81 1498.94C1241.96 1498.94 1242.89 1499.87 1242.89 1501.01V1510.5C1242.91 1511.64 1241.98 1512.57 1240.83 1512.57Z" fill="#E41417"/>
<path d="M1240.9 1557.99C1239.76 1557.99 1238.83 1557.07 1238.83 1555.92V1546.44C1238.81 1545.3 1239.74 1544.37 1240.88 1544.37C1242.02 1544.37 1242.95 1545.3 1242.95 1546.44V1555.92C1242.97 1557.07 1242.04 1557.99 1240.9 1557.99Z" fill="#E41417"/>
<path d="M1388.63 670.687C1388.63 670.687 1409.85 667.798 1416.48 620.086C1423.12 572.375 1424.44 530.451 1468.21 517.436C1511.97 504.421 1565.97 525.379 1564.65 571.641C1563.32 617.903 1570.18 657.468 1597.88 677.961C1633.69 704.464 1647.71 689.48 1714.03 754.061C1797.52 835.355 1773.27 1082.74 1531.88 1014.78L1388.63 670.687Z" fill="#E41417"/>
<path d="M1448.23 629.803C1448.23 629.803 1455.43 637.727 1470.47 634.95L1448.23 629.803Z" fill="white"/>
<path d="M1464.22 637.607C1452.68 637.607 1446.97 631.494 1446.69 631.188C1445.92 630.342 1445.99 629.032 1446.83 628.261C1447.68 627.5 1448.98 627.555 1449.75 628.391C1450.04 628.698 1456.49 635.405 1470.09 632.897C1471.21 632.683 1472.3 633.436 1472.51 634.56C1472.72 635.684 1471.97 636.761 1470.85 636.975C1468.46 637.412 1466.26 637.607 1464.23 637.607H1464.22Z" fill="#E41417"/>
<path d="M1453.72 1568.95C1453.72 1568.95 1441.17 1607.38 1428.63 1619.11C1416.09 1630.84 1366.23 1653.91 1365.53 1678.98C1364.72 1708.11 1381.64 1713.49 1426.94 1702.98C1459.67 1695.38 1486.68 1675.36 1496.34 1663.94C1504.86 1653.85 1500.1 1645.27 1498.02 1633.44C1495.46 1618.93 1494.97 1604.14 1494.97 1589.41V1565.31L1453.71 1568.96L1453.72 1568.95Z" fill="white"/>
<path d="M1392.86 1710C1383.34 1710 1376.62 1708.08 1371.89 1704.21C1365.79 1699.23 1363.11 1691.19 1363.45 1678.92C1363.99 1659.67 1390.82 1642.21 1410.42 1629.47C1417.64 1624.77 1423.89 1620.71 1427.21 1617.6C1439.22 1606.37 1451.62 1568.68 1451.75 1568.31C1452.01 1567.52 1452.7 1566.96 1453.53 1566.88L1494.79 1563.24C1495.37 1563.19 1495.95 1563.38 1496.37 1563.78C1496.8 1564.17 1497.04 1564.73 1497.04 1565.31V1589.4C1497.04 1602.54 1497.4 1618 1500.06 1633.08C1500.47 1635.41 1500.99 1637.62 1501.49 1639.76C1503.5 1648.33 1505.4 1656.43 1497.91 1665.28C1488.43 1676.51 1460.9 1697.23 1427.41 1704.99C1413.04 1708.33 1401.73 1710.01 1392.85 1710.01L1392.86 1710ZM1455.25 1570.89C1452.89 1577.86 1441.66 1609.77 1430.04 1620.62C1426.45 1623.99 1420.07 1628.14 1412.67 1632.94C1393.84 1645.2 1368.06 1661.96 1367.59 1679.04C1367.28 1689.93 1369.49 1696.9 1374.51 1701.02C1382.43 1707.48 1398.45 1707.47 1426.47 1700.96C1458.98 1693.42 1485.61 1673.43 1494.76 1662.6C1500.9 1655.34 1499.46 1649.2 1497.46 1640.71C1496.95 1638.52 1496.41 1636.24 1495.98 1633.8C1493.27 1618.4 1492.91 1602.71 1492.91 1589.4V1567.57L1455.25 1570.9V1570.89Z" fill="#E41417"/>
<path d="M1367.3 1693.12C1366.22 1693.12 1365.32 1692.29 1365.24 1691.2C1365.16 1690.06 1366.01 1689.07 1367.15 1688.99L1383.26 1687.82C1423.99 1684.87 1462.07 1667.33 1490.49 1638.45C1494.3 1634.59 1496.43 1632.11 1496.46 1632.09C1497.2 1631.22 1498.51 1631.12 1499.37 1631.87C1500.24 1632.62 1500.34 1633.93 1499.59 1634.79C1499.49 1634.89 1497.35 1637.38 1493.44 1641.36C1464.3 1670.97 1425.28 1688.93 1383.55 1691.95L1367.44 1693.12C1367.4 1693.12 1367.34 1693.12 1367.29 1693.12H1367.3Z" fill="#E41417"/>
<path d="M1464.54 1631.31C1464.43 1631.31 1464.31 1631.31 1464.19 1631.28C1463.27 1631.12 1441.6 1627.4 1432.89 1616.04C1432.19 1615.13 1432.37 1613.83 1433.27 1613.14C1434.18 1612.44 1435.48 1612.62 1436.17 1613.52C1443.9 1623.6 1464.66 1627.16 1464.86 1627.19C1465.99 1627.38 1466.75 1628.45 1466.56 1629.57C1466.4 1630.58 1465.52 1631.3 1464.52 1631.3L1464.54 1631.31Z" fill="#E41417"/>
<path d="M1445.38 1644.32C1445.24 1644.32 1445.09 1644.3 1444.96 1644.28C1444.08 1644.09 1423.39 1639.62 1416.73 1628.36C1416.16 1627.38 1416.48 1626.11 1417.47 1625.53C1418.45 1624.95 1419.72 1625.28 1420.3 1626.26C1426.02 1635.95 1445.62 1640.19 1445.81 1640.24C1446.93 1640.47 1447.64 1641.57 1447.41 1642.69C1447.2 1643.66 1446.34 1644.33 1445.38 1644.33V1644.32Z" fill="#E41417"/>
<path d="M1424.78 1656.61C1424.54 1656.61 1424.29 1656.58 1424.05 1656.48C1423.34 1656.21 1406.34 1649.79 1400.98 1638.56C1400.49 1637.53 1400.92 1636.3 1401.95 1635.8C1402.98 1635.3 1404.22 1635.75 1404.71 1636.78C1409.35 1646.49 1425.34 1652.54 1425.49 1652.6C1426.56 1653 1427.11 1654.19 1426.71 1655.27C1426.4 1656.1 1425.61 1656.61 1424.77 1656.61H1424.78Z" fill="#E41417"/>
<path d="M1550.4 1474.42C1551.93 1474.42 1573.73 1472.25 1586.33 1470.99C1591.23 1470.5 1595.6 1474.04 1596.13 1478.94L1598.61 1501.78C1599.48 1509.86 1601.1 1517.83 1603.38 1525.62C1607.51 1539.77 1613.61 1564.15 1610.27 1575.28C1606.71 1587.18 1595.54 1603.75 1588.17 1613.19C1584.77 1617.55 1579.03 1619.28 1573.79 1617.51C1564.43 1614.37 1549.47 1608.33 1540.68 1599.56C1527.2 1586.07 1541.76 1560.18 1541.76 1560.18L1550.39 1474.42H1550.4Z" fill="white"/>
<path d="M1577.92 1620.26C1576.32 1620.26 1574.71 1620.01 1573.14 1619.48C1562.53 1615.92 1548.04 1609.83 1539.24 1601.02C1525.58 1587.37 1537.87 1563.07 1539.76 1559.56L1548.34 1474.22C1548.44 1473.17 1549.34 1472.36 1550.39 1472.36C1551.52 1472.35 1564.87 1471.08 1586.12 1468.94C1592.08 1468.34 1597.53 1472.73 1598.18 1478.73L1600.66 1501.58C1601.5 1509.37 1603.08 1517.28 1605.36 1525.06C1610.34 1542.12 1615.59 1564.78 1612.25 1575.9C1608.71 1587.69 1597.95 1604.06 1589.8 1614.48C1586.89 1618.21 1582.46 1620.28 1577.91 1620.28L1577.92 1620.26ZM1552.29 1476.37L1543.83 1560.39C1543.81 1560.67 1543.72 1560.95 1543.58 1561.2C1543.44 1561.44 1529.95 1585.88 1542.16 1598.1C1550.84 1606.77 1566.12 1612.77 1574.46 1615.56C1578.85 1617.03 1583.7 1615.56 1586.55 1611.93C1595.09 1600.99 1605.14 1585.23 1608.29 1574.7C1611.5 1564.01 1605.35 1539.73 1601.39 1526.21C1599.05 1518.2 1597.42 1510.05 1596.55 1502.01L1594.07 1479.17C1593.66 1475.42 1590.26 1472.68 1586.55 1473.06C1568.13 1474.91 1556.64 1476.01 1552.29 1476.37Z" fill="#E41417"/>
<path d="M1567.91 1616.49C1567.49 1616.49 1567.08 1616.37 1566.71 1616.11C1565.78 1615.45 1565.56 1614.16 1566.22 1613.22C1591.93 1577.06 1590.22 1567.74 1586.46 1547.34C1585.65 1542.87 1584.71 1537.81 1583.95 1531.85C1581.94 1516.3 1575.92 1473.51 1575.86 1473.09C1575.71 1471.95 1576.5 1470.9 1577.62 1470.75C1578.77 1470.58 1579.8 1471.38 1579.96 1472.5C1580.03 1472.93 1586.05 1515.74 1588.05 1531.31C1588.8 1537.16 1589.72 1542.16 1590.54 1546.58C1594.39 1567.51 1596.32 1578.01 1569.6 1615.61C1569.19 1616.17 1568.56 1616.48 1567.91 1616.48V1616.49Z" fill="#E41417"/>
<path d="M1571.53 1551.06C1571.42 1551.06 1571.32 1551.06 1571.22 1551.05L1546.64 1547.43C1545.5 1547.26 1544.72 1546.21 1544.89 1545.08C1545.06 1543.95 1546.08 1543.15 1547.24 1543.33L1571.82 1546.95C1572.96 1547.12 1573.74 1548.17 1573.57 1549.3C1573.42 1550.33 1572.54 1551.06 1571.53 1551.06Z" fill="#E41417"/>
<path d="M1569 1568.78C1568.9 1568.78 1568.8 1568.78 1568.69 1568.76L1544.11 1565.15C1542.98 1564.98 1542.2 1563.93 1542.37 1562.8C1542.53 1561.66 1543.56 1560.86 1544.72 1561.05L1569.3 1564.66C1570.43 1564.83 1571.21 1565.88 1571.04 1567.01C1570.89 1568.05 1570.01 1568.78 1569 1568.78Z" fill="#E41417"/>
<path d="M1542.27 1576.74C1527.94 1586.62 1497.62 1599.35 1446.65 1584.06L1470.04 1067.19L1566.05 1048.85C1566.05 1048.85 1578.58 1177.35 1564.97 1306.67C1552.54 1424.72 1552.04 1525.33 1552.24 1557.3C1552.29 1565.03 1548.64 1572.36 1542.27 1576.74Z" fill="#E41417"/>
<path d="M1561.73 1033.74L1331.95 1046.69L1339.77 1297.96C1340.68 1327.3 1349.74 1355.79 1365.95 1380.26C1391.93 1419.49 1433.43 1477.21 1466.26 1499.78C1518.04 1535.37 1561.73 1033.75 1561.73 1033.75V1033.74Z" fill="#E41417"/>
<path d="M1447.55 1491.25C1447.55 1491.25 1447.48 1491.25 1447.44 1491.25C1446.3 1491.19 1445.42 1490.23 1445.48 1489.08L1453.06 1326.26C1453.12 1325.11 1454.05 1324.23 1455.23 1324.29C1456.37 1324.34 1457.25 1325.31 1457.2 1326.45L1449.61 1489.28C1449.55 1490.38 1448.64 1491.25 1447.55 1491.25Z" fill="white"/>
<path d="M1184.62 622.14C1186.14 621.842 1187.23 620.523 1187.19 618.981C1187.01 610.973 1185.35 586.951 1171.87 575.924C1155.56 562.575 1141.72 531.937 1131.83 534.901C1121.95 537.864 1143.69 564.553 1141.22 567.526C1138.75 570.489 1133.54 560.345 1128.1 550.452C1122.66 540.568 1127.5 538.347 1119.61 539.007C1108.77 539.908 1101.58 541.58 1115.92 573.713C1129.56 604.285 1156.74 603.328 1160.29 623.645C1160.6 625.372 1162.27 626.496 1164 626.162L1184.62 622.149V622.14Z" fill="white"/>
<path d="M1163.39 628.28C1162.34 628.28 1161.32 627.964 1160.43 627.351C1159.28 626.552 1158.51 625.363 1158.27 623.988C1156.72 615.126 1150.18 610.667 1141.88 605.009C1132.75 598.776 1121.39 591.028 1114.03 574.549C1106.18 556.954 1104.15 547.228 1107.22 542.026C1109.75 537.743 1115.12 537.297 1119.44 536.944C1124.74 536.489 1126.25 537.418 1127.07 541.598C1127.43 543.373 1127.91 545.807 1129.92 549.448L1131.16 551.724C1133.19 555.431 1135.93 560.429 1138.02 563.429C1137.13 561.645 1135.94 559.5 1134.94 557.716C1129.5 547.934 1125.78 540.651 1127.64 536.071C1128.27 534.52 1129.52 533.424 1131.24 532.913C1138.34 530.776 1145.39 540.307 1154.31 552.374C1160.02 560.094 1166.49 568.845 1173.18 574.316C1187.07 585.678 1189.05 609.301 1189.25 618.935C1189.31 621.48 1187.52 623.682 1185.01 624.174L1164.39 628.187C1164.06 628.252 1163.71 628.289 1163.38 628.289L1163.39 628.28ZM1121.75 540.967C1121.31 540.967 1120.67 540.995 1119.79 541.069C1115.51 541.431 1112.13 541.877 1110.79 544.134C1108.57 547.897 1110.86 557.289 1117.81 572.867C1124.69 588.279 1135.06 595.357 1144.21 601.6C1152.95 607.555 1160.49 612.701 1162.34 623.282C1162.4 623.654 1162.64 623.858 1162.77 623.951C1163.03 624.118 1163.32 624.183 1163.61 624.127L1184.23 620.114C1184.76 620.012 1185.13 619.557 1185.13 619.027C1184.98 611.967 1183.47 588.084 1170.57 577.531C1163.48 571.734 1156.85 562.76 1151 554.845C1143.99 545.379 1136.75 535.579 1132.43 536.889C1131.79 537.084 1131.61 537.362 1131.49 537.641C1130.23 540.735 1135.25 549.745 1138.57 555.709C1142.89 563.494 1144.59 566.736 1142.82 568.845C1142.06 569.765 1141.02 570.22 1139.89 570.099C1136.47 569.765 1133.3 564.256 1127.54 553.712L1126.29 551.445C1123.98 547.247 1123.41 544.33 1123.02 542.407C1122.93 541.914 1122.81 541.32 1122.71 541.041C1122.56 541.004 1122.28 540.967 1121.75 540.967Z" fill="#E41417"/>
<path d="M1670.4 1097.85C1671.85 1097.61 1673.27 1098.38 1673.84 1099.74C1676.5 1105.93 1684 1121.31 1695.64 1127.05C1703.91 1131.13 1711.35 1133.72 1721.43 1143.28C1731.51 1152.84 1748.81 1177.59 1745.03 1183.69C1740.54 1190.93 1726.18 1183.55 1715.14 1176.81C1704.1 1170.08 1693.13 1153.91 1682.38 1152.29C1671.63 1150.65 1694.36 1176.52 1691.11 1180.59C1687.87 1184.67 1676.29 1178.62 1668.85 1166.38C1665.92 1161.55 1648.4 1118.99 1643.11 1106.1C1642.34 1104.21 1643.52 1102.1 1645.54 1101.76L1670.39 1097.85H1670.4Z" fill="white"/>
<path d="M1738.95 1188.79C1731.97 1188.79 1722.44 1183.69 1714.07 1178.58C1709.48 1175.77 1704.93 1171.45 1700.55 1167.27C1694.33 1161.35 1687.89 1155.22 1682.07 1154.33C1681.84 1154.3 1681.66 1154.29 1681.53 1154.29C1681.64 1156.34 1685.18 1162.35 1687.36 1166.03C1692.25 1174.31 1694.92 1179.14 1692.74 1181.88C1691.92 1182.91 1690.31 1184.08 1687.54 1183.9C1681.25 1183.5 1672.64 1176.58 1667.1 1167.45C1664.18 1162.65 1648.02 1123.49 1641.21 1106.88C1640.6 1105.39 1640.7 1103.74 1641.48 1102.34C1642.26 1100.94 1643.62 1099.98 1645.21 1099.71L1670.07 1095.8C1672.48 1095.39 1674.8 1096.68 1675.76 1098.91C1678.38 1105.01 1685.64 1119.79 1696.56 1125.18C1697.87 1125.83 1699.17 1126.44 1700.46 1127.05C1707.19 1130.23 1714.16 1133.51 1722.86 1141.76C1730.79 1149.28 1751.91 1176.51 1746.79 1184.77C1745.03 1187.62 1742.28 1188.78 1738.96 1188.78L1738.95 1188.79ZM1681.52 1150.15C1681.88 1150.15 1682.27 1150.18 1682.7 1150.25C1689.8 1151.32 1696.71 1157.91 1703.4 1164.28C1707.63 1168.31 1712 1172.48 1716.21 1175.05C1731.49 1184.37 1740.6 1186.92 1743.26 1182.6C1745.73 1178.61 1731.82 1155.99 1720 1144.78C1711.78 1136.99 1705.42 1133.98 1698.67 1130.8C1697.36 1130.19 1696.05 1129.57 1694.72 1128.91C1682.56 1122.91 1674.73 1107.08 1671.94 1100.55C1671.73 1100.07 1671.23 1099.81 1670.73 1099.9C1670.73 1099.9 1670.72 1099.9 1670.71 1099.9L1645.86 1103.81C1645.42 1103.88 1645.18 1104.19 1645.08 1104.36C1644.99 1104.54 1644.85 1104.89 1645.03 1105.32C1655.92 1131.89 1668.37 1161.6 1670.63 1165.31C1675.92 1174.03 1683.51 1179.52 1687.8 1179.79C1688.53 1179.84 1689.06 1179.71 1689.37 1179.44C1689.44 1177.71 1685.92 1171.75 1683.79 1168.15C1678.78 1159.67 1676.04 1154.74 1678.05 1151.77C1678.57 1151 1679.58 1150.16 1681.51 1150.16L1681.52 1150.15Z" fill="#E41417"/>
<path d="M1443.51 667.305C1423.02 662.679 1407.88 658.22 1386.91 659.363C1362.94 660.663 1350.66 658.294 1330.8 668.225C1293.58 686.832 1278.8 737.674 1256.96 728.775C1235.11 719.875 1190.5 603.253 1190.5 603.253L1151.37 619.687C1151.37 619.687 1201.07 835.457 1240.71 848.397C1280.36 861.347 1328.59 799.664 1328.59 799.664C1328.59 799.664 1330.34 956.082 1304.45 1059.64C1304.45 1059.64 1345.31 1059.43 1371.87 1070.43C1513.5 1129.1 1573.3 1059.64 1573.3 1059.64C1572.41 1019.44 1563.58 991.866 1534.6 947.016C1518.76 922.5 1514.22 882.88 1545.55 847.124C1545.55 847.124 1621.89 1082.91 1636.11 1110.69C1637.08 1112.59 1684.08 1102.15 1684.18 1101.05C1691.79 1016.49 1633.8 858.755 1625.36 820.51C1622.81 808.907 1619.41 797.518 1614.82 786.565C1600.52 752.38 1568.55 696.335 1508.88 682.076L1443.52 667.315L1443.51 667.305Z" fill="white"/>
<path d="M1637.25 1112.98C1634.96 1112.98 1634.65 1112.39 1634.26 1111.63C1620.91 1085.55 1554.66 881.924 1544.73 851.286C1516.1 886.243 1522.12 923.875 1536.33 945.883C1564.94 990.175 1574.43 1017.8 1575.35 1059.59C1575.36 1060.1 1575.19 1060.6 1574.85 1060.98C1574.23 1061.71 1559.13 1078.91 1526.3 1089.01C1496.18 1098.26 1444.8 1102.88 1371.08 1072.33C1345.2 1061.62 1304.91 1061.71 1304.45 1061.71H1304.44C1303.81 1061.71 1303.21 1061.42 1302.82 1060.92C1302.42 1060.41 1302.28 1059.75 1302.43 1059.14C1325.18 968.122 1326.52 834.472 1326.52 805.386C1315.76 817.955 1283.49 852.262 1252.27 852.262C1248.16 852.262 1244.08 851.667 1240.06 850.357C1199.77 837.203 1151.39 628.995 1149.35 620.142C1149.13 619.157 1149.64 618.163 1150.57 617.773L1189.7 601.34C1190.22 601.126 1190.8 601.126 1191.32 601.34C1191.83 601.563 1192.24 601.981 1192.44 602.501C1204.75 634.708 1240.5 719.829 1257.73 726.852C1267.91 730.995 1277.03 719.467 1288.59 704.873C1299.57 691.013 1312.01 675.295 1329.87 666.377C1345.79 658.415 1357.03 658.155 1372.6 657.793C1377.02 657.691 1381.58 657.589 1386.8 657.301C1405.25 656.288 1419.52 659.614 1436.03 663.46C1438.6 664.054 1441.23 664.677 1443.97 665.29L1509.33 680.051C1570.41 694.654 1602.83 752.547 1616.73 785.767C1621.12 796.283 1624.61 807.504 1627.39 820.064C1629.35 828.991 1634.06 844.561 1640.04 864.273C1659.51 928.576 1692.1 1036.19 1686.24 1101.23C1686.1 1102.88 1686.07 1103.21 1674.07 1106.07C1667.53 1107.63 1659.65 1109.33 1653.01 1110.62C1644.12 1112.35 1639.63 1112.98 1637.26 1112.98H1637.25ZM1545.54 845.053C1545.68 845.053 1545.82 845.072 1545.96 845.1C1546.7 845.248 1547.28 845.778 1547.51 846.493C1548.27 848.825 1622.45 1077.8 1637.5 1108.88C1643.47 1108.79 1675.92 1101.84 1682.21 1099.7C1687.5 1035.32 1655.33 929.105 1636.06 865.49C1630.07 845.694 1625.33 830.05 1623.33 820.974C1620.6 808.647 1617.19 797.657 1612.89 787.374C1599.3 754.888 1567.65 698.259 1508.38 684.092L1443.03 669.331C1440.29 668.708 1437.64 668.095 1435.06 667.491C1418.19 663.562 1404.87 660.45 1387 661.434C1381.72 661.722 1376.91 661.834 1372.66 661.927C1357.09 662.289 1346.78 662.531 1331.69 670.074C1314.66 678.592 1302.52 693.92 1291.81 707.446C1279.67 722.774 1269.19 736.021 1256.14 730.689C1235.08 722.105 1195.51 621.981 1189.31 605.975L1153.74 620.904C1158.53 641.165 1205.04 834.574 1241.32 846.419C1279.12 858.765 1326.44 798.986 1326.91 798.373C1327.45 797.676 1328.38 797.407 1329.21 797.685C1330.04 797.964 1330.6 798.744 1330.61 799.618C1330.63 801.169 1332.05 954.931 1307.04 1057.58C1316.62 1057.73 1349.57 1058.96 1372.62 1068.51C1445.04 1098.5 1495.32 1094.11 1524.75 1085.13C1553.28 1076.44 1568.27 1061.88 1571.16 1058.84C1570.14 1018.42 1560.76 991.383 1532.82 948.131C1517.43 924.321 1511.12 883.215 1543.96 845.75C1544.35 845.295 1544.92 845.044 1545.52 845.044L1545.54 845.053Z" fill="#E41417"/>
<path d="M1418.26 1057.39C1417.5 1057.39 1416.76 1056.96 1416.4 1056.22L1360.3 941.879C1359.8 940.848 1360.22 939.612 1361.25 939.11C1362.28 938.6 1363.51 939.027 1364.02 940.058L1420.12 1054.4C1420.62 1055.44 1420.2 1056.67 1419.17 1057.17C1418.87 1057.32 1418.56 1057.39 1418.26 1057.39Z" fill="#E41417"/>
<path d="M1369.17 1019.63C1368.36 1019.63 1367.59 1019.15 1367.26 1018.35L1351.88 981.137C1351.45 980.078 1351.95 978.87 1353.01 978.433C1354.07 977.997 1355.27 978.498 1355.71 979.557L1371.08 1016.77C1371.52 1017.83 1371.02 1019.04 1369.96 1019.48C1369.7 1019.59 1369.43 1019.63 1369.17 1019.63Z" fill="#E41417"/>
<path d="M1449.27 630.825C1434.64 620.745 1451.29 560.437 1467.87 551.538C1484.46 542.638 1519.25 552.346 1519.25 552.346C1506.3 594.818 1529.57 605.343 1532.81 605.343C1536.05 605.343 1546.36 605.947 1539.89 619.705C1533.41 633.463 1518.85 625.976 1518.85 625.976C1515.93 628.558 1510.43 631.484 1503.69 633.974C1495.66 657.848 1504.47 676.632 1512.05 687.213C1515.9 692.582 1513.22 700.19 1506.8 701.723C1496.51 704.176 1480.8 705.625 1461 700.404C1445.87 696.409 1435.75 690.929 1429.09 685.847C1423.61 681.667 1424.47 673 1430.74 670.12C1447.63 662.372 1458.96 637.485 1449.28 630.815L1449.27 630.825Z" fill="white"/>
<path d="M1487.27 705.996C1479.51 705.996 1470.51 705.049 1460.47 702.401C1447.2 698.899 1436.22 693.883 1427.83 687.492C1424.64 685.067 1423.01 681.212 1423.45 677.199C1423.89 673.232 1426.29 669.888 1429.87 668.244C1441.33 662.995 1449.89 649.516 1450.7 640.226C1450.92 637.69 1450.64 634.29 1448.09 632.525C1443.26 629.199 1441.04 621.377 1441.68 609.905C1442.89 588.121 1454.4 556.415 1466.9 549.708C1484.02 540.521 1518.35 549.94 1519.81 550.349C1520.35 550.498 1520.81 550.86 1521.08 551.343C1521.35 551.835 1521.4 552.411 1521.24 552.941C1514.2 576.053 1518.26 588.854 1522.91 595.534C1526.85 601.2 1531.79 603.198 1532.83 603.263C1538.86 603.263 1541.58 605.548 1542.8 607.471C1544.75 610.555 1544.4 614.958 1541.75 620.578C1539.68 624.991 1536.63 627.908 1532.68 629.255C1527.22 631.113 1521.62 629.366 1519.18 628.382C1516.06 630.788 1511.15 633.342 1505.36 635.553C1498.29 657.653 1505.98 675.155 1513.75 686.005C1515.99 689.136 1516.52 693.149 1515.18 696.744C1513.87 700.256 1510.91 702.866 1507.28 703.739C1502.16 704.965 1495.41 706.006 1487.27 706.006V705.996ZM1450.45 629.116C1453.72 631.373 1455.28 635.442 1454.83 640.579C1453.93 650.983 1444.79 665.949 1431.61 671.996C1429.36 673.028 1427.85 675.136 1427.58 677.645C1427.29 680.209 1428.33 682.652 1430.34 684.194C1438.31 690.26 1448.79 695.035 1461.53 698.398C1481.27 703.6 1496.77 701.983 1506.31 699.707C1508.64 699.15 1510.46 697.543 1511.29 695.295C1512.16 692.991 1511.8 690.418 1510.37 688.411C1501.94 676.623 1493.59 657.495 1501.73 633.305C1501.93 632.711 1502.39 632.246 1502.98 632.023C1509.32 629.673 1514.75 626.83 1517.48 624.415C1518.12 623.848 1519.04 623.737 1519.79 624.127C1519.85 624.155 1525.93 627.193 1531.37 625.325C1534.2 624.35 1536.44 622.167 1538.01 618.813C1539.98 614.624 1540.43 611.465 1539.3 609.691C1538.35 608.195 1536.11 607.406 1532.81 607.406C1530.84 607.406 1524.88 605.186 1520 598.59C1514.66 591.381 1509.84 577.8 1516.66 553.814C1509.09 551.956 1482.28 546.159 1468.86 553.359C1458.89 558.71 1447.05 587.888 1445.81 610.137C1445.26 619.947 1446.92 626.691 1450.44 629.125L1450.45 629.116Z" fill="#E41417"/>
<path d="M1044.82 224.943C1042.11 189.893 1044.8 139.943 1074.88 98.2513C1158.1 -17.0515 1400.98 -0.144372 1448.18 93.9595C1472.14 141.717 1446.22 210.433 1407.51 248.26C1350.28 304.193 1253.73 303.663 1194.8 270.044C1138.69 238.032 1121.25 178.625 1085.62 184.152C1065.82 187.227 1052.63 208.473 1044.82 224.952V224.943Z" fill="white"/>
<path d="M1287.85 295.275C1253.95 295.275 1220.3 286.979 1193.76 271.837C1167.86 257.057 1150.49 236.964 1135.17 219.239C1117.86 199.202 1104.18 183.353 1085.94 186.196C1071.27 188.472 1058.07 201.812 1046.69 225.835C1046.29 226.68 1045.38 227.145 1044.44 226.987C1043.52 226.82 1042.83 226.049 1042.75 225.11C1038.77 173.655 1049 130.57 1073.2 97.0437C1094.58 67.4191 1128.17 44.3994 1170.35 30.465C1207.99 18.0355 1252.34 13.0841 1295.23 16.5213C1370.05 22.5316 1429.37 51.8497 1450.02 93.0305C1474.58 141.996 1448.42 211.167 1408.95 249.737C1382.19 275.887 1344.18 291.893 1301.92 294.792C1297.24 295.117 1292.54 295.275 1287.85 295.275ZM1090.29 181.709C1108.22 181.709 1121.65 197.26 1138.31 216.527C1153.41 234.001 1170.52 253.806 1195.82 268.242C1252.99 300.858 1349.63 301.926 1406.06 246.783C1443.65 210.061 1469.72 141.541 1446.33 94.8885C1426.32 54.9896 1368.3 26.5448 1294.92 20.6459C1224.5 14.9885 1125.09 32.2393 1076.57 99.459C1054.16 130.514 1044.02 170.097 1046.4 217.196C1057.65 196.155 1070.71 184.357 1085.31 182.09C1087.01 181.83 1088.67 181.7 1090.3 181.7L1090.29 181.709Z" fill="#E41417"/>
<path d="M1365.66 129.817H1161.16C1160.01 129.817 1159.09 128.889 1159.09 127.746C1159.09 126.603 1160.01 125.674 1161.16 125.674H1365.66C1366.8 125.674 1367.73 126.603 1367.73 127.746C1367.73 128.889 1366.8 129.817 1365.66 129.817Z" fill="#E41417"/>
<path d="M1311.26 165.768H1208.37C1207.23 165.768 1206.3 164.839 1206.3 163.697C1206.3 162.554 1207.23 161.625 1208.37 161.625H1311.26C1312.4 161.625 1313.33 162.554 1313.33 163.697C1313.33 164.839 1312.4 165.768 1311.26 165.768Z" fill="#E41417"/>
<path d="M1581.07 448.619C1586.27 441.308 1644.9 355.89 1608.07 258.469C1582.23 190.079 1516.49 134.667 1440.15 131.685C1427.28 131.183 1346.07 128.015 1302.48 192.885C1273.13 236.574 1269.92 297.616 1298.45 342.02C1332.36 394.795 1397.1 402.319 1406.71 403.285C1473.97 410.048 1511.03 366.907 1547.71 387.734C1570.15 400.48 1577.9 428.915 1581.07 448.619Z" fill="white"/>
<path d="M1581.06 450.69C1580.9 450.69 1580.74 450.672 1580.58 450.634C1579.77 450.439 1579.14 449.78 1579.01 448.944C1574.21 418.975 1563.33 398.984 1546.69 389.527C1528.56 379.234 1510.3 385.263 1487.18 392.909C1464.83 400.294 1439.49 408.655 1406.51 405.338C1388.99 403.573 1329.31 393.875 1296.71 343.135C1268.6 299.381 1270.27 237.122 1300.77 191.723C1340.68 132.316 1411.58 128.48 1440.24 129.613C1477.21 131.053 1513.21 144.644 1544.33 168.917C1573.7 191.816 1597.03 223.364 1610.01 257.735C1646.92 355.379 1589.43 440.434 1582.76 449.817C1582.37 450.374 1581.73 450.69 1581.08 450.69H1581.06ZM1525.72 379.959C1533.54 379.959 1541.15 381.631 1548.72 385.942C1565.53 395.491 1576.79 414.749 1582.21 443.231C1595.23 423.239 1639.04 346.303 1606.12 259.203C1578.83 186.976 1512.09 136.562 1440.06 133.756C1412.11 132.679 1342.94 136.367 1304.19 194.046C1274.58 238.107 1272.94 298.498 1300.18 340.905C1332.59 391.348 1394.76 400.006 1406.91 401.223C1439.03 404.456 1463.91 396.234 1485.87 388.979C1500.12 384.269 1513.18 379.959 1525.72 379.959Z" fill="#E41417"/>
<path d="M1543.05 255.422H1350.8C1349.65 255.422 1348.72 254.493 1348.72 253.351C1348.72 252.208 1349.65 251.279 1350.8 251.279H1543.05C1544.2 251.279 1545.13 252.208 1545.13 253.351C1545.13 254.493 1544.2 255.422 1543.05 255.422Z" fill="#E41417"/>
<path d="M1480.95 280.476H1412.16C1411.02 280.476 1410.09 279.547 1410.09 278.405C1410.09 277.262 1411.02 276.333 1412.16 276.333H1480.95C1482.1 276.333 1483.02 277.262 1483.02 278.405C1483.02 279.547 1482.1 280.476 1480.95 280.476Z" fill="#E41417"/>
<path d="M169.695 1625.96H901.336C932.466 1625.96 957.696 1600.35 957.696 1568.77L886.361 67.6886C886.361 36.1039 861.131 10.5017 830.001 10.5017H98.3601C67.2306 10.5017 42 36.1132 42 67.6886L113.326 1568.77C113.326 1600.35 138.556 1625.96 169.686 1625.96H169.695Z" fill="#E41417"/>
<path d="M219.283 1626.28H950.924C982.053 1626.28 1007.28 1600.79 1007.28 1569.35L935.958 70.9585C935.958 39.5132 910.728 14.0225 879.598 14.0225H147.948C116.818 14.0225 91.5879 39.5132 91.5879 70.9585L162.914 1569.35C162.914 1600.79 188.144 1626.28 219.274 1626.28H219.283Z" fill="white"/>
<path d="M877.917 1626.4H727.193C726.05 1626.4 725.121 1625.47 725.121 1624.33C725.121 1623.19 726.05 1622.26 727.193 1622.26H877.917C879.059 1622.26 879.988 1623.19 879.988 1624.33C879.988 1625.47 879.059 1626.4 877.917 1626.4Z" fill="#E41417"/>
<path d="M648.25 1626.4H219.283C187.067 1626.4 160.852 1599.94 160.852 1567.4L133.689 1060.22C133.624 1059.08 134.506 1058.1 135.64 1058.04C136.792 1058 137.758 1058.85 137.814 1060L164.976 1567.28C164.976 1597.65 189.334 1622.26 219.274 1622.26H648.241C649.383 1622.26 650.312 1623.19 650.312 1624.33C650.312 1625.47 649.383 1626.4 648.241 1626.4H648.25Z" fill="#E41417"/>
<path d="M115.053 582.036C113.957 582.036 113.037 581.172 112.991 580.057L89.5254 69.1005C89.5254 36.4661 115.731 10 147.957 10H879.598C911.814 10 938.03 36.4661 938.03 69.0077L943.566 205.305C943.613 206.448 942.73 207.414 941.588 207.46C940.361 207.534 939.479 206.624 939.432 205.481L933.896 69.1005C933.896 38.7607 909.539 14.1525 879.598 14.1525H147.948C118.007 14.1525 93.6593 38.7699 93.6593 69.0169L117.125 579.89C117.181 581.033 116.298 581.999 115.155 582.055C115.128 582.055 115.09 582.055 115.063 582.055L115.053 582.036Z" fill="#E41417"/>
<path d="M253.219 1583.45H921.365C949.791 1583.45 972.839 1560.17 972.839 1531.45L902.414 112.492C902.414 83.7781 879.367 60.4983 850.941 60.4983H182.794C154.368 60.4983 131.32 83.7781 131.32 112.492L201.745 1531.45C201.745 1560.17 224.792 1583.45 253.219 1583.45Z" fill="white"/>
<path d="M921.365 1585.52H253.218C223.696 1585.52 199.682 1561.26 199.682 1531.45L129.258 112.595C129.258 82.6819 153.271 58.4268 182.794 58.4268H850.94C880.463 58.4268 904.476 82.6819 904.476 112.492L974.901 1531.35C974.901 1561.26 950.887 1585.52 921.365 1585.52ZM182.794 62.5606C155.557 62.5606 133.392 84.9579 133.392 112.492L203.807 1531.35C203.807 1558.99 225.972 1581.39 253.209 1581.39H921.356C948.593 1581.39 970.758 1558.99 970.758 1531.45L900.343 112.595C900.343 84.9579 878.177 62.5606 850.94 62.5606H182.794Z" fill="#E41417"/>
<path d="M180.109 513.869C179.013 513.869 178.094 513.005 178.047 511.9L171.674 377.33C171.619 376.188 172.501 375.221 173.644 375.166C174.768 375.045 175.753 375.992 175.808 377.135L182.181 511.704C182.237 512.847 181.354 513.813 180.212 513.869C180.174 513.869 180.147 513.869 180.109 513.869Z" fill="#E41417"/>
<path d="M885.582 389.806C884.486 389.806 883.566 388.942 883.52 387.837L871.657 137.454C871.657 110.792 851.285 89.1847 826.24 89.1847H209.846C184.801 89.1847 164.429 110.792 164.429 137.351L173.44 327.463C173.495 328.606 172.613 329.572 171.47 329.628C170.337 329.665 169.362 328.801 169.306 327.658L160.295 137.444C160.295 108.507 182.525 85.0415 209.846 85.0415H826.23C853.551 85.0415 875.781 108.507 875.781 137.351L887.644 387.641C887.7 388.784 886.817 389.75 885.675 389.806C885.638 389.806 885.61 389.806 885.573 389.806H885.582Z" fill="#E41417"/>
<path d="M938.365 1294.17C937.269 1294.17 936.349 1293.31 936.303 1292.2L926.307 1081.15C926.251 1080.01 927.134 1079.04 928.277 1078.98C929.336 1078.92 930.385 1079.81 930.441 1080.95L940.437 1292C940.492 1293.15 939.61 1294.11 938.467 1294.17C938.439 1294.17 938.402 1294.17 938.365 1294.17Z" fill="white"/>
<path d="M831.312 1560.68H433.986C432.843 1560.68 431.914 1559.75 431.914 1558.61C431.914 1557.46 432.843 1556.54 433.986 1556.54H831.312C832.454 1556.54 833.383 1557.46 833.383 1558.61C833.383 1559.75 832.454 1560.68 831.312 1560.68Z" fill="#E41417"/>
<path d="M384.312 1560.68H274.816C247.495 1560.68 225.265 1537.21 225.265 1508.37L216.588 1325.25C216.533 1324.11 217.415 1323.14 218.558 1323.09C219.691 1323.02 220.667 1323.91 220.722 1325.06L229.408 1508.27C229.408 1534.93 249.78 1556.54 274.825 1556.54H384.322C385.464 1556.54 386.393 1557.46 386.393 1558.61C386.393 1559.75 385.464 1560.68 384.322 1560.68H384.312Z" fill="#E41417"/>
<path d="M637.605 14.0967L623.512 37.5623C614.947 51.8125 600.604 60.3683 585.248 60.3683H442.941C427.919 60.3683 413.836 52.1841 405.206 38.4262L389.943 14.0967H637.605Z" fill="#E41417"/>
<path d="M973.915 906.959C972.819 906.959 971.909 906.104 971.853 904.999L961.504 700.116C961.449 698.974 962.331 697.998 963.465 697.943C964.616 697.905 965.583 698.76 965.638 699.903L975.987 904.785C976.043 905.928 975.16 906.903 974.027 906.959C973.99 906.959 973.953 906.959 973.915 906.959Z" fill="#E41417"/>
<path d="M534.136 1103.56C737.54 1103.56 902.432 938.673 902.432 735.268C902.432 531.864 737.54 366.972 534.136 366.972C330.732 366.972 165.84 531.864 165.84 735.268C165.84 938.673 330.732 1103.56 534.136 1103.56Z" fill="white"/>
<path d="M534.135 1105.63C329.912 1105.63 163.768 939.482 163.768 735.259C163.768 531.036 329.912 364.891 534.135 364.891C738.358 364.891 904.503 531.036 904.503 735.259C904.503 939.482 738.358 1105.63 534.135 1105.63ZM534.135 369.035C332.198 369.035 167.911 533.321 167.911 735.259C167.911 937.197 332.198 1101.48 534.135 1101.48C736.073 1101.48 900.36 937.197 900.36 735.259C900.36 533.321 736.073 369.035 534.135 369.035Z" fill="#E41417"/>
<path d="M738.859 991.467L396.741 1010.73C396.741 1010.73 396.574 1040.77 395.803 1075C444.499 1098.74 498.834 1103.56 556.652 1103.56C626.306 1103.56 690.869 1069.77 746.411 1036.18L738.859 991.476V991.467Z" fill="#E41417"/>
<path d="M1029.25 329.637C1028.44 322.679 1032.4 314.978 1033.81 307.983C1036.84 292.804 1039.43 277.402 1038.99 261.925C1038.6 248.232 1038 235.886 1032.37 223.494C1028.52 215.013 1022.4 204.376 1010.66 205.491C1002.15 206.299 994.222 211.696 989.512 218.701C983.038 228.325 981.523 240.466 981.858 252.069C982.155 262.492 985.964 275.209 983.734 285.456C981.375 296.325 975.076 295.377 969.623 286.933C955.884 265.687 933.022 261.656 941.076 269.171C949.131 276.686 963.622 306.757 968.992 315.015C970.943 318.016 976.944 321.667 983.799 325.113C983.855 344.77 981.393 374.98 967.45 407.902C950.831 447.132 924.717 474.119 903.156 491.416C920.807 522.304 959.247 572.774 1025.16 581.191C1034.5 562.639 1041.81 543.066 1046.92 522.936C1055.99 487.189 1058.1 449.752 1053.15 413.207C1050.65 394.748 1046.36 376.531 1040.35 358.89C1037.31 349.935 1033.03 341.444 1029.93 332.554C1029.6 331.588 1029.38 330.613 1029.26 329.609L1029.25 329.637Z" fill="white"/>
<path d="M1025.17 583.281C1025.08 583.281 1024.99 583.281 1024.91 583.262C957.657 574.679 918.641 522.694 901.372 492.466C900.87 491.583 901.084 490.459 901.873 489.827C930.671 466.724 952.093 438.892 965.554 407.122C976.218 381.947 981.662 354.794 981.745 326.404C973.849 322.354 969.112 319.001 967.263 316.158C965.507 313.445 962.841 308.55 959.748 302.874C953.486 291.355 944.903 275.59 939.664 270.704C938.948 270.035 936.765 267.991 937.471 265.79C937.648 265.242 938.27 263.95 940.314 263.672C945.665 262.929 961.095 269.933 971.369 285.818C974.249 290.277 976.803 291.596 978.076 291.345C979.553 291.076 980.919 288.716 981.718 285.029C983.065 278.823 982.043 271.419 981.049 264.257C980.482 260.197 979.906 255.989 979.795 252.143C979.377 237.503 981.996 226.188 987.802 217.558C993.107 209.68 1001.79 204.274 1010.47 203.447C1023.31 202.212 1029.91 213.071 1034.27 222.649C1039.87 234.985 1040.64 247.192 1041.07 261.87C1041.5 276.686 1039.29 291.178 1035.84 308.392C1035.34 310.882 1034.54 313.445 1033.76 315.935C1032.32 320.515 1030.83 325.253 1031.32 329.405C1031.43 330.297 1031.61 331.114 1031.89 331.913C1033.38 336.168 1035.18 340.441 1036.93 344.575C1038.8 349.006 1040.73 353.595 1042.32 358.268C1048.36 375.992 1052.69 394.395 1055.22 412.965C1060.18 449.566 1058 487.784 1048.95 523.484C1043.8 543.772 1036.42 563.522 1027.02 582.166C1026.67 582.872 1025.95 583.3 1025.17 583.3L1025.17 583.281ZM905.84 491.936C923.017 521.459 960.5 570.201 1023.97 578.961C1032.91 560.967 1039.95 541.961 1044.91 522.443C1053.84 487.254 1055.98 449.585 1051.09 413.504C1048.61 395.194 1044.33 377.051 1038.38 359.578C1036.84 355.044 1034.94 350.53 1033.09 346.163C1031.31 341.974 1029.49 337.645 1027.96 333.26C1027.59 332.192 1027.33 331.059 1027.19 329.879C1026.6 324.844 1028.22 319.688 1029.79 314.69C1030.57 312.201 1031.31 309.85 1031.77 307.574C1035.16 290.639 1037.33 276.408 1036.92 261.981C1036.5 247.294 1035.78 236.007 1030.49 224.349C1026.71 216.016 1021.05 206.578 1010.85 207.553C1003.37 208.268 995.856 212.978 991.221 219.862C985.907 227.749 983.52 238.265 983.919 252.013C984.021 255.645 984.56 259.547 985.136 263.681C986.177 271.196 987.254 278.972 985.749 285.892C984.207 292.99 981.123 294.987 978.801 295.405C975.243 296.055 971.36 293.445 967.876 288.057C959.292 274.782 947.634 269.06 942.757 267.936C948.47 273.519 956.719 288.67 963.361 300.886C966.408 306.488 969.047 311.327 970.709 313.901C971.555 315.201 974.49 318.146 984.718 323.283C985.415 323.636 985.851 324.342 985.861 325.123C985.944 354.533 980.389 382.662 969.344 408.729C955.827 440.63 934.461 468.619 905.821 491.936H905.84Z" fill="#E41417"/>
<path d="M903.166 491.435C889.296 502.564 877.313 509.698 870.958 513.47C766.06 575.766 702.203 504.319 530.345 508.918C467.501 510.599 424.416 501.662 312.355 550.312C312.355 550.312 108.16 615.776 108.16 824.867C108.16 883.503 146.796 933.174 192.324 949.041C233.022 898.162 246.065 869.095 277.863 856.6C277.631 854.203 255.531 839.089 255.791 836.59C261.309 783.472 279.247 768.293 299.842 758.502C309.271 754.024 320.354 759.449 321.44 769.835C326.234 815.466 319.536 851.723 329.727 960.161C335.644 1023.11 341.952 1032.38 348.018 1038.56C387.982 1079.23 456.14 1024.79 615.383 1022.36C690.972 1021.21 740.83 1032.48 754.996 1006.35C765.206 987.509 748.196 965.214 735.776 932.45C720.43 891.975 709.802 829.493 736.482 736.848C842.504 748.599 946.576 700.99 1006.27 613.333C1013.32 602.975 1019.62 592.236 1025.18 581.209C959.275 572.802 920.825 522.332 903.175 491.435H903.166Z" fill="white"/>
<path d="M387.657 1055.72C371.038 1055.72 357.828 1051.51 346.532 1040.01C339.639 1033 333.461 1022.17 327.655 960.365C321.607 895.988 321.505 857.427 321.422 826.437C321.366 805.266 321.319 788.535 319.378 770.058C318.96 766.045 316.721 762.617 313.238 760.666C309.466 758.557 304.793 758.437 300.724 760.378C282.182 769.194 263.603 782.33 257.89 836.339C259.042 837.956 264.848 842.563 268.75 845.666C277.5 852.615 279.739 854.575 279.916 856.396C280.009 857.315 279.47 858.189 278.615 858.523C256.004 867.404 243.185 884.766 221.958 913.527C214.015 924.284 205.013 936.472 193.94 950.323C193.392 951.01 192.473 951.271 191.646 950.983C142.076 933.713 106.098 880.669 106.098 824.857C106.098 716.039 162.021 646.636 208.943 607.583C259.711 565.315 311.222 548.501 311.733 548.333C406.561 507.162 452.981 507.134 502.123 507.115C511.181 507.115 520.545 507.106 530.299 506.846C600.844 504.96 652.271 515.643 697.651 525.063C762.065 538.44 808.606 548.101 869.909 511.695C876.253 507.924 888.06 500.91 901.883 489.827C902.357 489.447 902.98 489.298 903.565 489.409C904.159 489.521 904.68 489.892 904.977 490.413C921.865 519.972 959.971 570.805 1025.44 579.156C1026.1 579.24 1026.68 579.649 1027 580.234C1027.31 580.829 1027.32 581.535 1027.01 582.138C1021.37 593.351 1014.96 604.238 1007.97 614.494C947.951 702.643 844.613 750.271 737.987 739.096C717.141 812.437 717.048 877.232 737.708 931.716C741.006 940.411 744.554 948.205 747.992 955.748C757.374 976.343 764.787 992.619 756.817 1007.32C745.827 1027.59 715.757 1026.65 670.238 1025.22C653.99 1024.7 635.578 1024.12 615.42 1024.43C544.586 1025.5 490.79 1037.13 451.513 1045.62C425.549 1051.23 404.805 1055.7 387.675 1055.7L387.657 1055.72ZM306.772 754.86C309.735 754.86 312.662 755.594 315.263 757.053C319.926 759.672 322.927 764.252 323.493 769.621C325.453 788.312 325.5 805.126 325.556 826.418C325.639 857.315 325.741 895.784 331.77 959.966C337.437 1020.34 343.382 1030.9 349.476 1037.11C370.815 1058.83 400.848 1052.33 450.612 1041.58C490.065 1033.06 544.094 1021.39 615.336 1020.29C635.587 1020 654.055 1020.56 670.349 1021.08C714.335 1022.47 743.393 1023.39 753.166 1005.35C760.152 992.451 753.119 977.012 744.22 957.467C740.922 950.221 737.178 942 733.834 933.184C712.7 877.427 712.914 811.183 734.485 736.272C734.763 735.306 735.692 734.683 736.705 734.785C842.421 746.509 945.062 699.522 1004.55 612.162C1010.91 602.836 1016.76 592.989 1022 582.854C958.03 573.397 920.156 524.561 902.58 494.537C889.352 504.942 878.158 511.593 872.017 515.235C809.331 552.458 762.13 542.667 696.797 529.104C651.64 519.731 600.445 509.094 530.401 510.98C520.6 511.24 511.199 511.249 502.114 511.249C453.409 511.268 407.406 511.296 313.173 552.198C312.476 552.43 261.624 569.049 211.46 610.853C165.273 649.339 110.222 717.711 110.222 824.857C110.222 878.449 144.371 929.375 191.618 946.579C202.227 933.267 210.922 921.488 218.623 911.056C239.487 882.797 252.391 865.314 274.491 855.736C272.512 853.925 268.973 851.11 266.186 848.899C255.382 840.315 253.515 838.439 253.728 836.367C259.599 779.831 280.148 765.562 298.95 756.625C301.449 755.436 304.124 754.851 306.781 754.851L306.772 754.86Z" fill="#E41417"/>
<path d="M511.934 794.155C511.553 793.328 511.098 792.539 510.531 791.796C499.532 777.295 475.518 792.316 462.977 796.32C453.13 799.469 443.283 802.609 433.436 805.758L395.897 850.134C375.562 855.513 313.721 876.35 268.481 846.864C253.942 837.389 234.481 841.393 224.151 855.337C208.711 876.173 194.21 903.28 184.855 945.687C257.5 967.472 361.302 940.81 407.946 899.249C429.182 900.066 445.847 879.48 458.602 865.239C465.792 857.213 472.527 847.654 481.649 841.746C490.01 836.33 500.145 833.014 506.434 824.876C510.475 819.655 512.305 813.041 513.095 806.482C513.596 802.339 513.615 797.862 511.924 794.146L511.934 794.155Z" fill="white"/>
<path d="M243.147 955.664C222.71 955.664 202.682 953.193 184.26 947.675C183.22 947.369 182.597 946.3 182.83 945.251C190.893 908.696 203.49 879.74 222.478 854.11C233.597 839.108 254.295 835.159 269.595 845.136C310.525 871.807 366.114 856.284 389.849 849.651C391.651 849.15 393.277 848.694 394.717 848.304L431.838 804.429C432.089 804.132 432.423 803.909 432.785 803.798L462.326 794.359C464.807 793.57 467.863 792.279 471.096 790.922C484.324 785.367 502.448 777.75 512.165 790.551C512.806 791.387 513.354 792.316 513.8 793.3C515.398 796.803 515.825 801.076 515.138 806.742C514.153 814.917 511.84 821.262 508.059 826.149C503.433 832.131 496.94 835.605 490.66 838.968C488.003 840.389 485.253 841.867 482.764 843.483C476.103 847.803 470.631 854.287 465.346 860.567C463.608 862.629 461.881 864.673 460.134 866.623L457.487 869.596C444.908 883.772 429.311 901.348 409.19 901.348C409.023 901.348 408.855 901.348 408.688 901.348C374.084 931.753 306.67 955.664 243.119 955.674L243.147 955.664ZM187.298 944.247C261.857 965.641 362.342 937.122 406.57 897.706C406.97 897.353 407.49 897.131 408.029 897.186C426.84 897.864 442.131 880.688 454.412 866.846L457.069 863.864C458.796 861.941 460.487 859.926 462.196 857.9C467.677 851.398 473.353 844.663 480.525 840.018C483.163 838.309 485.987 836.794 488.718 835.327C494.887 832.02 500.711 828.898 504.799 823.612C508.106 819.339 510.149 813.654 511.041 806.241C511.617 801.429 511.292 797.75 510.038 795.01C509.713 794.294 509.323 793.635 508.867 793.04C501.092 782.794 485.346 789.408 472.703 794.722C469.387 796.115 466.247 797.434 463.59 798.28L434.616 807.532L397.466 851.453C397.197 851.779 396.825 852.011 396.417 852.122C394.847 852.54 393.017 853.051 390.973 853.618C366.699 860.399 309.847 876.285 267.347 848.583C253.877 839.804 235.632 843.306 225.813 856.553C207.512 881.255 195.25 909.161 187.298 944.238V944.247Z" fill="#E41417"/>
<path d="M500.238 412.092C487.744 418.381 478.333 419.291 471.552 418.901C447.037 417.489 431.319 397.739 428.169 393.782C411.922 373.354 404.091 339.809 417.858 320.115C427.779 305.93 440.264 311.281 451.681 295.414C464.65 277.411 451.356 262.715 463.312 246.96C477.079 228.817 507.428 230.201 512.881 230.452C531.609 231.307 533.839 240.596 551.535 240.113C569.604 239.621 571.991 230.545 588.582 230.452C601.755 230.378 620.966 235.989 629.568 251.224C640.363 270.351 629.327 295.544 616.507 308.838C601.114 324.797 590.282 316.242 568.721 329.238C531.368 351.774 540.295 391.906 500.229 412.092H500.238Z" fill="#E41417"/>
<path d="M569.799 497.12L559.683 434.201C561.913 433.95 580.538 430.708 582.666 429.649C599.916 421.056 595.123 377.767 595.123 377.767L604.71 366.313L576.107 302.307C545.73 327.621 534.898 302.762 504.837 315.22C474.776 327.677 491.089 361.148 491.089 361.148C491.089 361.148 466.518 350.325 471.775 374.088C475.742 392.036 488.813 393.16 497.424 392.435L481.4 500.334C481.4 500.334 450.01 509.252 431.468 514.426C428.69 515.197 428.755 519.145 431.542 519.842C460.368 527.032 532.576 547.544 614.074 517.445C617.483 516.182 617.297 511.286 613.814 510.246L569.799 497.138V497.12Z" fill="white"/>
<path d="M523.611 535.347C484.483 535.347 452.703 527.302 434.923 522.806L431.049 521.83C428.866 521.282 427.389 519.415 427.352 517.167C427.324 514.928 428.755 513.014 430.91 512.41C447.213 507.859 473.466 500.408 479.541 498.68L494.999 394.618C481.269 394.943 472.778 388.208 469.75 374.515C468.106 367.084 469.062 361.844 472.592 358.946C476.736 355.555 483.145 356.466 487.465 357.664C485.375 351.663 482.662 340.46 486.573 330.12C489.434 322.559 495.315 316.901 504.038 313.278C517.554 307.677 527.587 309.358 536.449 310.835C548.136 312.786 558.233 314.477 574.778 300.682C575.28 300.263 575.93 300.115 576.571 300.254C577.203 300.403 577.732 300.839 577.992 301.425L606.595 365.43C606.92 366.155 606.799 367 606.289 367.604L597.259 378.389C597.872 384.892 600.696 422.942 583.575 431.461C581.346 432.566 567.514 435 562.042 435.892L571.62 495.475L614.389 508.212C616.851 508.945 618.504 511.091 618.579 513.665C618.662 516.229 617.167 518.449 614.77 519.331C582.293 531.324 551.118 535.309 523.592 535.309L523.611 535.347ZM497.414 390.345C497.981 390.345 498.529 390.577 498.919 390.995C499.356 391.46 499.551 392.091 499.458 392.714L483.433 500.613C483.313 501.421 482.737 502.08 481.956 502.303C481.956 502.303 450.557 511.221 432.015 516.396C431.569 516.516 431.477 516.851 431.477 517.111C431.477 517.371 431.579 517.696 432.034 517.808L435.926 518.792C465.839 526.363 535.901 544.088 613.349 515.485C614.408 515.095 614.463 514.12 614.454 513.832C614.445 513.535 614.324 512.541 613.219 512.206L569.204 499.098C568.443 498.876 567.876 498.225 567.755 497.445L557.639 434.526C557.546 433.969 557.695 433.393 558.038 432.947C558.382 432.492 558.893 432.204 559.46 432.139C562.135 431.842 579.832 428.674 581.764 427.782C594.844 421.27 594.37 389.63 593.079 377.98C593.014 377.423 593.19 376.856 593.552 376.42L602.313 365.96L575.336 305.586C558.531 318.731 547.476 316.883 535.79 314.932C527.076 313.483 518.065 311.968 505.645 317.115C498.018 320.273 492.909 325.15 490.466 331.597C485.514 344.668 492.89 360.07 492.965 360.219C493.345 360.999 493.197 361.928 492.593 362.56C491.989 363.182 491.069 363.377 490.271 363.024C487.354 361.742 478.956 359.085 475.231 362.16C472.462 364.436 472.927 369.648 473.809 373.624C476.578 386.155 484.046 391.46 497.266 390.354C497.321 390.354 497.386 390.354 497.442 390.354L497.414 390.345Z" fill="#E41417"/>
<path d="M552.854 436.737C527.299 436.737 515.343 416.923 515.222 416.709C514.646 415.724 514.971 414.461 515.956 413.876C516.941 413.3 518.204 413.625 518.789 414.609C519.309 415.483 531.758 435.92 559.413 432.139C560.537 432 561.587 432.78 561.744 433.913C561.902 435.047 561.103 436.087 559.97 436.245C557.49 436.579 555.121 436.737 552.854 436.737Z" fill="#E41417"/>
<path d="M452.758 1260.95C428.243 1260.95 408.289 1241 408.289 1216.48C408.289 1191.96 428.234 1172.01 452.758 1172.01C477.283 1172.01 497.228 1191.96 497.228 1216.48C497.228 1241 477.283 1260.95 452.758 1260.95ZM452.758 1176.15C430.519 1176.15 412.432 1194.24 412.432 1216.48C412.432 1238.72 430.519 1256.81 452.758 1256.81C474.998 1256.81 493.085 1238.72 493.085 1216.48C493.085 1194.24 474.998 1176.15 452.758 1176.15Z" fill="#E41417"/>
<path d="M572.335 1260.95C547.819 1260.95 527.865 1241 527.865 1216.48C527.865 1191.96 547.81 1172.01 572.335 1172.01C596.859 1172.01 616.804 1191.96 616.804 1216.48C616.804 1241 596.859 1260.95 572.335 1260.95ZM572.335 1176.15C550.095 1176.15 532.008 1194.24 532.008 1216.48C532.008 1238.72 550.095 1256.81 572.335 1256.81C594.574 1256.81 612.661 1238.72 612.661 1216.48C612.661 1194.24 594.574 1176.15 572.335 1176.15Z" fill="#E41417"/>
<path d="M694.094 1256.6C669.579 1256.6 649.625 1236.66 649.625 1212.13C649.625 1187.61 669.57 1167.66 694.094 1167.66C718.619 1167.66 738.564 1187.61 738.564 1212.13C738.564 1236.66 718.619 1256.6 694.094 1256.6ZM694.094 1171.81C671.855 1171.81 653.768 1189.89 653.768 1212.13C653.768 1234.37 671.855 1252.46 694.094 1252.46C716.334 1252.46 734.421 1234.37 734.421 1212.13C734.421 1189.89 716.334 1171.81 694.094 1171.81Z" fill="#E41417"/>
</svg>
