<svg width="1800" height="1720" viewBox="0 0 1800 1720" fill="none" xmlns="http://www.w3.org/2000/svg">
<path d="M1606.29 319.112C1605.17 319.112 1604.27 318.202 1604.27 317.091V301.392C1604.27 300.272 1605.18 299.372 1606.29 299.372C1607.41 299.372 1608.32 300.281 1608.32 301.392V317.091C1608.32 318.212 1607.41 319.112 1606.29 319.112Z" fill="#E41417"/>
<path d="M1606.29 355.69C1605.17 355.69 1604.27 354.78 1604.27 353.669V337.97C1604.27 336.849 1605.18 335.949 1606.29 335.949C1607.41 335.949 1608.32 336.859 1608.32 337.97V353.669C1608.32 354.789 1607.41 355.69 1606.29 355.69Z" fill="#E41417"/>
<path d="M1595.85 329.556H1580.15C1579.03 329.556 1578.13 328.647 1578.13 327.535C1578.13 326.424 1579.04 325.514 1580.15 325.514H1595.85C1596.97 325.514 1597.87 326.424 1597.87 327.535C1597.87 328.647 1596.96 329.556 1595.85 329.556Z" fill="#E41417"/>
<path d="M1632.43 329.556H1616.73C1615.61 329.556 1614.71 328.647 1614.71 327.535C1614.71 326.424 1615.62 325.514 1616.73 325.514H1632.43C1633.55 325.514 1634.45 326.424 1634.45 327.535C1634.45 328.647 1633.54 329.556 1632.43 329.556Z" fill="#E41417"/>
<path d="M1651.77 423.242C1648.92 423.242 1646.11 422.443 1643.61 420.881C1636.36 416.371 1634 406.818 1638.35 399.588C1640.44 396.107 1643.77 393.664 1647.72 392.717C1651.73 391.753 1655.9 392.433 1659.45 394.656C1666.7 399.166 1669.06 408.719 1664.72 415.948C1662.62 419.43 1659.3 421.873 1655.35 422.819C1654.16 423.104 1652.96 423.242 1651.76 423.242H1651.77ZM1651.29 396.337C1650.41 396.337 1649.53 396.438 1648.66 396.649C1645.78 397.347 1643.35 399.129 1641.82 401.674C1638.6 407.02 1640.37 414.093 1645.75 417.446C1648.38 419.081 1651.45 419.586 1654.4 418.879C1657.29 418.18 1659.71 416.398 1661.25 413.854C1664.46 408.508 1662.69 401.435 1657.31 398.082C1655.46 396.934 1653.39 396.337 1651.29 396.337Z" fill="#E41417"/>
<path d="M1306.69 1628.33H553.496C521.043 1628.33 498.051 1602.16 502.147 1569.87L687.609 107.554C691.705 75.2656 721.339 49.0861 753.792 49.0861L1469.17 40.7454C1551.28 40.7454 1562.43 75.2656 1558.33 107.554L1372.87 1569.87C1368.77 1602.16 1339.14 1628.33 1306.69 1628.33Z" fill="#E41417"/>
<path d="M1261.37 1628.33H508.182C475.728 1628.33 452.736 1602.03 456.833 1569.56L642.285 99.7915C646.382 67.338 676.015 41.0208 708.469 41.0208H1461.66C1494.11 41.0208 1517.1 67.3289 1513.01 99.7915L1327.55 1569.56C1323.45 1602.02 1293.81 1628.33 1261.36 1628.33H1261.37Z" fill="white"/>
<path d="M1261.37 1630.36H508.182C491.979 1630.36 477.511 1624.06 467.425 1612.63C457.229 1601.06 452.755 1585.69 454.822 1569.32L640.274 99.5344C644.49 66.1532 675.079 39 708.47 39H1461.66C1477.86 39 1492.33 45.3015 1502.42 56.7378C1512.61 68.3027 1517.09 83.6797 1515.02 100.049L1329.56 1569.82C1325.35 1603.2 1294.75 1630.36 1261.36 1630.36H1261.37ZM708.47 43.0509C677.054 43.0509 648.266 68.615 644.298 100.049L458.836 1569.82C456.917 1585.02 461.05 1599.27 470.456 1609.94C479.762 1620.5 493.155 1626.3 508.173 1626.3H1261.35C1292.78 1626.3 1321.57 1600.73 1325.53 1569.31L1511 99.5344C1512.92 84.3319 1508.78 70.0847 1499.38 59.4108C1490.07 48.8564 1476.68 43.0509 1461.66 43.0509H708.47Z" fill="#E41417"/>
<path d="M499.75 1571.59L676.834 168.207C677.78 160.712 684.623 154.64 692.109 154.64H1449.34C1456.84 154.64 1462.15 160.712 1461.2 168.207L1284.12 1571.59C1283.17 1579.09 1276.33 1585.16 1268.84 1585.16H511.609C504.113 1585.16 498.804 1579.09 499.75 1571.59Z" fill="white"/>
<path d="M1075.63 117.796C1069.2 117.796 1063.44 115.288 1059.41 110.723C1055.35 106.111 1053.56 100.003 1054.39 93.4992C1056.04 80.3819 1068.07 69.708 1081.19 69.708C1087.63 69.708 1093.39 72.2157 1097.41 76.7811C1101.47 81.3923 1103.27 87.5009 1102.44 94.0044C1100.79 107.122 1088.76 117.786 1075.63 117.786V117.796ZM1081.19 73.7681C1070.04 73.7681 1059.82 82.8529 1058.41 94.0136C1057.74 99.3414 1059.17 104.329 1062.46 108.05C1065.7 111.724 1070.38 113.754 1075.64 113.754C1086.8 113.754 1097.02 104.669 1098.42 93.5084C1099.09 88.1806 1097.66 83.1928 1094.37 79.4725C1091.13 75.7982 1086.46 73.7681 1081.19 73.7681Z" fill="#E41417"/>
<path d="M1397.75 672.03C1397.67 672.03 1397.58 672.03 1397.5 672.011C1396.38 671.873 1395.6 670.863 1395.74 669.752L1459.19 167.95C1459.57 164.891 1458.76 162.034 1456.88 159.913C1455.04 157.818 1452.35 156.661 1449.34 156.661H692.11C685.615 156.661 679.663 161.952 678.836 168.455L649.497 401.012C649.359 402.124 648.339 402.914 647.237 402.767C646.126 402.629 645.345 401.618 645.483 400.507L674.822 167.95C675.888 159.49 683.64 152.61 692.11 152.61H1449.34C1453.53 152.61 1457.29 154.254 1459.91 157.23C1462.57 160.243 1463.73 164.23 1463.2 168.455L1399.76 670.257C1399.63 671.276 1398.75 672.03 1397.75 672.03Z" fill="#E41417"/>
<path d="M563.27 1053.3C563.188 1053.3 563.105 1053.3 563.022 1053.29C561.911 1053.15 561.121 1052.14 561.259 1051.04L566.982 1003.84C567.119 1002.73 568.139 1001.95 569.232 1002.08C570.344 1002.21 571.133 1003.22 570.996 1004.33L565.273 1051.52C565.144 1052.55 564.272 1053.3 563.27 1053.3Z" fill="#E41417"/>
<path d="M527.666 1352.4C527.583 1352.4 527.492 1352.4 527.409 1352.38C526.297 1352.25 525.517 1351.24 525.654 1350.12L556.087 1108.93C556.225 1107.82 557.254 1107.07 558.347 1107.18C559.458 1107.32 560.239 1108.33 560.101 1109.44L529.669 1350.63C529.54 1351.65 528.667 1352.4 527.666 1352.4Z" fill="#E41417"/>
<path d="M714.762 1587.85L511.6 1587.18C507.411 1587.18 503.654 1585.54 501.027 1582.56C498.372 1579.55 497.206 1575.56 497.738 1571.34L515.908 1427.34C516.046 1426.23 517.065 1425.48 518.168 1425.59C519.279 1425.72 520.06 1426.73 519.922 1427.85L501.753 1571.84C501.367 1574.9 502.184 1577.76 504.058 1579.88C505.905 1581.97 508.587 1583.13 511.6 1583.13L714.762 1583.8C715.883 1583.8 716.783 1584.71 716.783 1585.83C716.783 1586.95 715.873 1587.85 714.762 1587.85Z" fill="#E41417"/>
<path d="M1241.25 1344.48H833.92C825.726 1344.48 817.872 1341 812.388 1334.92C806.895 1328.84 804.213 1320.68 805.04 1312.54C806.546 1297.66 818.965 1286.43 833.92 1286.43H1241.25C1249.45 1286.43 1257.29 1289.91 1262.79 1295.99C1268.28 1302.07 1270.96 1310.23 1270.13 1318.38C1268.63 1333.26 1256.21 1344.48 1241.25 1344.48ZM833.92 1290.48C821.051 1290.48 810.368 1300.14 809.063 1312.94C808.356 1319.95 810.652 1326.98 815.383 1332.2C820.114 1337.43 826.865 1340.43 833.92 1340.43H1241.25C1254.12 1340.43 1264.81 1330.78 1266.11 1317.97C1266.82 1310.96 1264.52 1303.94 1259.79 1298.7C1255.06 1293.48 1248.31 1290.47 1241.26 1290.47H833.929L833.92 1290.48Z" fill="#E41417"/>
<path d="M1230.53 1450.42H904.173C895.979 1450.42 888.134 1446.94 882.641 1440.86C877.148 1434.78 874.466 1426.62 875.293 1418.48C876.799 1403.6 889.218 1392.37 904.173 1392.37H1230.53C1238.72 1392.37 1246.56 1395.85 1252.06 1401.93C1257.55 1408.01 1260.22 1416.17 1259.41 1424.32C1257.9 1439.2 1245.48 1450.42 1230.53 1450.42ZM904.173 1396.41C891.304 1396.41 880.621 1406.07 879.316 1418.87C878.609 1425.89 880.905 1432.91 885.636 1438.14C890.367 1443.37 897.118 1446.37 904.164 1446.37H1230.52C1243.39 1446.37 1254.07 1436.72 1255.36 1423.91C1256.07 1416.9 1253.78 1409.88 1249.04 1404.64C1244.31 1399.42 1237.56 1396.41 1230.52 1396.41H904.164H904.173Z" fill="#E41417"/>
<path d="M941.153 1155.55C920.709 1165.49 894.275 1153.44 882.233 1128.68L732.963 822.098L806.669 786.242L956.212 1093.38C968.142 1117.92 961.422 1145.7 941.156 1155.56L941.153 1155.55Z" fill="white"/>
<path d="M937.257 1159.49C929.096 1162.07 920.037 1161.78 911.214 1158.56C898.231 1153.83 886.971 1143.28 880.331 1129.62L731.022 823.003C730.491 821.917 730.914 820.612 731.965 820.102L805.69 784.242C806.196 783.988 806.788 783.967 807.33 784.162C807.872 784.356 808.322 784.767 808.577 785.292L958.159 1092.46C970.586 1118 963.407 1147.2 942.152 1157.54C940.568 1158.31 938.94 1158.95 937.266 1159.48L937.257 1159.49ZM735.805 823.118L884.158 1127.75C890.298 1140.37 900.65 1150.1 912.56 1154.45C922.1 1157.92 931.927 1157.62 940.209 1153.59C959.362 1144.27 965.691 1117.67 954.317 1094.3L805.703 789.12L735.796 823.121L735.805 823.118Z" fill="#E41417"/>
<path d="M857.721 528.21L654.024 644.803L572.531 714.602L538.658 763.597L538.425 763.986C531.868 772.385 533.316 793.599 542.344 816.006C551.269 838.163 565.008 854.362 575.582 856.38L575.243 856.508L631.022 868.873L737.855 863.597L968.551 807.767L1242.22 886.66L1244.17 886.931C1175.28 866.258 1089.36 761.688 1032.67 620.898C976.042 480.276 965.835 346.395 1001.52 284.892L1001.47 284.856L859.538 525.115L857.724 528.188L857.721 528.21Z" fill="white"/>
<path d="M1292.89 881.965C1364.33 853.772 1365.39 690.063 1295.26 516.311C1225.14 342.56 1110.38 224.561 1038.95 252.754C967.512 280.947 966.448 444.656 1036.57 618.408C1106.7 792.16 1221.45 910.158 1292.89 881.965Z" fill="white"/>
<path d="M1289.62 885.672C1254.68 896.789 1209.68 876.206 1162.35 827.29C1113.8 777.129 1068.4 703.023 1034.49 618.635C983.136 490.806 968.487 363.93 997.178 295.404C1006.76 272.513 1020.68 257.364 1038.56 250.401C1066.55 239.523 1101.5 249.792 1139.66 280.196C1176.6 309.621 1213.77 355.504 1247.14 412.885C1247.75 413.934 1247.41 415.265 1246.4 415.859C1245.38 416.466 1244.06 416.092 1243.45 415.043C1176.83 300.522 1097.08 236.265 1043.51 253.308C1042.39 253.665 1041.29 254.057 1040.19 254.48C1023.41 261.02 1010.28 275.386 1001.15 297.18C972.889 364.703 987.539 490.272 1038.48 617.063C1107.8 789.611 1221.35 907.673 1291.64 880.308C1308.42 873.768 1321.55 859.403 1330.68 837.608C1358.94 770.085 1344.29 644.516 1293.35 517.725C1282.67 491.145 1270.7 465.28 1257.77 440.83C1257.2 439.757 1257.59 438.442 1258.63 437.889C1259.69 437.343 1260.99 437.757 1261.55 438.83C1274.57 463.413 1286.6 489.425 1297.34 516.153C1348.69 643.983 1363.34 770.858 1334.65 839.394C1325.07 862.285 1311.15 877.424 1293.27 884.397C1292.07 884.862 1290.86 885.289 1289.63 885.679L1289.62 885.672Z" fill="#E41417"/>
<path d="M1275.33 848.928C1244.36 858.782 1204.49 840.568 1162.58 797.261C1119.66 752.906 1079.5 687.38 1049.52 612.766C1004.11 499.73 991.167 387.516 1016.54 326.887C1025.03 306.59 1037.39 293.162 1053.26 286.974C1095.67 270.419 1156.97 310.59 1213.21 391.758C1213.91 392.75 1213.68 394.117 1212.7 394.794C1211.74 395.467 1210.39 395.218 1209.7 394.214C1154.67 314.811 1095.4 275.301 1054.88 291.056C1040.11 296.809 1028.55 309.464 1020.52 328.663C995.557 388.282 1008.51 499.187 1053.51 611.184C1113.75 761.129 1211.78 864.519 1273.95 844.75C1274.95 844.431 1275.94 844.084 1276.93 843.697C1333.09 821.798 1339.54 699.963 1291.93 560.295C1291.54 559.143 1292.13 557.911 1293.26 557.542C1294.34 557.228 1295.61 557.798 1296 558.946C1319.2 627.014 1330.42 693.658 1327.6 746.611C1324.72 800.637 1307.3 836.563 1278.55 847.779C1277.48 848.191 1276.4 848.577 1275.32 848.922L1275.33 848.928Z" fill="#E41417"/>
<path d="M1155.93 656.103C1172.37 649.638 1172.47 611.732 1156.14 571.437C1139.81 531.143 1113.23 503.719 1096.79 510.184C1080.34 516.649 1080.25 554.555 1096.58 594.85C1112.91 635.144 1139.48 662.568 1155.93 656.103Z" fill="white"/>
<path d="M1155.7 658.62C1137.87 664.256 1111.27 636.916 1094.57 595.526C1082.46 565.476 1078.96 535.57 1085.67 519.329C1088.03 513.612 1091.54 509.824 1096.08 508.054C1113.8 501.077 1141.14 528.698 1158.13 570.813C1170.24 600.872 1173.74 630.778 1167.03 647.01C1164.67 652.727 1161.16 656.514 1156.63 658.284C1156.32 658.402 1156.01 658.511 1155.69 658.61L1155.7 658.62ZM1098.38 511.91C1098.15 511.983 1097.92 512.056 1097.69 512.148C1094.25 513.486 1091.53 516.503 1089.63 521.124C1083.34 536.354 1086.83 564.953 1098.53 593.971C1114.06 632.475 1139.94 660.137 1154.98 654.209C1158.42 652.87 1161.14 649.854 1163.05 645.233C1169.34 630.003 1165.85 601.404 1154.15 572.386C1138.85 534.457 1113.53 507.119 1098.37 511.913L1098.38 511.91Z" fill="#E41417"/>
<path d="M1244.86 889.04C1244.57 889.135 1244.25 889.16 1243.92 889.119L1241.97 888.848C1241.87 888.836 1241.76 888.818 1241.67 888.785L968.559 810.051L738.408 865.75C738.274 865.782 738.146 865.801 738.012 865.802L631.179 871.079C630.986 871.087 630.796 871.074 630.606 871.03L574.83 858.674C574.506 858.598 574.201 858.454 573.952 858.26C562.506 855.102 549.166 838.734 540.341 816.819C531.028 793.704 529.552 771.996 536.631 762.739L536.795 762.455L570.743 713.342C570.848 713.193 570.969 713.06 571.106 712.943L652.6 643.144C652.696 643.061 652.805 642.985 652.927 642.915L856.135 526.593L999.6 283.736C1000.2 282.716 1001.52 282.392 1002.55 283.011C1003.05 283.313 1003.44 283.818 1003.6 284.378C1003.75 284.938 1003.7 285.563 1003.41 286.064C966.946 348.896 979.526 483.158 1034.69 620.141C1089.94 757.346 1174.36 863.738 1244.76 884.865C1245.86 885.189 1246.52 886.309 1246.32 887.435C1246.17 888.228 1245.59 888.831 1244.87 889.059L1244.86 889.04ZM737.51 861.427L968.013 805.637C968.378 805.553 968.751 805.561 969.116 805.665L1215.56 876.72C1150.6 839.603 1079.29 742.435 1030.67 621.711C982.408 501.869 966.618 383.824 987.471 312.89L859.589 529.379C859.406 529.7 859.142 529.962 858.818 530.138L655.296 646.634L574.166 716.128L540.297 765.164C540.25 765.242 540.2 765.311 540.141 765.382C534.078 773.152 535.849 794.126 544.346 815.233C552.689 835.937 565.971 852.344 575.938 854.24C576.278 854.3 576.583 854.444 576.854 854.642L631.153 866.679L737.489 861.424L737.51 861.427Z" fill="#E41417"/>
<path d="M860.708 525.847L1001.59 284.674L1001.64 284.71C966.568 345.851 977.204 479.289 1033.8 619.599C1090.46 760.078 1175.91 864.591 1244.18 885.459L1242.24 885.182L971.537 805.666L965.258 803.85C933.81 794.442 894.662 747.347 869.175 683.768C843.007 618.499 842.625 556.397 858.919 528.789L860.693 525.862L860.708 525.847Z" fill="white"/>
<path d="M1244.89 887.556C1244.59 887.649 1244.29 887.673 1243.96 887.631L1242.02 887.353C1241.92 887.342 1241.82 887.324 1241.72 887.29L970.993 807.771L964.724 805.952C931.507 796.013 892.315 747.222 867.182 684.533C838.624 613.304 841.918 553.252 857.068 527.607L858.849 524.667L999.734 283.496C1000.33 282.482 1001.63 282.165 1002.65 282.785C1003.15 283.088 1003.54 283.593 1003.69 284.151C1003.85 284.71 1003.8 285.332 1003.51 285.831C967.672 348.295 980.657 482.117 1035.8 618.812C1091.03 755.73 1175.01 862.056 1244.77 883.374C1245.86 883.701 1246.52 884.82 1246.32 885.941C1246.18 886.731 1245.61 887.328 1244.9 887.553L1244.89 887.556ZM987.839 312.51L862.544 526.996C862.544 526.996 862.532 527.021 862.523 527.024L860.749 529.951C845.672 555.479 844.4 616.253 871.152 682.974C895.804 744.454 933.841 792.186 965.81 801.745L972.067 803.558L1215.83 875.16C1151.39 837.93 1080.42 740.844 1031.82 620.374C983.577 500.784 967.48 383.107 987.839 312.51Z" fill="#E41417"/>
<path d="M625.561 872.096C625.218 872.205 624.838 872.232 624.46 872.143L572.06 860.5C571.738 860.425 571.435 860.281 571.187 860.088C559.821 856.944 546.572 840.65 537.808 818.833C528.559 795.822 527.094 774.212 534.124 764.996L534.287 764.714L568 715.821C568.673 714.845 570.024 714.624 571.002 715.326C571.981 716.028 572.233 717.39 571.554 718.379L537.767 767.421C537.721 767.498 537.671 767.566 537.613 767.637C531.592 775.372 533.35 796.252 541.798 817.261C550.075 837.874 563.274 854.206 573.172 856.092C573.51 856.152 573.813 856.296 574.082 856.492L625.31 867.871C626.479 868.126 627.233 869.297 627.006 870.476C626.846 871.269 626.284 871.866 625.57 872.093L625.561 872.096Z" fill="#E41417"/>
<path d="M628.403 870.645C611.375 867.43 589.503 840.027 574.98 803.99C559.586 765.811 558.386 727.998 570.753 716.028L536.176 765.714L535.947 766.1C529.498 774.439 531.011 795.569 540.023 817.915C548.932 840.011 562.577 856.194 573.038 858.242L572.703 858.369L628.4 870.635L628.403 870.645Z" fill="white"/>
<path d="M629.116 872.742C628.802 872.841 628.454 872.867 628.097 872.802C627.671 872.717 627.233 872.625 626.802 872.521L572.312 860.523C571.982 860.449 571.68 860.304 571.429 860.101C560.098 856.913 546.841 840.561 538.028 818.702C528.728 795.646 527.184 774.02 534.149 764.826L534.311 764.545L564.722 720.85C565.974 718.288 567.477 716.117 569.254 714.404C570.041 713.642 571.291 713.634 572.139 714.381C572.99 715.138 573.151 716.395 572.515 717.308L568.296 723.373C560.978 738.958 564.192 771.557 576.957 803.219C590.893 837.776 611.534 864.204 627.616 868.265L628.815 868.535C629.969 868.788 630.732 869.928 630.529 871.101C630.389 871.91 629.82 872.529 629.1 872.757L629.116 872.742ZM574.277 856.51L612.727 864.978C598.633 853.768 583.941 831.905 572.999 804.774C562.426 778.542 558.303 752.164 560.969 733.906L537.787 767.265C537.741 767.343 537.692 767.41 537.634 767.481C531.668 775.197 533.501 796.093 541.995 817.143C550.318 837.798 563.526 854.186 573.391 856.11C573.717 856.174 574.02 856.32 574.286 856.508L574.277 856.51Z" fill="#E41417"/>
<path d="M731.493 865.53L735.995 865.147C711.509 867.443 676.625 826.278 654.203 770.79C631.341 714.193 630.581 660.226 651.274 646.723L648.578 649.042L572.225 714.803C559.591 726.57 560.732 764.658 576.275 803.14C591.28 840.271 614.522 868.125 631.785 870.027L731.493 865.53Z" fill="white"/>
<path d="M736.701 867.244C736.562 867.288 736.417 867.313 736.269 867.328C736.161 867.341 736.04 867.348 735.929 867.352L731.757 867.714C731.757 867.714 731.698 867.722 731.668 867.721L631.944 872.218C631.833 872.222 631.731 872.223 631.614 872.207C613.288 870.189 589.711 842.102 574.287 803.925C558.54 764.958 557.023 725.947 570.744 713.166L645.636 648.66C646.993 647.173 648.475 645.908 650.078 644.857C651.029 644.242 652.297 644.492 652.986 645.429C653.674 646.365 653.552 647.662 652.694 648.404L648.359 652.131C632.71 669.61 635.638 719.113 656.193 770.006C678.381 824.934 712.385 864.788 735.45 863.004L735.768 862.977C736.95 862.877 738.012 863.769 738.155 864.971C738.278 866.023 737.647 866.956 736.713 867.251L736.701 867.244ZM631.792 867.841L720.091 863.866C697.323 852.941 670.937 817.887 652.226 771.572C634.442 727.565 629.863 684.277 638.799 660.38L573.645 716.497C561.415 727.885 563.422 765.63 578.269 802.374C592.812 838.387 615.302 865.872 631.805 867.848L631.792 867.841Z" fill="#E41417"/>
<path d="M1096.06 510.533C1079.59 516.931 1078.74 555.124 1095.73 595.209C1124.22 662.432 1151.69 658.044 1154.95 657.256C1155 657.238 1155.03 657.324 1154.98 657.36L1093.04 698.001C1078.08 671.791 1064.05 642.947 1051.61 612.115C1039.69 582.565 1030.11 553.365 1022.84 525.308L1096.06 510.511L1096.06 510.533Z" fill="#E41417"/>
<path d="M1093.73 700.114C1093.36 700.23 1092.95 700.243 1092.56 700.136C1091.98 699.985 1091.49 699.606 1091.18 699.075C1075.81 672.171 1061.82 643.173 1049.61 612.903C1037.89 583.868 1028.18 554.567 1020.73 525.809C1020.58 525.228 1020.67 524.625 1020.97 524.121C1021.27 523.617 1021.76 523.265 1022.33 523.166L1095.57 508.37C1096.66 508.151 1097.76 508.82 1098.1 509.916C1098.45 511.012 1097.91 512.157 1096.87 512.559C1093.3 513.948 1090.49 517.13 1088.51 522.028C1082.25 537.568 1085.94 566.645 1097.69 594.38C1125.51 660.026 1151.52 655.828 1154.4 655.128C1155.42 654.879 1156.55 655.455 1156.97 656.452C1157.4 657.447 1157.04 658.661 1156.15 659.224L1094.22 699.853C1094.06 699.955 1093.89 700.042 1093.71 700.098L1093.73 700.114ZM1025.46 527.015C1032.78 554.883 1042.24 583.238 1053.58 611.345C1065.41 640.668 1078.92 668.779 1093.73 694.93L1147.67 659.55C1136.27 657.747 1115.25 646.732 1093.76 596.03C1081.38 566.829 1077.75 537.092 1084.53 520.279C1085.43 518.058 1086.49 516.11 1087.7 514.449L1025.46 527.015Z" fill="#E41417"/>
<path d="M1519.11 1598.88L1532.54 1686.9L1565.03 1670.37L1555.75 1582.54L1519.11 1598.88Z" fill="white"/>
<path d="M1532.54 1688.92C1532.22 1688.92 1531.91 1688.84 1531.61 1688.7C1531.03 1688.4 1530.64 1687.84 1530.54 1687.2L1517.11 1599.18C1516.97 1598.28 1517.46 1597.4 1518.28 1597.03L1554.93 1580.71C1555.51 1580.44 1556.2 1580.48 1556.76 1580.8C1557.32 1581.12 1557.7 1581.7 1557.77 1582.34L1567.05 1670.17C1567.14 1671 1566.7 1671.8 1565.96 1672.19L1533.47 1688.71C1533.18 1688.86 1532.86 1688.93 1532.55 1688.93L1532.54 1688.92ZM1521.34 1600.09L1534.11 1683.82L1562.86 1669.19L1554.02 1585.53L1521.33 1600.1L1521.34 1600.09Z" fill="#E41417"/>
<path d="M1524.17 1653.6C1520.46 1662.08 1516.94 1678.13 1513.37 1699.04C1511.68 1708.95 1519.46 1717.98 1529.64 1717.98H1649.17C1657.4 1717.98 1661.28 1707.96 1655.15 1702.53C1631.37 1681.5 1594.94 1658.21 1563.48 1644.5L1551.49 1661.45C1551.49 1661.45 1525.21 1651.23 1524.17 1653.6Z" fill="white"/>
<path d="M1649.18 1720H1529.65C1524.14 1720 1518.95 1717.59 1515.41 1713.41C1511.95 1709.32 1510.48 1703.95 1511.38 1698.7C1515.37 1675.32 1518.84 1660.73 1522.32 1652.79C1523.07 1651.07 1524.1 1648.72 1550.75 1659L1561.84 1643.34C1562.39 1642.55 1563.42 1642.27 1564.3 1642.65C1595.18 1656.09 1632.24 1679.56 1656.5 1701.01C1659.96 1704.07 1661.1 1708.65 1659.47 1712.95C1657.85 1717.24 1653.81 1720 1649.18 1720ZM1525.67 1655.26C1522.44 1663.09 1519.16 1677.17 1515.37 1699.38C1514.67 1703.45 1515.82 1707.62 1518.5 1710.8C1521.27 1714.07 1525.33 1715.95 1529.64 1715.95H1649.17C1652.72 1715.95 1654.86 1713.65 1655.67 1711.5C1656.47 1709.4 1656.4 1706.33 1653.8 1704.04C1630.22 1683.19 1594.39 1660.42 1564.17 1647.02L1553.12 1662.62C1552.59 1663.37 1551.61 1663.67 1550.73 1663.33C1540.79 1659.47 1528.95 1655.5 1525.64 1655.26H1525.67Z" fill="#E41417"/>
<path d="M1646.95 1709.75H1521.04C1519.92 1709.75 1519.02 1708.84 1519.02 1707.73C1519.02 1706.62 1519.93 1705.71 1521.04 1705.71H1646.95C1648.07 1705.71 1648.97 1706.62 1648.97 1707.73C1648.97 1708.84 1648.07 1709.75 1646.95 1709.75Z" fill="#E41417"/>
<path d="M1578.29 1684.44C1577.94 1684.44 1577.58 1684.35 1577.26 1684.16C1576.3 1683.59 1575.97 1682.35 1576.54 1681.38L1588.82 1660.59C1589.39 1659.62 1590.63 1659.31 1591.59 1659.87C1592.55 1660.44 1592.88 1661.68 1592.31 1662.64L1580.03 1683.44C1579.66 1684.08 1578.98 1684.43 1578.29 1684.43V1684.44Z" fill="#E41417"/>
<path d="M1596.27 1687.48C1595.94 1687.48 1595.6 1687.4 1595.29 1687.23C1594.32 1686.68 1593.97 1685.44 1594.51 1684.47L1602.47 1670.23C1603.01 1669.26 1604.25 1668.9 1605.22 1669.45C1606.2 1669.99 1606.54 1671.23 1606 1672.21L1598.05 1686.44C1597.68 1687.11 1596.99 1687.48 1596.27 1687.48Z" fill="#E41417"/>
<path d="M1599.6 1031.98C1599.6 1031.98 1690.14 1169.13 1721.06 1256.25C1726.94 1272.81 1722.41 1291.26 1709.51 1303.21C1673.56 1336.52 1596.65 1406.95 1547.29 1446.25L1532.53 1408.81C1532.53 1408.81 1550.36 1322.12 1617.21 1283.06L1534.26 1159.37L1515.99 1063.11L1599.6 1031.98Z" fill="#E41417"/>
<path d="M1442.58 1069.1C1442.58 1069.1 1469.39 1274.11 1473.5 1326.47C1477.6 1378.83 1473.82 1437.09 1471.79 1479.84C1469.76 1522.59 1518.27 1621.99 1518.27 1621.99L1565.02 1613.72L1573.7 1132.16L1586.27 1043.02L1442.57 1069.1H1442.58Z" fill="#E41417"/>
<path d="M1568.21 1439.4C1567.09 1439.4 1566.19 1438.49 1566.19 1437.37L1566.44 1363.2C1566.44 1362.08 1567.35 1361.18 1568.46 1361.18C1569.58 1361.18 1570.48 1362.09 1570.48 1363.21L1570.23 1437.38C1570.23 1438.5 1569.32 1439.4 1568.21 1439.4Z" fill="white"/>
<path d="M1573.03 1210.19C1571.91 1210.19 1571 1209.28 1571 1208.17V1169.9C1571 1169.22 1571.34 1168.59 1571.91 1168.21L1594.46 1153.22C1595.39 1152.6 1596.64 1152.85 1597.27 1153.79C1597.88 1154.72 1597.63 1155.97 1596.71 1156.6L1575.06 1170.99V1208.18C1575.06 1209.3 1574.16 1210.2 1573.04 1210.2L1573.03 1210.19Z" fill="white"/>
<path d="M1461.11 1179.19C1460.53 1179.19 1459.96 1178.94 1459.55 1178.47C1458.84 1177.62 1458.94 1176.34 1459.79 1175.61C1460.04 1175.4 1484.43 1154.24 1492.62 1102.35C1492.8 1101.25 1493.84 1100.48 1494.94 1100.67C1496.04 1100.84 1496.79 1101.88 1496.62 1102.98C1488.17 1156.5 1463.45 1177.83 1462.4 1178.71C1462.02 1179.03 1461.56 1179.19 1461.1 1179.19H1461.11Z" fill="white"/>
<path d="M1684.43 897.854C1684.43 897.854 1692.96 890.624 1699.73 886.95C1706.51 883.276 1727.48 851.961 1727.48 851.961C1727.48 851.961 1726.86 901.344 1705.2 908.895L1684.42 897.863L1684.43 897.854Z" fill="white"/>
<path d="M1705.21 910.916C1704.88 910.916 1704.56 910.833 1704.26 910.677L1683.48 899.645C1682.89 899.332 1682.49 898.744 1682.42 898.074C1682.34 897.403 1682.61 896.742 1683.13 896.31C1683.48 896.007 1691.9 888.906 1698.78 885.177C1703.43 882.651 1717.5 863.26 1725.82 850.841C1726.32 850.097 1727.24 849.766 1728.11 850.032C1728.96 850.299 1729.54 851.098 1729.53 851.989C1729.5 854.065 1728.62 902.878 1705.89 910.805C1705.67 910.879 1705.45 910.916 1705.22 910.916H1705.21ZM1688.07 897.495L1705.35 906.672C1720 900.618 1723.99 872.501 1725.07 859.089C1718.46 868.606 1706.03 885.838 1700.7 888.732C1696.29 891.12 1691.03 895.134 1688.07 897.495Z" fill="#E41417"/>
<path d="M1663.31 903.999H1687.9L1734.48 836.648H1710.5L1663.31 903.999Z" fill="#E41417"/>
<path d="M1687.9 906.029H1663.31C1662.56 906.029 1661.86 905.607 1661.51 904.936C1661.16 904.265 1661.22 903.457 1661.65 902.842L1708.85 835.491C1709.22 834.949 1709.85 834.628 1710.5 834.628H1734.48C1735.24 834.628 1735.93 835.041 1736.27 835.712C1736.62 836.382 1736.58 837.182 1736.15 837.806L1689.56 905.156C1689.19 905.698 1688.56 906.029 1687.9 906.029ZM1667.21 901.978H1686.85L1730.63 838.679H1711.57L1667.22 901.978H1667.21Z" fill="#E41417"/>
<path d="M1668.69 903.999H1693.28L1739.86 836.649H1715.88L1668.69 903.999Z" fill="white"/>
<path d="M1693.28 906.029H1668.69C1667.93 906.029 1667.23 905.607 1666.89 904.936C1666.54 904.265 1666.59 903.457 1667.02 902.842L1714.22 835.491C1714.6 834.949 1715.22 834.628 1715.87 834.628H1739.86C1740.61 834.628 1741.3 835.041 1741.65 835.712C1742 836.382 1741.95 837.182 1741.52 837.806L1694.93 905.156C1694.55 905.698 1693.93 906.029 1693.27 906.029H1693.28ZM1672.58 901.978H1692.22L1736.01 838.679H1716.94L1672.58 901.978Z" fill="#E41417"/>
<path d="M1684.43 897.854C1684.43 897.854 1653.81 946.768 1625.25 941.633C1605.06 938.005 1594.6 916.207 1577.28 891.755C1559.95 867.302 1538.97 854.387 1538.97 854.387C1538.97 854.387 1501.47 841.701 1455.61 843.676C1410.54 845.614 1370.91 873.87 1355.15 916.143C1342.89 949 1333.97 997.005 1341.81 1063.19C1356.75 1189.4 1462.29 1173.01 1462.29 1173.01L1479.41 1146.07C1479.41 1146.07 1432.21 1142.93 1421.16 1077.91C1417.11 1054.15 1426.22 1018.79 1426.22 1018.79L1433.75 1073.09C1434.81 1080.71 1440.95 1086.59 1448.6 1087.29C1457.23 1088.09 1470.31 1088 1488.51 1084.62C1525.89 1077.67 1562.79 1054.1 1586.59 1051.4C1602.58 1049.59 1606.42 1039.92 1605.56 1027.11C1614.88 1029.18 1624.03 1029.64 1632.44 1027.55C1692.03 1012.69 1702.89 910.356 1702.89 910.356L1684.42 897.845L1684.43 897.854Z" fill="white"/>
<path d="M1450.24 1175.78C1435.11 1175.78 1408.63 1172.76 1384.94 1154.78C1359.91 1135.78 1344.72 1105.04 1339.8 1063.44C1333.13 1007.06 1337.65 957.268 1353.24 915.445C1369.22 872.611 1409.36 843.649 1455.52 841.664C1501.23 839.699 1539.24 852.348 1539.62 852.476C1539.76 852.522 1539.9 852.586 1540.03 852.669C1540.9 853.202 1561.57 866.08 1578.93 890.588C1582.22 895.227 1585.23 899.728 1588.14 904.082C1600.4 922.389 1610.07 936.848 1625.6 939.64C1626.91 939.879 1628.23 939.989 1629.55 939.989C1655.36 939.989 1682.43 897.239 1682.71 896.779C1683.01 896.311 1683.47 895.989 1684.01 895.87C1684.55 895.76 1685.11 895.87 1685.56 896.173L1704.03 908.684C1704.65 909.107 1704.99 909.832 1704.91 910.576C1704.46 914.811 1693.2 1014.48 1632.93 1029.51C1625.49 1031.37 1617.01 1031.41 1607.69 1029.62C1607.87 1044.01 1601.02 1051.8 1586.82 1053.41C1575.75 1054.66 1561.84 1060.53 1545.72 1067.3C1528.34 1074.63 1508.63 1082.93 1488.87 1086.6C1473.51 1089.46 1459.9 1090.36 1448.42 1089.3C1439.79 1088.51 1432.93 1081.95 1431.75 1073.37L1425.79 1030.39C1423.45 1042.63 1420.61 1062.59 1423.16 1077.57C1433.82 1140.29 1479.1 1144.01 1479.55 1144.05C1480.27 1144.1 1480.9 1144.52 1481.22 1145.15C1481.54 1145.8 1481.51 1146.55 1481.12 1147.16L1464 1174.09C1463.69 1174.59 1463.18 1174.92 1462.6 1175.01C1462.04 1175.09 1457.42 1175.78 1450.24 1175.78ZM1465.31 845.504C1462.15 845.504 1458.95 845.568 1455.7 845.706C1411.18 847.626 1372.45 875.551 1357.05 916.859C1341.68 958.076 1337.22 1007.23 1343.82 1062.96C1348.62 1103.43 1363.28 1133.24 1387.4 1151.56C1418.2 1174.93 1454.94 1171.84 1461.09 1171.13L1476.03 1147.62C1464.93 1145.44 1428.64 1134.1 1419.15 1078.27C1415.08 1054.35 1423.87 1019.77 1424.25 1018.31C1424.49 1017.37 1425.34 1016.77 1426.33 1016.79C1427.29 1016.85 1428.08 1017.57 1428.22 1018.54L1435.75 1072.83C1436.68 1079.55 1442.04 1084.67 1448.79 1085.3C1456.43 1086.01 1469.45 1086.13 1488.13 1082.65C1507.47 1079.06 1526.96 1070.85 1544.15 1063.6C1560.55 1056.69 1574.71 1050.73 1586.36 1049.41C1599.34 1047.94 1604.49 1041.32 1603.54 1027.26C1603.49 1026.63 1603.76 1026 1604.24 1025.59C1604.72 1025.18 1605.38 1025.01 1605.99 1025.15C1615.71 1027.32 1624.45 1027.47 1631.94 1025.6C1686.04 1012.11 1699.26 922.793 1700.72 911.357L1684.99 900.702C1679.04 909.676 1651.62 948.422 1624.88 943.636C1607.65 940.54 1597.55 925.448 1584.77 906.342C1581.87 902.006 1578.88 897.523 1575.62 892.93C1559.6 870.324 1540.23 857.602 1538.1 856.242C1535.18 855.296 1504.06 845.504 1465.3 845.504H1465.31Z" fill="#E41417"/>
<path d="M1430.05 1014.17C1429.85 1014.17 1429.63 1014.15 1429.43 1014.08C1428.37 1013.74 1427.78 1012.6 1428.11 1011.54L1446.85 952.371C1447.19 951.306 1448.33 950.709 1449.39 951.049C1450.46 951.388 1451.05 952.527 1450.72 953.593L1431.98 1012.76C1431.7 1013.62 1430.91 1014.17 1430.05 1014.17Z" fill="#E41417"/>
<path d="M1604.83 1014.71C1603.8 1014.71 1602.92 1013.93 1602.81 1012.88C1599.76 981.371 1566.93 908.629 1566.6 907.894C1566.14 906.874 1566.6 905.671 1567.61 905.212C1568.63 904.752 1569.83 905.202 1570.3 906.222C1571.66 909.235 1603.72 980.324 1606.85 1012.48C1606.96 1013.59 1606.14 1014.59 1605.03 1014.7C1604.96 1014.7 1604.9 1014.71 1604.83 1014.71Z" fill="#E41417"/>
<path d="M1486.09 783.013L1444.09 845.834C1444.09 845.834 1479.24 860.945 1500.74 864.206C1522.25 867.458 1495.99 844.704 1495.99 844.704L1512.99 806.041L1486.09 783.013Z" fill="white"/>
<path d="M1504.45 866.557C1503.09 866.557 1501.68 866.392 1500.44 866.208C1478.93 862.957 1444.74 848.324 1443.3 847.699C1442.74 847.46 1442.32 846.992 1442.16 846.413C1441.98 845.834 1442.08 845.21 1442.41 844.714L1484.41 781.892C1484.73 781.414 1485.25 781.093 1485.82 781.01C1486.39 780.918 1486.96 781.102 1487.41 781.479L1514.3 804.507C1514.98 805.086 1515.2 806.041 1514.83 806.859L1498.44 844.163C1503.74 848.902 1513.24 858.373 1510.82 863.609C1509.75 865.924 1507.16 866.557 1504.45 866.557ZM1447.14 844.925C1455.21 848.269 1483.15 859.494 1501.05 862.203C1506.38 863.003 1507.15 861.919 1507.15 861.909C1507.98 860.091 1502.04 852.623 1494.66 846.229C1493.99 845.651 1493.78 844.695 1494.14 843.887L1510.54 806.602L1486.51 786.035L1447.14 844.925Z" fill="#E41417"/>
<path d="M1567.33 753.068C1555.65 742.734 1541.07 752.544 1527.45 739.904C1521.21 734.108 1520.8 728.845 1513.18 725.519C1508.13 723.315 1499.06 721.597 1492.83 726.006C1484.88 731.619 1490.23 741.016 1483.22 761.399C1478.28 775.711 1471.95 781.782 1475.2 786.991C1478.48 792.254 1486.66 788.8 1490.67 794.275C1495.86 801.366 1485.53 811.783 1488.28 821.621C1490 827.822 1498.41 836.686 1519.43 841.297C1522.83 842.041 1526.29 840.259 1527.64 837.044C1529.37 832.92 1531.52 827.711 1533.16 822.549C1540.98 797.968 1537.56 788.332 1543.89 785.356C1553.59 780.79 1564.52 796.388 1571.76 792.061C1579.28 787.569 1579.33 763.686 1567.33 753.077V753.068Z" fill="#E41417"/>
<path d="M1516.97 763.402L1521.27 765.12C1521.27 765.12 1508.92 793.393 1506.93 801.991C1504.94 810.598 1531.12 818.774 1531.12 818.774L1535.38 815.853L1538.58 816.78C1539.57 817.065 1540.64 816.891 1541.48 816.303C1542.33 815.715 1542.86 814.769 1542.93 813.74C1543.48 805.84 1545.26 788.553 1550.79 776.124C1550.79 776.124 1538.86 760.518 1516.98 763.411L1516.97 763.402Z" fill="white"/>
<path d="M1518.97 763.65C1519.74 763.622 1520.43 763.402 1520.88 763.209C1521.33 763.025 1521.61 763.016 1522.04 763.181C1523.1 763.595 1523.63 764.798 1523.21 765.854L1523.19 765.91L1523.17 765.946C1520.86 771.338 1518.63 776.785 1516.41 782.214C1514.21 787.643 1512.03 793.118 1510.19 798.602C1509.75 799.943 1509.3 801.394 1509.04 802.561C1508.89 803.222 1509.16 804.067 1509.84 805.013C1511.22 806.896 1513.59 808.55 1515.98 809.965C1520.85 812.785 1526.33 814.998 1531.74 816.817L1529.97 817.084C1531.41 816.128 1532.8 815.118 1534.27 814.208L1534.44 814.107C1534.91 813.813 1535.47 813.777 1535.95 813.942C1536.9 814.273 1537.82 814.704 1538.74 815.081L1539.26 815.311C1539.39 815.357 1539.53 815.403 1539.66 815.412C1539.95 815.43 1540.24 815.384 1540.5 815.237C1541.02 814.971 1541.38 814.429 1541.48 813.859L1541.69 811.012C1542.02 806.988 1542.45 802.974 1542.98 798.969C1544.11 790.968 1545.71 782.949 1548.95 775.279L1549.19 777.327C1547.43 775.224 1545.07 773.148 1542.66 771.485C1540.21 769.786 1537.56 768.399 1534.79 767.361C1532.01 766.314 1529.1 765.652 1526.16 765.331C1524.68 765.193 1523.2 765.074 1521.71 765.11C1520.97 765.092 1520.23 765.165 1519.48 765.193L1519.21 765.211C1519.15 765.211 1519.2 765.211 1519.21 765.193C1519.23 765.165 1519.32 765.074 1519.37 764.908C1519.52 764.568 1519.37 763.971 1519 763.65H1518.97ZM1514.95 763.154C1515.37 762.759 1516 762.07 1516.92 761.647C1517.37 761.436 1517.84 761.307 1518.26 761.234C1518.46 761.197 1518.7 761.17 1518.84 761.16L1519.15 761.142C1519.98 761.096 1520.8 761.013 1521.62 761.013C1523.28 760.949 1524.93 761.05 1526.58 761.188C1529.88 761.555 1533.13 762.318 1536.23 763.503C1539.33 764.679 1542.27 766.24 1544.98 768.142C1547.7 770.08 1550.14 772.147 1552.39 774.893C1552.86 775.481 1552.94 776.262 1552.64 776.905L1552.62 776.942C1551.03 780.441 1549.8 784.162 1548.74 787.946C1547.68 791.731 1546.82 795.589 1546.14 799.493C1545.45 803.388 1544.92 807.328 1544.58 811.278L1544.45 812.757C1544.39 813.308 1544.41 813.602 1544.28 814.41C1544.03 815.807 1543.1 817.047 1541.86 817.736C1541.24 818.085 1540.55 818.314 1539.84 818.397C1539.48 818.434 1539.11 818.461 1538.75 818.425C1538.37 818.397 1538.01 818.314 1537.81 818.287C1536.82 818.112 1535.81 817.984 1534.83 817.763L1536.5 817.497C1535.13 818.535 1533.68 819.472 1532.27 820.473C1531.74 820.85 1531.07 820.923 1530.51 820.74C1524.75 818.856 1519.2 816.689 1513.83 813.657C1511.19 812.077 1508.51 810.424 1506.32 807.576C1505.79 806.841 1505.3 806.015 1504.97 805.023C1504.65 804.04 1504.53 802.873 1504.75 801.771C1505.13 800.062 1505.57 798.712 1506.04 797.242C1507.97 791.556 1510.16 786.072 1512.39 780.588C1514.62 775.104 1516.97 769.703 1519.35 764.284L1520.49 767.049C1519.47 766.644 1518.32 766.066 1517.34 765.303C1516.35 764.55 1515.62 763.751 1514.94 763.154H1514.95Z" fill="#E41417"/>
<path d="M1507.28 783.335C1507.28 783.335 1510.21 766.654 1502.34 766.92C1494.47 767.196 1491.7 785.641 1507.28 783.335Z" fill="white"/>
<path d="M231.442 1014.81C230.348 1017.74 228.796 1020.45 226.647 1022.84C221.144 1028.97 212.822 1031.6 204.922 1033.96C198.4 1035.91 191.777 1037.87 184.971 1037.93C171.504 1038.04 158.929 1030.69 145.472 1030.05C136.359 1029.6 127.431 1032.26 118.438 1033.78C101.472 1036.67 87.886 1029.82 75.2647 1018.71C52.9156 999.025 54.1006 943.708 75.7332 908.655C98.5966 871.618 134.182 873.566 139.106 841.792C141.944 823.512 129.902 815.897 135.983 796.414C139.17 786.218 148.365 777.455 166.755 759.919C191.97 735.88 202.525 732.224 206.181 731.076C212.381 729.138 224.947 725.399 238.257 730.864C242.253 732.509 252.091 736.541 255.664 746.361C259.412 756.667 253.938 766.928 250.961 772.504C244.302 784.996 235.814 788.358 231.037 794.219C209.634 820.49 249.969 857.674 240.379 917.024C238.322 929.755 233.224 941.311 229.917 953.666C225.618 969.723 232.296 973.875 233.38 988.305C234.041 997.133 234.445 1006.75 231.432 1014.8L231.442 1014.81Z" fill="#E41417"/>
<path d="M351.647 1582.69L341.644 1604.53C342.094 1606.39 343.113 1608.22 345.116 1610.51C355.735 1622.62 384.504 1612.96 391.375 1610.65C416.655 1602.16 419.851 1591.68 442.605 1583.66C458.23 1578.15 472.293 1577.6 481.387 1577.92C480.312 1575.69 478.438 1572.2 474.985 1569.1C470.07 1564.68 461.748 1560.25 448.098 1560.21C420.788 1560.14 351.665 1582.69 351.665 1582.69H351.647Z" fill="white"/>
<path d="M362.366 1618.48C352.225 1618.48 346.659 1615.34 343.6 1611.85C341.441 1609.38 340.238 1607.28 339.687 1605.02C339.576 1604.58 339.622 1604.11 339.815 1603.7L349.819 1581.85C350.057 1581.34 350.498 1580.95 351.031 1580.77C353.86 1579.85 420.549 1558.19 447.96 1558.19H448.097C462.841 1558.24 471.595 1563.33 476.335 1567.6C480.009 1570.91 482.021 1574.58 483.215 1577.06C483.518 1577.7 483.472 1578.46 483.086 1579.04C482.7 1579.64 482.066 1580.04 481.322 1579.96C468.003 1579.5 455.207 1581.39 443.293 1585.58C432.61 1589.35 426.437 1593.61 419.897 1598.12C412.787 1603.02 405.439 1608.09 392.046 1612.59C379.305 1616.87 369.669 1618.49 362.394 1618.49L362.366 1618.48ZM343.802 1604.7C344.27 1606.09 345.171 1607.49 346.64 1609.18C350.278 1613.33 360.842 1618.78 390.723 1608.75C403.583 1604.43 410.693 1599.53 417.573 1594.79C424.049 1590.32 430.736 1585.71 441.925 1581.76C453.085 1577.83 464.972 1575.84 477.327 1575.84H477.942C476.913 1574.17 475.517 1572.32 473.616 1570.6C467.571 1565.15 458.735 1562.27 448.079 1562.23H447.95C422.8 1562.23 361.062 1581.79 353.126 1584.33L343.802 1604.69V1604.7Z" fill="#E41417"/>
<path d="M438.095 1684.63C438.095 1684.63 484.492 1702.46 484.446 1672.05C484.446 1671.06 446.316 1548.02 446.316 1548.02L391.697 1577.56L438.095 1684.63Z" fill="white"/>
<path d="M463.999 1691.85C451.442 1691.85 438.168 1686.82 437.378 1686.52C436.873 1686.32 436.46 1685.93 436.248 1685.43L389.851 1578.37C389.428 1577.41 389.823 1576.29 390.742 1575.78L445.361 1546.24C445.893 1545.96 446.527 1545.92 447.088 1546.15C447.648 1546.38 448.08 1546.85 448.254 1547.43C486.467 1670.75 486.476 1671.66 486.476 1672.05C486.485 1679.3 484.033 1684.66 479.183 1688C475.04 1690.84 469.593 1691.85 463.999 1691.85ZM439.61 1683.03C444.065 1684.61 466.341 1691.93 476.886 1684.66C480.579 1682.12 482.389 1678.07 482.425 1672.28C481.213 1667.67 458.009 1592.59 445.122 1550.98L394.297 1578.47L439.61 1683.03Z" fill="#E41417"/>
<path d="M432.381 1716.45H547.35C550.455 1716.45 552.853 1713.73 552.449 1710.66L551.594 1704.12C549.436 1698.32 545.229 1693.5 539.772 1690.58L477.419 1657.12C477.419 1657.12 457.302 1661.39 459.038 1682.48C459.038 1682.48 445.489 1669.48 433.006 1678.58C433.006 1678.58 428.137 1694.78 428.541 1712.72C428.587 1714.8 430.305 1716.46 432.39 1716.46L432.381 1716.45Z" fill="white"/>
<path d="M547.351 1718.48H432.381C429.212 1718.48 426.576 1715.9 426.512 1712.75C426.108 1694.71 430.857 1678.66 431.059 1677.99C431.187 1677.57 431.444 1677.2 431.803 1676.94C440.768 1670.4 450.79 1674 456.944 1678.2C458.028 1659.39 476.786 1655.18 476.988 1655.14C477.456 1655.04 477.943 1655.11 478.366 1655.34L540.719 1688.8C546.616 1691.96 551.154 1697.15 553.487 1703.42C553.542 1703.57 553.579 1703.71 553.597 1703.86L554.451 1710.4C554.718 1712.44 554.093 1714.5 552.734 1716.04C551.374 1717.59 549.408 1718.48 547.351 1718.48V1718.48ZM434.751 1679.81C433.87 1683.01 430.214 1697.28 430.553 1712.65C430.572 1713.62 431.389 1714.42 432.381 1714.42H547.351C548.26 1714.42 549.096 1714.04 549.693 1713.36C550.29 1712.68 550.557 1711.81 550.437 1710.92L549.611 1704.6C547.599 1699.36 543.768 1695.01 538.808 1692.35L477.144 1659.26C473.773 1660.2 459.636 1665.18 461.05 1682.29C461.124 1683.13 460.664 1683.92 459.902 1684.29C459.14 1684.65 458.239 1684.51 457.633 1683.93C457.137 1683.46 445.545 1672.6 434.751 1679.81Z" fill="#E41417"/>
<path d="M515.2 1694.9C515.099 1694.9 514.989 1694.9 514.879 1694.88C484.575 1690.11 466.626 1674.23 465.873 1673.56C465.037 1672.81 464.972 1671.54 465.717 1670.7C466.461 1669.87 467.747 1669.8 468.573 1670.54C468.748 1670.7 486.449 1686.31 515.503 1690.87C516.606 1691.05 517.359 1692.08 517.194 1693.19C517.038 1694.19 516.174 1694.9 515.2 1694.9V1694.9Z" fill="#E41417"/>
<path d="M548.233 1711.03H432.583C431.463 1711.03 430.562 1710.13 430.562 1709.01C430.562 1707.9 431.472 1706.99 432.583 1706.99H548.233C549.353 1706.99 550.253 1707.9 550.253 1709.01C550.253 1710.13 549.344 1711.03 548.233 1711.03Z" fill="#E41417"/>
<path d="M192.88 1615.13C182.72 1612.88 163.246 1608.58 158.938 1595.27C155.677 1585.19 162.659 1574.7 164.248 1572.31C183.887 1542.81 248.959 1534.46 285.794 1563.35C305.231 1578.59 318.385 1605.43 311.514 1614C307.335 1619.21 298.526 1614.23 276.985 1612.33C236.779 1608.8 226.5 1622.57 192.88 1615.13Z" fill="white"/>
<path d="M212.16 1619.39C206.345 1619.39 199.943 1618.77 192.447 1617.11C181.7 1614.73 161.684 1610.29 157.027 1595.89C154.694 1588.68 156.614 1580.15 162.575 1571.19C171.366 1557.99 189.039 1548.39 211.067 1544.84C239.35 1540.3 267.752 1546.63 287.052 1561.76C301.584 1573.16 313.7 1591.77 315.234 1605.08C315.739 1609.44 315.023 1612.87 313.103 1615.27C309.695 1619.52 304.358 1618.56 295.503 1616.98C290.634 1616.11 284.572 1615.03 276.819 1614.34C258.126 1612.69 245.762 1614.9 234.858 1616.82C227.537 1618.12 220.446 1619.38 212.169 1619.38L212.16 1619.39ZM193.32 1613.16C210.699 1617.01 221.566 1615.08 234.142 1612.85C245.293 1610.86 257.942 1608.62 277.159 1610.31C285.095 1611.01 291.25 1612.11 296.201 1612.99C304.615 1614.5 308.096 1615.01 309.934 1612.74C311.137 1611.24 311.578 1608.75 311.21 1605.54C309.98 1594.91 299.673 1576.81 284.544 1564.95C266.117 1550.5 238.881 1544.5 211.701 1548.85C190.785 1552.21 174.103 1561.17 165.937 1573.44C160.683 1581.33 158.928 1588.66 160.867 1594.65C164.816 1606.85 183.353 1610.95 193.32 1613.17L192.888 1615.14L193.329 1613.17L193.32 1613.16Z" fill="#E41417"/>
<path d="M198.52 1560.21C196.904 1561.24 217.912 1689.29 217.912 1689.29L259.872 1694.41L258.026 1571.03L198.52 1560.21Z" fill="white"/>
<path d="M259.871 1696.43C259.788 1696.43 259.706 1696.43 259.623 1696.41L217.662 1691.29C216.771 1691.18 216.055 1690.5 215.908 1689.61C215.853 1689.29 210.598 1657.22 205.601 1625.44C195.295 1559.85 195.837 1559.51 197.426 1558.5C197.858 1558.22 198.372 1558.12 198.868 1558.21L258.374 1569.03C259.329 1569.21 260.018 1570.02 260.036 1571L261.883 1694.37C261.883 1694.96 261.644 1695.52 261.212 1695.91C260.836 1696.24 260.358 1696.42 259.862 1696.42L259.871 1696.43ZM219.665 1687.46L257.813 1692.11L256.022 1572.72L200.549 1562.63C201.67 1575.47 212.197 1641.87 219.665 1687.45V1687.46Z" fill="#E41417"/>
<path d="M327.864 1716.45H212.381C212.381 1716.45 208.128 1687.8 214.778 1675.04L218.379 1679.08C220.244 1681.16 223.449 1681.34 225.525 1679.46C230.118 1675.34 238.183 1668.61 245.146 1665.44C258.668 1659.27 303.926 1689.85 321.26 1700.22C325.366 1702.68 327.874 1707.1 327.874 1711.89V1716.45L327.864 1716.45Z" fill="white"/>
<path d="M327.865 1718.48H212.381C211.38 1718.48 210.525 1717.74 210.378 1716.75C210.204 1715.55 206.107 1687.29 212.987 1674.11C213.3 1673.52 213.869 1673.12 214.53 1673.03C215.183 1672.95 215.853 1673.2 216.294 1673.69L219.895 1677.73C220.428 1678.32 221.172 1678.68 221.971 1678.73C222.807 1678.76 223.569 1678.5 224.175 1677.95C229.522 1673.14 237.357 1666.75 244.302 1663.59C255.903 1658.31 284.774 1675.21 313.351 1692.98C316.787 1695.11 319.827 1697 322.289 1698.48C326.974 1701.28 329.886 1706.42 329.886 1711.88V1716.44C329.886 1717.56 328.976 1718.46 327.865 1718.46V1718.48ZM214.154 1714.42H325.844V1711.89C325.844 1707.84 323.685 1704.04 320.213 1701.96C317.724 1700.47 314.665 1698.57 311.211 1696.42C292.114 1684.54 256.574 1662.44 245.983 1667.28C239.167 1670.39 231.083 1677.19 226.876 1680.97C225.462 1682.24 223.634 1682.84 221.741 1682.78C219.849 1682.67 218.122 1681.84 216.864 1680.43L215.385 1678.77C211.554 1689.8 213.446 1708.66 214.154 1714.43V1714.42Z" fill="#E41417"/>
<path d="M322.473 1709.47H214.816C213.695 1709.47 212.795 1708.56 212.795 1707.45C212.795 1706.34 213.704 1705.43 214.816 1705.43H322.473C323.594 1705.43 324.494 1706.34 324.494 1707.45C324.494 1708.56 323.585 1709.47 322.473 1709.47Z" fill="#E41417"/>
<path d="M274.009 1695.68C273.706 1695.68 273.394 1695.6 273.1 1695.46L239.801 1678.65C238.8 1678.15 238.405 1676.94 238.91 1675.94C239.415 1674.94 240.637 1674.54 241.629 1675.04L274.928 1691.84C275.929 1692.34 276.324 1693.55 275.819 1694.56C275.46 1695.26 274.753 1695.67 274.009 1695.67V1695.68Z" fill="#E41417"/>
<path d="M481.378 1577.92C459.176 1507.5 436.771 1437.13 414.147 1366.82C383.659 1272.05 352.795 1177.4 321.563 1082.9C273.062 1088.59 164.753 1051.79 176.06 1099.96C181.664 1123.84 181.149 1129.12 180.543 1138.02C175.858 1207.47 168.583 1257.12 168.813 1274.49C169.024 1289.88 169.621 1336.15 168.583 1399.41C168.418 1409.73 168.124 1420.75 167.655 1434.03C165.285 1500.86 160.803 1517.17 160.444 1571.61C160.398 1579.26 160.426 1586.68 160.527 1593.88C185.209 1589.05 213.41 1587.7 243.309 1594.45C266.954 1599.79 269.627 1605.21 290.919 1608.09C297.919 1609.04 304.459 1609.36 310.678 1609.22C293.216 1376.59 294.502 1323.24 294.502 1323.24C301.143 1374.91 309.392 1428.84 319.597 1484.75C327.093 1525.82 335.213 1565.49 343.765 1603.81C368.962 1596.37 391.054 1583.32 421.137 1577.78C436.845 1574.88 456.907 1573.64 481.378 1577.92Z" fill="#E41417"/>
<path d="M294.502 1321.37C293.409 1321.37 292.509 1320.5 292.482 1319.41L289.377 1205.31C289.358 1204.62 289.689 1203.98 290.249 1203.59L305.112 1193.35C306.031 1192.72 307.289 1192.95 307.932 1193.87C308.566 1194.78 308.336 1196.05 307.408 1196.69L293.446 1206.3L296.514 1319.31C296.542 1320.43 295.66 1321.35 294.548 1321.38H294.493L294.502 1321.37Z" fill="white"/>
<path d="M449.613 877.773L430.212 879.068C427.898 887.455 423.617 899.617 415.304 912.541C407.606 924.501 391.219 949.964 371.341 950.57C350.847 951.186 335.865 907.654 309.796 884.616C275.726 881.658 246.745 883.018 224.781 885.314C196.14 888.309 174.452 893.416 165.588 895.63C143.9 901.059 125.29 907.627 109.261 914.066C99.9465 943.47 72.8576 1015.18 84.8083 1100.41C93.9481 1165.6 164.44 1206.8 183.482 1227.99C188.176 1222.73 192.089 1216.61 195.35 1210.08C189.793 1200.07 181.461 1185.09 171.274 1166.89C151.773 1132.02 147.905 1125.38 146.261 1122.24C137.617 1105.79 133.759 1078.63 149.118 1030.86C148.392 1039.91 148.209 1049.69 148.87 1060.12C150.643 1087.66 152.195 1111.85 168.491 1123.08C182.306 1132.6 192.374 1122.92 250.915 1113C298.856 1104.88 319.037 1106.81 333.247 1089.1C341.074 1079.35 343.489 1068.12 344.279 1060.1C340.532 1042.34 336.848 1024.39 333.201 1006.36C349.286 1014.8 367.446 1018.37 382.593 1015.85C425.114 1008.79 463.575 950.497 449.604 877.764L449.613 877.773Z" fill="white"/>
<path d="M183.483 1230.02C182.904 1230.02 182.362 1229.78 181.976 1229.35C177.631 1224.52 170.347 1218.45 161.905 1211.42C133.236 1187.55 89.9162 1151.46 82.7972 1100.7C71.765 1022.04 94.0038 954.189 104.696 921.58C105.67 918.595 106.561 915.894 107.323 913.469C107.507 912.89 107.939 912.431 108.499 912.201C127.853 904.43 146.363 898.377 165.093 893.683C183.703 889.016 204.27 885.434 224.571 883.312C252.716 880.363 281.449 880.124 309.971 882.605C310.403 882.641 310.807 882.816 311.138 883.101C322.096 892.782 331.218 906.157 339.274 917.952C350.462 934.357 360.144 948.549 370.919 948.549C371.038 948.549 371.167 948.549 371.286 948.549C390.099 947.98 405.972 923.307 413.605 911.457C420.099 901.371 425.032 890.293 428.266 878.545C428.495 877.718 429.221 877.121 430.084 877.066L449.485 875.77C450.504 875.697 451.414 876.404 451.607 877.405C459.102 916.427 452.066 955.081 432.307 983.455C418.997 1002.57 401.462 1014.79 382.934 1017.87C368.558 1020.25 351.665 1017.41 336.013 1010.03C339.825 1028.83 343.095 1044.71 346.264 1059.71C346.31 1059.91 346.319 1060.12 346.301 1060.32C345.125 1072.26 341.267 1082.38 334.837 1090.39C323.419 1104.62 308.115 1106.76 280.347 1110.62C271.914 1111.8 262.352 1113.13 251.265 1115.01C230.165 1118.59 215.293 1122.15 204.435 1124.75C184.971 1129.42 176.915 1131.35 167.352 1124.75C150.248 1112.97 148.678 1088.54 146.859 1060.26C146.583 1056 146.446 1051.7 146.446 1047.39C138.353 1079.03 138.886 1103.85 148.062 1121.31C148.834 1122.79 150.184 1125.17 153.427 1130.93C157 1137.28 162.916 1147.77 173.048 1165.89C183.235 1184.11 191.566 1199.09 197.124 1209.1C197.445 1209.68 197.463 1210.38 197.169 1210.98C193.633 1218.07 189.536 1224.24 185.007 1229.33C184.622 1229.76 184.08 1230.01 183.501 1230.01L183.483 1230.02ZM110.897 915.6C110.198 917.795 109.399 920.211 108.545 922.838C97.9537 955.163 75.917 1022.41 86.8114 1100.14C93.7099 1149.36 136.314 1184.84 164.496 1208.31C172.129 1214.67 178.835 1220.26 183.418 1224.98C186.946 1220.72 190.179 1215.75 193.054 1210.14C187.506 1200.15 179.367 1185.54 169.502 1167.89C159.37 1149.77 153.463 1139.27 149.89 1132.94C146.528 1126.97 145.27 1124.73 144.461 1123.2C133.282 1101.92 134.192 1070.65 147.18 1030.26C147.493 1029.27 148.494 1028.68 149.504 1028.89C150.515 1029.09 151.213 1030.01 151.13 1031.04C150.359 1040.69 150.276 1050.44 150.891 1060C152.637 1087.24 154.152 1110.75 169.64 1121.43C177.714 1126.99 184.208 1125.44 203.48 1120.81C214.393 1118.19 229.338 1114.61 250.576 1111.02C261.718 1109.14 271.308 1107.79 279.768 1106.61C307.39 1102.75 321.251 1100.82 331.659 1087.84C337.528 1080.52 341.083 1071.23 342.222 1060.22C338.851 1044.24 335.351 1027.23 331.209 1006.76C331.052 1006 331.356 1005.21 331.98 1004.74C332.605 1004.27 333.441 1004.21 334.139 1004.56C350.039 1012.91 367.584 1016.29 382.263 1013.86C399.707 1010.96 416.297 999.338 428.982 981.122C447.822 954.061 454.702 917.263 447.951 879.913L431.775 880.997C428.431 892.626 423.461 903.603 417.004 913.643C409.003 926.081 392.34 951.967 371.406 952.6C371.24 952.6 371.075 952.6 370.9 952.6C358.004 952.6 347.761 937.591 335.921 920.239C328.131 908.821 319.313 895.896 308.951 886.573C280.907 884.185 252.67 884.433 224.993 887.326C204.886 889.43 184.511 892.985 166.085 897.596C147.823 902.17 129.764 908.058 110.906 915.591L110.897 915.6Z" fill="#E41417"/>
<path d="M427.19 849.811L437.543 815.401C438.259 813.013 440.583 811.479 443.072 811.764C445.883 812.085 447.913 814.611 447.619 817.422L446.131 831.532L459.846 842.527C464.071 845.917 465.725 851.566 463.998 856.692L459.432 870.25C457.145 877.038 450.926 881.732 443.761 882.072L438.939 882.302C431.517 882.66 424.682 878.269 421.936 871.38L418.693 863.259C416.654 858.171 419.336 852.411 424.545 850.684L427.19 849.802V849.811Z" fill="white"/>
<path d="M438.112 884.359C430.194 884.359 423.02 879.546 420.062 872.142L416.82 864.022C415.626 861.036 415.717 857.785 417.068 854.873C418.427 851.952 420.852 849.793 423.911 848.773L425.565 848.222L435.614 814.823C436.615 811.497 439.849 809.366 443.312 809.761C447.216 810.202 450.054 813.739 449.65 817.643L448.281 830.659L461.141 840.965C466.01 844.869 467.939 851.456 465.945 857.362L461.38 870.92C458.808 878.554 451.937 883.735 443.881 884.12L439.059 884.35C438.746 884.368 438.434 884.368 438.131 884.368L438.112 884.359ZM442.485 813.757C441.116 813.757 439.885 814.648 439.481 815.989L429.129 850.399C428.936 851.033 428.458 851.529 427.824 851.74L425.179 852.622C423.186 853.284 421.606 854.689 420.733 856.581C419.851 858.474 419.796 860.577 420.568 862.515L423.81 870.636C426.244 876.717 432.279 880.593 438.838 880.29L443.661 880.06C450.036 879.757 455.474 875.651 457.513 869.616L462.078 856.058C463.53 851.759 462.124 846.955 458.578 844.116L444.864 833.121C444.322 832.689 444.046 832.018 444.12 831.33L445.608 817.22C445.783 815.521 444.552 813.978 442.843 813.785C442.724 813.766 442.604 813.766 442.485 813.766V813.757Z" fill="#E41417"/>
<path d="M427.189 849.812L439.113 851.327C439.113 851.327 440.876 861.018 433.371 860.834L427.199 849.812H427.189Z" fill="white"/>
<path d="M433.573 862.865C433.491 862.865 433.399 862.865 433.316 862.865C432.195 862.837 431.314 861.909 431.341 860.789C431.369 859.668 432.251 858.814 433.417 858.814C434.648 858.869 435.557 858.529 436.154 857.831C437.147 856.673 437.321 854.634 437.266 853.137L426.941 851.823C425.83 851.686 425.049 850.666 425.187 849.564C425.324 848.452 426.353 847.69 427.456 847.809L439.379 849.325C440.251 849.435 440.959 850.106 441.115 850.969C441.225 851.585 442.125 857.096 439.241 860.458C438.295 861.56 436.549 862.865 433.582 862.865H433.573Z" fill="#E41417"/>
<path d="M446.893 853.596C446.783 853.596 446.663 853.587 446.553 853.569C445.451 853.385 444.707 852.338 444.9 851.235L447.811 834.168C447.995 833.066 449.052 832.322 450.145 832.515C451.247 832.699 451.991 833.746 451.798 834.848L448.886 851.915C448.721 852.898 447.857 853.596 446.893 853.596Z" fill="#E41417"/>
<path d="M455.428 857.693C455.308 857.693 455.189 857.684 455.069 857.665C453.967 857.463 453.241 856.416 453.434 855.314L455.887 841.755C456.089 840.653 457.145 839.927 458.239 840.12C459.341 840.322 460.066 841.37 459.874 842.472L457.421 856.03C457.246 857.013 456.392 857.693 455.428 857.693Z" fill="#E41417"/>
<path d="M332.486 995.369C331.558 995.369 330.731 994.736 330.511 993.789L316.925 934.008C316.677 932.915 317.357 931.831 318.45 931.583C319.543 931.335 320.627 932.024 320.875 933.108L334.461 992.889C334.709 993.982 334.029 995.066 332.936 995.314C332.789 995.351 332.633 995.36 332.486 995.36V995.369Z" fill="#E41417"/>
<path d="M171.468 1238.67C170.669 1238.67 169.906 1238.2 169.594 1237.41C169.171 1236.37 169.677 1235.19 170.705 1234.77C210.948 1218.45 205.033 1128.03 204.968 1127.12C204.886 1126.01 205.731 1125.04 206.842 1124.96C208.009 1124.87 208.927 1125.72 209.001 1126.84C209.276 1130.68 215.165 1221.11 172.221 1238.53C171.973 1238.63 171.716 1238.67 171.459 1238.67H171.468Z" fill="white"/>
<path d="M260.377 882.88C248.096 880.878 239.287 869.965 239.939 857.555L240.949 838.283C252.606 837.374 262.297 831.835 262.27 828.151C262.251 826.36 257.98 808.843 255.307 801.604C257.567 799.767 260.313 794.715 255.445 791.619C250.585 788.524 239.654 768.82 239.654 768.82C226.179 753.177 222.275 775.223 212.207 777.06C205.235 778.328 201.451 782.571 204.087 791.665C206.723 800.768 201.717 796.203 196.582 793.604C191.456 791.013 187.966 793.025 190.777 801.301C193.587 809.578 203.848 814.547 203.848 814.547L208.707 824.073L198.465 870.93C196.527 879.785 190.152 887.023 181.6 890.073L167.481 895.097L241.684 933.889L277.527 885.682L260.387 882.88H260.377Z" fill="white"/>
<path d="M241.684 935.91C241.362 935.91 241.041 935.836 240.747 935.68L166.544 896.889C165.827 896.521 165.405 895.759 165.46 894.95C165.515 894.142 166.039 893.453 166.801 893.187L180.92 888.162C188.865 885.333 194.689 878.728 196.489 870.498L206.585 824.348L202.35 816.044C199.953 814.768 191.529 809.789 188.865 801.953C187.184 797.002 187.405 793.548 189.545 791.693C190.611 790.765 193.054 789.553 197.5 791.803C198.464 792.29 199.42 792.841 200.32 793.365C201.036 793.778 201.973 794.32 202.717 794.678C202.635 794.145 202.469 793.355 202.148 792.235C200.743 787.366 200.954 783.398 202.791 780.422C204.509 777.657 207.549 775.857 211.848 775.067C214.76 774.534 217.36 771.521 219.877 768.609C223.018 764.971 226.261 761.214 230.835 761.214C234.16 761.214 237.55 763.272 241.188 767.497C241.279 767.599 241.353 767.718 241.426 767.837C245.56 775.287 253.313 787.862 256.537 789.911C259.366 791.711 260.074 794.017 260.165 795.624C260.312 798.105 259.127 800.502 257.658 802.146C260.34 809.991 264.29 826.029 264.308 828.124C264.345 833.277 254.351 838.779 242.887 840.12L241.968 857.656C241.371 869.056 249.427 879.041 260.717 880.878L277.857 883.679C278.555 883.79 279.143 884.258 279.41 884.919C279.676 885.572 279.584 886.316 279.162 886.885L243.319 935.092C242.924 935.625 242.317 935.91 241.693 935.91H241.684ZM172.524 895.446L241.087 931.289L273.907 887.142L260.046 884.883C246.727 882.706 237.21 870.911 237.908 857.445L238.919 838.173C238.974 837.163 239.773 836.336 240.783 836.262C252.624 835.344 260.248 829.851 260.239 828.16C260.147 826.443 256.059 809.504 253.395 802.302C253.092 801.494 253.35 800.575 254.02 800.034C254.948 799.28 256.206 797.489 256.114 795.863C256.059 794.871 255.481 794.044 254.351 793.328C249.335 790.14 239.525 772.77 237.982 769.987C235.254 766.854 232.847 765.265 230.826 765.265C228.098 765.265 225.59 768.177 222.926 771.264C219.959 774.708 216.882 778.263 212.565 779.053C209.441 779.623 207.31 780.799 206.226 782.553C205.014 784.51 204.95 787.385 206.024 791.105C207.016 794.55 207.329 797.122 205.593 798.472C203.664 799.978 201.174 798.536 198.281 796.864C197.436 796.378 196.545 795.863 195.654 795.413C193.688 794.421 192.503 794.467 192.181 794.742C191.777 795.092 191.364 796.773 192.677 800.649C195.194 808.034 204.619 812.673 204.72 812.719C205.115 812.912 205.436 813.234 205.639 813.619L210.498 823.145C210.709 823.558 210.773 824.036 210.672 824.495L200.43 871.352C198.327 880.951 191.538 888.658 182.261 891.965L172.505 895.437L172.524 895.446Z" fill="#E41417"/>
<path d="M236.76 840.818C227.951 840.818 222.485 834.443 220.658 830.53C220.189 829.52 220.621 828.307 221.64 827.839C222.651 827.37 223.854 827.802 224.332 828.813C224.543 829.253 229.311 838.944 240.48 836.308C241.564 836.042 242.657 836.721 242.915 837.815C243.172 838.899 242.501 839.992 241.408 840.249C239.764 840.635 238.212 840.818 236.76 840.818Z" fill="#E41417"/>
<path d="M269.379 558.714C308.666 558.714 340.514 527.018 340.514 487.919C340.514 448.82 308.666 417.124 269.379 417.124C230.092 417.124 198.244 448.82 198.244 487.919C198.244 527.018 230.092 558.714 269.379 558.714Z" fill="white"/>
<path d="M269.416 560.744C237.936 560.744 208.789 540.342 199.3 508.825C193.706 490.243 195.69 470.603 204.904 453.509C214.163 436.322 229.604 423.765 248.38 418.171C287.016 406.643 327.874 428.551 339.457 467.012C345.051 485.595 343.067 505.234 333.854 522.329C324.595 539.515 309.153 552.072 290.378 557.666C283.406 559.751 276.351 560.734 269.416 560.734V560.744ZM269.342 419.145C262.783 419.145 256.124 420.082 249.528 422.047C231.8 427.338 217.213 439.188 208.468 455.428C199.769 471.568 197.895 490.123 203.177 507.659C214.117 543.979 252.716 564.675 289.22 553.79C306.949 548.499 321.536 536.649 330.281 520.409C338.98 504.269 340.854 485.723 335.572 468.178C326.606 438.416 299.077 419.145 269.342 419.145Z" fill="#E41417"/>
<path d="M247.939 515.641L243.503 461.647C243.273 458.892 246.02 456.852 248.592 457.872L304.8 480.065C307.656 481.195 307.996 485.099 305.378 486.706L253.598 518.507C251.228 519.968 248.16 518.406 247.93 515.641H247.939Z" fill="#E41417"/>
<path d="M510.249 266.697C549.972 266.697 582.174 234.652 582.174 195.122C582.174 155.591 549.972 123.546 510.249 123.546C470.526 123.546 438.324 155.591 438.324 195.122C438.324 234.652 470.526 266.697 510.249 266.697Z" fill="white"/>
<path d="M510.285 268.727C478.466 268.727 449.007 248.105 439.417 216.249C433.759 197.464 435.77 177.613 445.085 160.335C454.445 142.965 470.052 130.279 489.03 124.621C528.078 112.964 569.387 135.12 581.09 173.985C586.748 192.761 584.736 212.62 575.422 229.899C566.062 247.269 550.455 259.955 531.477 265.613C524.422 267.717 517.294 268.718 510.285 268.718V268.727ZM443.293 215.082C454.362 251.816 493.393 272.751 530.32 261.737C548.26 256.391 563.003 244.394 571.849 227.979C580.649 211.656 582.541 192.889 577.204 175.152C566.135 138.408 527.105 117.483 490.178 128.497C472.238 133.843 457.495 145.84 448.649 162.255C439.849 178.578 437.957 197.344 443.293 215.082Z" fill="#E41417"/>
<path d="M494.569 242.006H483.123L497.637 149.303H509.082L494.569 242.006Z" fill="#E41417"/>
<path d="M473.863 187.626L475.416 176.741H549.527L547.965 187.626H473.863Z" fill="#E41417"/>
<path d="M470.327 212.354L471.889 201.469H545.991L544.429 212.354H470.327Z" fill="#E41417"/>
<path d="M521.961 242.006H510.516L525.02 149.303H536.466L521.961 242.006Z" fill="#E41417"/>
<path d="M320.167 378.81C370.589 378.81 411.464 337.934 411.464 287.512C411.464 237.09 370.589 196.215 320.167 196.215C269.744 196.215 228.869 237.09 228.869 287.512C228.869 337.934 269.744 378.81 320.167 378.81Z" fill="white"/>
<path d="M320.167 380.84C268.708 380.84 226.849 338.98 226.849 287.521C226.849 236.063 268.717 194.203 320.167 194.203C371.617 194.203 413.495 236.063 413.495 287.521C413.495 338.98 371.626 380.84 320.167 380.84ZM320.167 198.245C270.94 198.245 230.89 238.295 230.89 287.521C230.89 336.748 270.94 376.798 320.167 376.798C369.394 376.798 409.444 336.748 409.444 287.521C409.444 238.295 369.394 198.245 320.167 198.245Z" fill="#E41417"/>
<path d="M320.673 333.441C319.772 334.002 318.633 334.029 317.706 333.505C309.659 329.004 272.337 306.518 273.798 277.105C275.341 246.011 309.08 251.403 317.412 266.706C317.724 267.285 318.349 267.634 319.01 267.597C319.671 267.561 320.25 267.157 320.507 266.541C324.595 256.712 337.795 249.593 350.223 254.26C365.049 259.826 380.114 296.597 320.682 333.432L320.673 333.441Z" fill="#E41417"/>
<path d="M498.262 714.706L439.831 727.87C432.629 729.496 427.035 735.163 425.501 742.383L417.712 779.071L390.99 748.905C386.425 743.752 379.416 741.492 372.692 742.999L318.955 755.106C308.777 757.402 298.664 751.009 296.367 740.822L270.665 626.762C268.369 616.584 274.762 606.47 284.949 604.174L464.247 563.775C474.425 561.478 484.538 567.872 486.835 578.059L512.537 692.119C514.833 702.297 508.44 712.41 498.253 714.706H498.262Z" fill="white"/>
<path d="M417.72 781.092C417.151 781.092 416.59 780.853 416.205 780.413L389.483 750.256C385.405 745.653 379.149 743.633 373.151 744.983L319.414 757.09C308.161 759.634 296.945 752.534 294.41 741.281L268.708 627.221C266.173 615.968 273.264 604.753 284.517 602.217L463.815 561.818C475.067 559.283 486.283 566.374 488.818 577.627L514.52 691.687C517.055 702.94 509.964 714.155 498.711 716.691L440.281 729.854C433.869 731.296 428.853 736.385 427.485 742.806L419.695 779.485C419.539 780.229 418.97 780.826 418.235 781.019C418.06 781.065 417.895 781.083 417.72 781.083V781.092ZM376.853 740.519C382.768 740.519 388.491 743.036 392.514 747.564L416.572 774.717L423.526 741.961C425.216 733.997 431.444 727.686 439.39 725.895L497.82 712.732C506.896 710.683 512.619 701.635 510.57 692.56L484.868 578.5C482.82 569.424 473.781 563.701 464.696 565.75L285.399 606.149C276.323 608.197 270.61 617.245 272.649 626.321L298.351 740.381C299.343 744.772 301.988 748.519 305.791 750.935C309.594 753.351 314.123 754.123 318.514 753.131L372.251 741.024C373.775 740.684 375.319 740.509 376.844 740.509L376.853 740.519Z" fill="#E41417"/>
<path d="M324.126 645.134C323.198 645.134 322.371 644.5 322.151 643.563C321.903 642.47 322.582 641.386 323.675 641.138L452.571 611.743C453.664 611.486 454.748 612.175 454.996 613.268C455.244 614.361 454.564 615.445 453.471 615.693L324.576 645.088C324.429 645.125 324.273 645.143 324.126 645.143V645.134Z" fill="#E41417"/>
<path d="M327.892 676.044C326.964 676.044 326.138 675.41 325.917 674.473C325.669 673.38 326.349 672.296 327.442 672.048L422.974 650.259C424.067 650.002 425.151 650.691 425.399 651.784C425.647 652.877 424.968 653.961 423.875 654.209L328.342 675.998C328.195 676.035 328.039 676.053 327.892 676.053V676.044Z" fill="#E41417"/>
<path d="M338.447 706.191C337.519 706.191 336.692 705.558 336.472 704.621C336.224 703.528 336.904 702.444 337.997 702.196L466.892 672.801C467.985 672.553 469.069 673.233 469.317 674.326C469.565 675.419 468.885 676.503 467.792 676.751L338.897 706.146C338.75 706.182 338.594 706.201 338.447 706.201V706.191Z" fill="#E41417"/>
<path d="M1726.26 610.099H1546.6C1541.37 610.099 1537.13 614.339 1537.13 619.57V684.743C1537.13 689.973 1541.37 694.213 1546.6 694.213H1726.26C1731.49 694.213 1735.73 689.973 1735.73 684.743V619.57C1735.73 614.339 1731.49 610.099 1726.26 610.099Z" fill="white"/>
<path d="M1726.26 696.243H1546.6C1540.26 696.243 1535.11 691.09 1535.11 684.752V619.579C1535.11 613.241 1540.26 608.087 1546.6 608.087H1582.05C1583.17 608.087 1584.07 608.997 1584.07 610.108C1584.07 611.22 1583.16 612.129 1582.05 612.129H1546.6C1542.49 612.129 1539.15 615.473 1539.15 619.579V684.752C1539.15 688.858 1542.49 692.202 1546.6 692.202H1726.26C1730.37 692.202 1733.71 688.858 1733.71 684.752V619.579C1733.71 615.473 1730.37 612.129 1726.26 612.129H1605.92C1604.8 612.129 1603.9 611.22 1603.9 610.108C1603.9 608.997 1604.81 608.087 1605.92 608.087H1726.26C1732.6 608.087 1737.76 613.241 1737.76 619.579V684.752C1737.76 691.09 1732.6 696.243 1726.26 696.243Z" fill="#E41417"/>
<path d="M1709.51 643.15H1566.72C1565.6 643.15 1564.7 642.24 1564.7 641.129C1564.7 640.017 1565.6 639.108 1566.72 639.108H1709.51C1710.63 639.108 1711.53 640.017 1711.53 641.129C1711.53 642.24 1710.62 643.15 1709.51 643.15Z" fill="#E41417"/>
<path d="M1709.51 662.228H1679.66C1678.54 662.228 1677.63 661.319 1677.63 660.207C1677.63 659.096 1678.54 658.187 1679.66 658.187H1709.51C1710.63 658.187 1711.53 659.096 1711.53 660.207C1711.53 661.319 1710.62 662.228 1709.51 662.228Z" fill="#E41417"/>
<path d="M1660.58 662.228H1566.72C1565.6 662.228 1564.7 661.319 1564.7 660.207C1564.7 659.096 1565.61 658.187 1566.72 658.187H1660.58C1661.7 658.187 1662.6 659.096 1662.6 660.207C1662.6 661.319 1661.69 662.228 1660.58 662.228Z" fill="#E41417"/>
</svg>
