<svg width="1800" height="1720" viewBox="0 0 1800 1720" fill="none" xmlns="http://www.w3.org/2000/svg">
<path d="M1203.18 1652.65H421.601C387.925 1652.65 364.061 1625.43 368.31 1591.86L560.762 71.5352C565.01 37.9623 595.763 10.7431 629.439 10.7431L1371.77 2.06787C1456.98 2.06787 1468.55 37.9529 1464.3 71.5258L1271.85 1591.86C1267.61 1625.43 1236.85 1652.65 1203.18 1652.65Z" fill="#E41417"/>
<path d="M1203.18 1654.72H421.601C404.768 1654.72 389.73 1648.18 379.269 1636.31C368.742 1624.37 364.118 1608.48 366.26 1591.59L558.713 71.2719C563.083 36.7591 594.814 8.67519 629.439 8.67519L1371.76 0C1412.47 0 1440.45 8.33683 1454.94 24.7661C1465.15 36.3644 1468.89 51.741 1466.36 71.7888L1273.91 1592.12C1269.54 1626.64 1237.81 1654.72 1203.18 1654.72ZM1371.78 4.13552L629.467 12.8107C596.825 12.8107 566.937 39.2686 562.82 71.7888L370.377 1592.12C368.394 1607.81 372.652 1622.53 382.389 1633.58C392.051 1644.54 405.98 1650.58 421.611 1650.58H1203.18C1235.8 1650.58 1265.68 1624.12 1269.81 1591.6L1462.25 71.2719C1464.63 52.4741 1461.22 38.1596 1451.83 27.5106C1438.17 12.0024 1411.23 4.14492 1371.78 4.14492V4.13552Z" fill="#E41417"/>
<path d="M1156.14 1652.65H374.578C340.902 1652.65 317.038 1625.34 321.287 1591.67L513.739 66.4972C517.987 32.8209 548.74 5.51709 582.416 5.51709H1363.98C1397.66 5.51709 1421.52 32.8209 1417.27 66.4972L1224.83 1591.67C1220.58 1625.34 1189.83 1652.65 1156.15 1652.65H1156.14Z" fill="white"/>
<path d="M1156.14 1654.72H374.578C357.782 1654.72 342.763 1648.18 332.311 1636.32C321.738 1624.33 317.095 1608.38 319.238 1591.4L511.68 66.234C516.051 31.6085 547.781 3.43994 582.416 3.43994H1363.98C1380.79 3.43994 1395.8 9.97218 1406.25 21.8336C1416.82 33.8266 1421.47 49.7765 1419.32 66.751L1226.88 1591.92C1222.51 1626.55 1190.78 1654.72 1156.14 1654.72ZM582.416 7.58486C549.793 7.58486 519.904 34.1274 515.787 66.7604L323.345 1591.93C321.352 1607.71 325.638 1622.5 335.413 1633.6C345.075 1644.55 358.986 1650.59 374.578 1650.59H1156.14C1188.77 1650.59 1218.66 1624.05 1222.77 1591.41L1415.22 66.234C1417.21 50.4533 1412.92 35.6594 1403.15 24.5687C1393.49 13.6096 1379.58 7.57546 1363.98 7.57546H582.416V7.58486Z" fill="#E41417"/>
<path d="M365.828 1593.76L549.576 137.487C550.554 129.714 557.659 123.408 565.432 123.408H1351.21C1358.98 123.408 1364.49 129.714 1363.51 137.487L1179.75 1593.76C1178.78 1601.54 1171.67 1607.84 1163.9 1607.84H378.131C370.358 1607.84 364.85 1601.54 365.828 1593.76Z" fill="white"/>
<path d="M1163.9 1609.91H378.131C373.789 1609.91 369.898 1608.21 367.181 1605.13C364.437 1602.02 363.224 1597.88 363.779 1593.5L547.528 137.234C548.637 128.474 556.663 121.349 565.432 121.349H1351.21C1355.55 121.349 1359.44 123.051 1362.16 126.133C1364.9 129.244 1366.12 133.38 1365.56 137.76L1181.81 1594.04C1180.7 1602.8 1172.67 1609.93 1163.91 1609.93L1163.9 1609.91ZM367.877 1594.02C367.473 1597.2 368.328 1600.17 370.283 1602.38C372.21 1604.56 374.992 1605.77 378.131 1605.77H1163.91C1170.67 1605.77 1176.85 1600.26 1177.71 1593.5L1361.45 137.224C1361.86 134.038 1361 131.068 1359.06 128.859C1357.13 126.679 1354.35 125.475 1351.21 125.475H565.432C558.675 125.475 552.49 130.974 551.635 137.741L367.877 1594.02Z" fill="#E41417"/>
<path d="M963.41 83.0864C950.797 83.0864 941.859 72.8604 943.447 60.2377C945.035 47.6243 956.558 37.3889 969.172 37.3889C981.785 37.3889 990.724 47.6149 989.135 60.2377C987.547 72.851 976.024 83.0864 963.41 83.0864Z" fill="#E41417"/>
<path d="M729.846 515.566L761.825 516.901C763.641 516.977 765.037 518.578 764.938 520.473L750.819 790.604L715.547 789.131L729.846 515.566Z" fill="#E41417"/>
<path d="M715.201 790.565C714.435 790.512 713.854 789.842 713.898 789.044L728.331 515.465C728.376 514.654 729.042 514.026 729.828 514.061L762.141 515.393C762.184 515.396 762.227 515.399 762.27 515.402C764.825 515.579 766.767 517.831 766.631 520.488L752.384 790.631C752.339 791.435 751.672 792.07 750.886 792.035L715.245 790.562C715.245 790.562 715.22 790.56 715.208 790.559L715.201 790.565ZM731.089 517.05L716.814 787.7L749.618 789.052L763.787 520.374C763.842 519.29 763.046 518.369 761.984 518.321L731.089 517.05Z" fill="#E41417"/>
<path d="M777.119 522.978L741.847 521.505L727.548 795.07L762.82 796.543L777.119 522.978Z" fill="white"/>
<path d="M727.199 796.503C726.433 796.45 725.858 795.781 725.896 794.982L740.328 521.404C740.347 521.017 740.517 520.647 740.797 520.386C741.076 520.126 741.445 519.986 741.82 519.999L777.461 521.472C777.461 521.472 777.485 521.474 777.498 521.474C778.264 521.527 778.845 522.197 778.801 522.996L764.369 796.574C764.35 796.961 764.179 797.331 763.9 797.591C763.621 797.852 763.252 797.992 762.877 797.979L727.236 796.506C727.236 796.506 727.212 796.504 727.193 796.503L727.199 796.503ZM743.087 522.988L728.812 793.638L761.616 794.991L775.891 524.341L743.087 522.988Z" fill="#E41417"/>
<path d="M728.728 515.948L740.368 521.636L776.503 523.327L767.092 518.445C765.061 517.389 762.82 516.825 760.538 516.778L728.735 515.942L728.728 515.948Z" fill="white"/>
<path d="M740.253 523.122C740.07 523.109 739.896 523.064 739.732 522.981L728.096 517.334C727.473 517.03 727.148 516.321 727.318 515.626C727.487 514.932 728.103 514.451 728.793 514.466L760.584 515.297C763.068 515.344 765.538 515.971 767.745 517.104L777.153 521.951C777.769 522.268 778.08 522.989 777.892 523.675C777.711 524.363 777.083 524.836 776.394 524.801L740.272 523.123C740.272 523.123 740.253 523.122 740.241 523.121L740.253 523.122ZM735.66 517.659L740.751 520.129L769.658 521.473L766.414 519.805C764.585 518.861 762.526 518.347 760.485 518.311L735.66 517.666L735.66 517.659Z" fill="#E41417"/>
<path d="M862.109 543.634L894.114 549.023C895.932 549.329 897.145 551.097 896.818 552.967L850.272 819.532L814.972 813.589L862.109 543.634Z" fill="#E41417"/>
<path d="M850.13 821.221C850.087 821.218 850.038 821.214 849.995 821.205L814.688 815.249C814.316 815.185 813.986 814.972 813.769 814.658C813.553 814.344 813.467 813.95 813.535 813.566L860.69 543.231C860.828 542.432 861.583 541.891 862.347 542.02L894.355 547.419C896.946 547.858 898.676 550.382 898.215 553.056L851.652 819.995C851.518 820.743 850.857 821.27 850.13 821.221ZM816.596 812.598L849.093 818.075L895.405 552.583C895.59 551.508 894.896 550.493 893.852 550.313L863.249 545.15L816.603 812.592L816.596 812.598Z" fill="#E41417"/>
<path d="M908.585 556.947L873.285 551.004L826.147 820.959L861.447 826.902L908.585 556.947Z" fill="white"/>
<path d="M861.314 828.581C861.271 828.578 861.222 828.575 861.179 828.566L825.875 822.61C825.099 822.481 824.584 821.726 824.722 820.927L871.882 550.589C872.02 549.791 872.769 549.25 873.539 549.379L908.843 555.334C909.216 555.398 909.545 555.612 909.762 555.926C909.978 556.24 910.065 556.634 909.997 557.017L862.836 827.355C862.768 827.739 862.555 828.081 862.246 828.308C861.97 828.505 861.647 828.604 861.314 828.581ZM827.784 819.959L860.283 825.436L906.934 557.992L874.435 552.515L827.784 819.959Z" fill="#E41417"/>
<path d="M861.482 544.063L872.33 551.131L907.9 557.329L899.161 551.34C897.272 550.049 895.125 549.204 892.868 548.873L861.482 544.063Z" fill="white"/>
<path d="M907.771 558.798C907.721 558.794 907.671 558.791 907.627 558.781L872.07 552.606C871.883 552.574 871.698 552.503 871.541 552.401L860.697 545.361C860.119 544.984 859.88 544.239 860.13 543.573C860.38 542.908 861.059 542.512 861.729 542.609L893.104 547.401C895.548 547.756 897.928 548.685 899.985 550.087L908.721 556.053C909.292 556.443 909.511 557.193 909.249 557.852C909.004 558.459 908.409 558.841 907.778 558.798L907.771 558.798ZM872.886 549.703L901.344 554.647L898.332 552.588C896.636 551.432 894.669 550.661 892.638 550.367L868.143 546.623L872.886 549.703Z" fill="#E41417"/>
<path d="M998.546 553.713L1030.55 559.101C1032.37 559.408 1033.58 561.176 1033.26 563.045L986.71 829.611L951.409 823.668L998.546 553.713Z" fill="#E41417"/>
<path d="M986.567 831.303C986.524 831.3 986.475 831.297 986.432 831.288L951.125 825.331C950.753 825.268 950.423 825.054 950.206 824.74C949.99 824.426 949.904 824.032 949.972 823.649L997.127 553.313C997.265 552.514 998.002 551.973 998.784 552.103L1030.79 557.502C1032.04 557.715 1033.14 558.414 1033.87 559.482C1034.59 560.544 1034.87 561.842 1034.65 563.138L988.083 830.077C988.015 830.46 987.802 830.802 987.493 831.029C987.217 831.227 986.894 831.325 986.561 831.303L986.567 831.303ZM953.033 822.681L985.53 828.158L1031.84 562.665C1031.93 562.143 1031.81 561.62 1031.52 561.193C1031.23 560.765 1030.79 560.481 1030.28 560.395L999.68 555.232L953.034 822.674L953.033 822.681Z" fill="#E41417"/>
<path d="M1045.02 567.019L1009.72 561.076L962.583 831.031L997.883 836.974L1045.02 567.019Z" fill="white"/>
<path d="M997.751 838.664C997.708 838.661 997.659 838.658 997.616 838.648L962.306 832.692C961.934 832.629 961.604 832.415 961.387 832.101C961.171 831.787 961.085 831.393 961.153 831.009L1008.31 560.672C1008.45 559.873 1009.21 559.332 1009.97 559.461L1045.28 565.417C1045.65 565.481 1045.98 565.694 1046.2 566.008C1046.42 566.322 1046.5 566.716 1046.43 567.1L999.273 837.438C999.139 838.186 998.478 838.714 997.751 838.664ZM964.215 830.041L996.714 835.519L1043.37 568.074L1010.87 562.597L964.215 830.041Z" fill="#E41417"/>
<path d="M997.919 554.146L1008.77 561.213L1044.34 567.412L1035.6 561.423C1033.71 560.131 1031.56 559.286 1029.31 558.956L997.919 554.146Z" fill="white"/>
<path d="M1044.21 568.88C1044.16 568.877 1044.11 568.873 1044.06 568.864L1008.51 562.689C1008.32 562.657 1008.14 562.585 1007.98 562.484L997.135 555.444C996.556 555.066 996.318 554.322 996.568 553.656C996.818 552.99 997.49 552.594 998.167 552.692L1029.54 557.483C1031.99 557.838 1034.37 558.768 1036.42 560.169L1045.15 566.135C1045.72 566.526 1045.94 567.275 1045.68 567.934C1045.43 568.541 1044.84 568.923 1044.21 568.88ZM1009.32 559.786L1037.78 564.729L1034.77 562.671C1033.07 561.515 1031.11 560.743 1029.08 560.449L1004.58 556.705L1009.32 559.786Z" fill="#E41417"/>
<path d="M1029.18 585.534L1060.77 594.053C1062.5 594.52 1063.51 596.33 1063.02 598.099L991.396 859.224L956.676 849.861L1029.18 585.534Z" fill="#E41417"/>
<path d="M991.239 861.128C991.146 861.121 991.06 861.109 990.968 861.084L956.269 851.691C955.904 851.59 955.594 851.346 955.403 851.015C955.218 850.677 955.169 850.279 955.274 849.904L1027.75 584.823C1027.85 584.448 1028.1 584.127 1028.43 583.933C1028.76 583.739 1029.15 583.682 1029.51 583.784L1061.09 592.334C1062.29 592.657 1063.3 593.445 1063.9 594.55C1064.52 595.655 1064.66 596.946 1064.33 598.178L992.725 860.05C992.539 860.738 991.9 861.185 991.231 861.14L991.239 861.128ZM958.421 849.226L990.362 857.87L1061.58 597.418C1061.71 596.936 1061.65 596.442 1061.41 596.012C1061.17 595.581 1060.78 595.281 1060.32 595.154L1030.13 586.978L958.427 849.226L958.421 849.226Z" fill="#E41417"/>
<path d="M1001.79 868.057L967.106 858.665L1039.56 593.594L1073.68 602.833C1073.99 602.918 1074.18 603.249 1074.09 603.568L1001.79 868.057Z" fill="white"/>
<path d="M1001.67 869.527C1001.58 869.521 1001.49 869.509 1001.4 869.484L966.698 860.091C966.333 859.99 966.022 859.746 965.832 859.408C965.648 859.071 965.599 858.673 965.704 858.298L1038.19 593.213C1038.4 592.431 1039.2 591.963 1039.96 592.167L1074.09 601.407C1075.16 601.696 1075.79 602.828 1075.49 603.935L1003.17 868.438C1002.98 869.126 1002.34 869.573 1001.68 869.528L1001.67 869.527ZM968.85 857.626L1000.79 866.27L1072.5 604.019L1040.56 595.374L968.85 857.626Z" fill="#E41417"/>
<path d="M1028.34 586.143L1038.83 594.055L1073.57 603.661L1066.85 598.041C1064.18 595.81 1061.05 594.223 1057.68 593.391L1028.34 586.143Z" fill="white"/>
<path d="M1073.45 605.13C1073.35 605.124 1073.26 605.111 1073.17 605.085L1038.43 595.499C1038.26 595.448 1038.1 595.373 1037.96 595.266L1027.47 587.37C1026.91 586.951 1026.73 586.187 1027.03 585.541C1027.34 584.895 1028.06 584.555 1028.72 584.716L1058.05 591.95C1061.6 592.824 1064.96 594.528 1067.78 596.874L1074.51 602.483C1075.04 602.926 1075.18 603.694 1074.86 604.319C1074.58 604.857 1074.03 605.169 1073.45 605.131L1073.45 605.13ZM1039.5 592.689L1067.31 600.365L1065.9 599.188C1063.42 597.117 1060.44 595.614 1057.31 594.839L1035.06 589.353L1039.49 592.689L1039.5 592.689Z" fill="#E41417"/>
<path d="M1008.7 597.839L973.54 590.797L918.253 859.221L953.413 866.264L1008.7 597.839Z" fill="#E41417"/>
<path d="M953.268 868.015C953.206 868.011 953.151 868.007 953.09 867.99L917.932 860.932C917.56 860.855 917.236 860.636 917.027 860.31C916.823 859.99 916.749 859.59 916.829 859.207L972.122 590.283C972.203 589.9 972.422 589.565 972.743 589.351C973.058 589.131 973.449 589.056 973.821 589.126L1008.98 596.184C1009.75 596.339 1010.25 597.111 1010.08 597.902L954.79 866.826C954.71 867.209 954.49 867.544 954.169 867.758C953.9 867.944 953.59 868.024 953.275 868.003L953.268 868.015ZM919.92 858.336L952.282 864.834L1006.98 598.786L974.629 592.288L919.926 858.336L919.92 858.336Z" fill="#E41417"/>
<path d="M964.341 874.242L929.203 867.184L984.464 598.275L1019.22 605.256C1019.43 605.296 1019.56 605.509 1019.52 605.729L964.341 874.242Z" fill="white"/>
<path d="M964.225 875.713C964.164 875.709 964.108 875.705 964.047 875.688L928.89 868.629C928.518 868.553 928.194 868.334 927.984 868.007C927.78 867.688 927.707 867.288 927.787 866.905L983.079 597.982C983.242 597.19 984.009 596.67 984.772 596.824L1019.55 603.805C1020.53 603.999 1021.16 604.985 1020.95 605.989L965.741 874.524C965.589 875.258 964.935 875.755 964.226 875.707L964.225 875.713ZM930.878 866.034L963.239 872.532L1017.94 606.484L985.58 599.986L930.878 866.034Z" fill="#E41417"/>
<path d="M972.604 591.393L983.6 598.618L1018.94 605.92L1007.58 597.614L972.604 591.393Z" fill="white"/>
<path d="M1018.82 607.388C1018.75 607.384 1018.69 607.38 1018.63 607.363L983.296 600.091C983.122 600.053 982.956 599.983 982.805 599.888L971.82 592.687C971.236 592.303 971.004 591.553 971.267 590.889C971.529 590.225 972.214 589.837 972.895 589.955L1007.86 596.156C1008.08 596.197 1008.28 596.282 1008.45 596.404L1019.8 604.676C1020.36 605.084 1020.56 605.838 1020.28 606.488C1020.02 607.074 1019.43 607.43 1018.82 607.389L1018.82 607.388ZM984.181 597.209L1012.48 603.035L1006.99 599.039L979.543 594.173L984.18 597.216L984.181 597.209Z" fill="#E41417"/>
<path d="M811.299 587.975L776.147 580.882L720.489 849.23L755.64 856.323L811.299 587.975Z" fill="#E41417"/>
<path d="M755.566 858.015C755.504 858.01 755.442 858.006 755.382 857.989L720.231 850.887C719.859 850.811 719.535 850.591 719.331 850.265C719.128 849.946 719.054 849.546 719.134 849.163L774.768 580.303C774.849 579.921 775.068 579.585 775.389 579.372C775.704 579.158 776.089 579.076 776.467 579.152L811.618 586.255C812.393 586.409 812.884 587.181 812.721 587.973L757.087 856.832C756.936 857.56 756.281 858.063 755.572 858.015L755.566 858.015ZM722.225 848.292L754.58 854.828L809.618 588.843L777.263 582.307L722.225 848.292Z" fill="#E41417"/>
<path d="M822.235 595.696L787.083 588.603L731.425 856.951L766.577 864.044L822.235 595.696Z" fill="white"/>
<path d="M766.505 865.724C766.443 865.72 766.381 865.715 766.321 865.699L731.17 858.596C730.798 858.52 730.474 858.3 730.271 857.974C730.067 857.649 729.993 857.255 730.073 856.872L785.707 588.013C785.87 587.222 786.625 586.7 787.4 586.855L822.551 593.957C822.923 594.034 823.247 594.253 823.45 594.579C823.654 594.898 823.728 595.298 823.647 595.681L768.014 864.541C767.862 865.269 767.208 865.772 766.498 865.723L766.505 865.724ZM733.164 856.001L765.519 862.537L820.557 596.553L788.202 590.017L733.164 856.001Z" fill="#E41417"/>
<path d="M775.249 581.415L786.231 588.652L821.565 595.991L810.219 587.681L775.249 581.415Z" fill="white"/>
<path d="M821.437 597.46C821.374 597.455 821.305 597.451 821.243 597.433L785.922 590.111C785.747 590.073 785.582 590.003 785.431 589.909L774.453 582.695C773.868 582.311 773.638 581.556 773.9 580.892C774.163 580.228 774.835 579.832 775.529 579.957L810.486 586.202C810.698 586.243 810.901 586.328 811.074 586.457L822.416 594.747C822.973 595.155 823.172 595.909 822.885 596.558C822.629 597.144 822.042 597.501 821.437 597.46ZM786.812 587.236L815.099 593.1L809.619 589.098L782.175 584.194L786.811 587.243L786.812 587.236Z" fill="#E41417"/>
<path d="M576.244 600.882L609.538 592.866C611.415 592.414 613.288 593.531 613.719 595.359L675.591 857.886L638.896 866.722L576.244 600.882Z" fill="#E41417"/>
<path d="M638.26 868.496C637.651 868.455 637.118 868.017 636.976 867.383L576.772 601.005C576.592 600.215 577.081 599.425 577.853 599.228L609.858 591.195C612.435 590.546 615.01 592.147 615.603 594.763L675.059 857.826C675.141 858.202 675.077 858.605 674.875 858.936C674.673 859.267 674.348 859.506 673.977 859.603L638.701 868.455C638.554 868.49 638.403 868.505 638.26 868.496ZM579.899 601.725L639.46 865.254L671.931 857.106L612.797 595.473C612.563 594.431 611.528 593.787 610.507 594.05L579.905 601.732L579.899 601.725Z" fill="#E41417"/>
<path d="M626.113 594.42L589.418 603.255L652.07 869.095L688.765 860.26L626.113 594.42Z" fill="white"/>
<path d="M651.431 870.867C650.822 870.826 650.289 870.389 650.147 869.754L589.945 603.379C589.765 602.589 590.254 601.799 591.026 601.603L626.301 592.75C627.079 592.554 627.852 593.033 628.025 593.823L688.234 860.199C688.316 860.574 688.252 860.978 688.05 861.308C687.849 861.639 687.523 861.879 687.153 861.975L651.878 870.827C651.732 870.862 651.58 870.877 651.437 870.868L651.431 870.867ZM593.072 604.1L652.631 867.626L685.1 859.477L625.535 595.951L593.066 604.099L593.072 604.1Z" fill="#E41417"/>
<path d="M576.251 600.883L588.58 603.068C589.111 603.162 589.658 603.141 590.188 603.014L624.669 594.514L613.599 592.453C611.812 592.124 609.972 592.207 608.209 592.686L576.245 600.883L576.251 600.883Z" fill="white"/>
<path d="M588.878 604.591C588.689 604.579 588.501 604.553 588.314 604.521L575.989 602.342C575.314 602.225 574.817 601.633 574.804 600.925C574.785 600.216 575.26 599.593 575.933 599.418L607.886 591.244C609.824 590.714 611.911 590.622 613.89 590.989L624.957 593.044C625.632 593.167 626.129 593.766 626.135 594.473C626.141 595.181 625.666 595.805 624.994 595.967L590.526 604.444C589.989 604.576 589.44 604.623 588.891 604.586L588.878 604.591ZM583.324 600.6L588.855 601.579C589.199 601.641 589.536 601.625 589.872 601.544L617.582 594.731L613.317 593.942C611.749 593.654 610.114 593.725 608.565 594.146L583.324 600.6Z" fill="#E41417"/>
<path d="M680.145 594.358L642.315 598.924L672.915 870.396L710.745 865.83L680.145 594.358Z" fill="#E41417"/>
<path d="M672.986 872.139C672.701 872.119 672.43 872.012 672.208 871.831C671.91 871.594 671.721 871.244 671.684 870.853L642.702 598.837C642.658 598.452 642.771 598.064 643.007 597.755C643.243 597.447 643.589 597.247 643.972 597.203L679.804 592.626C680.18 592.581 680.558 592.683 680.856 592.926C681.154 593.163 681.343 593.514 681.38 593.905L710.362 865.921C710.447 866.723 709.878 867.455 709.091 867.561L673.26 872.138C673.172 872.151 673.078 872.151 672.986 872.145L672.986 872.139ZM645.7 599.932L674.375 869.035L707.358 864.825L678.689 595.723L645.706 599.932L645.7 599.932Z" fill="#E41417"/>
<path d="M692.944 598.262L655.114 602.828L685.714 874.299L723.544 869.733L692.944 598.262Z" fill="white"/>
<path d="M685.794 876.04C685.509 876.021 685.238 875.913 685.016 875.733C684.718 875.496 684.528 875.145 684.491 874.754L655.51 602.738C655.466 602.353 655.578 601.966 655.815 601.657C656.051 601.348 656.397 601.149 656.78 601.104L692.611 596.527C692.988 596.483 693.366 596.585 693.664 596.822C693.962 597.058 694.152 597.409 694.189 597.8L723.17 869.816C723.255 870.618 722.686 871.35 721.899 871.456L686.068 876.033C685.98 876.046 685.887 876.046 685.794 876.04ZM658.507 603.833L687.182 872.937L720.166 868.727L691.497 599.624L658.514 603.834L658.507 603.833Z" fill="#E41417"/>
<path d="M642.399 599.429L655.095 602.755L691.084 598.335L681.022 595.156C678.844 594.464 676.53 594.286 674.257 594.628L642.399 599.429Z" fill="white"/>
<path d="M654.979 604.227C654.891 604.221 654.803 604.209 654.717 604.183L642.025 600.871C641.355 600.695 640.905 600.052 640.949 599.339C640.994 598.626 641.529 598.038 642.216 597.935L674.062 593.154C676.533 592.782 679.092 592.982 681.461 593.73L691.519 596.895C692.175 597.103 692.598 597.756 692.523 598.461C692.454 599.165 691.907 599.734 691.222 599.817L655.246 604.219C655.157 604.233 655.068 604.233 654.973 604.227L654.979 604.227ZM649.86 599.816L655.221 601.217L684.029 597.693L680.571 596.605C678.61 595.989 676.493 595.819 674.451 596.129L649.866 599.823L649.86 599.816Z" fill="#E41417"/>
<path d="M906.585 574.005L939.205 576.277C940.762 576.386 941.923 577.783 941.796 579.396L920.613 849.587L885.173 847.118L906.585 574.005Z" fill="#E41417"/>
<path d="M920.509 851.056L885.018 848.588C884.236 848.533 883.657 847.838 883.721 847.028L905.164 573.899C905.227 573.089 905.908 572.481 906.691 572.536L939.357 574.808C941.692 574.97 943.439 577.07 943.249 579.487L922.036 849.693C921.972 850.503 921.292 851.111 920.509 851.056ZM886.66 845.763L919.326 848.036L940.425 579.29C940.488 578.487 939.904 577.785 939.127 577.73L907.873 575.557L886.66 845.763Z" fill="#E41417"/>
<path d="M918.418 580.262L953.357 582.696C953.632 582.715 953.84 582.965 953.817 583.249L932.446 855.844L897.006 853.375L918.418 580.262Z" fill="white"/>
<path d="M932.342 857.313L896.851 854.845C896.068 854.79 895.49 854.095 895.553 853.285L916.996 580.156C917.06 579.346 917.741 578.738 918.523 578.793L953.512 581.226C954.57 581.3 955.357 582.245 955.271 583.339L933.869 855.95C933.805 856.76 933.124 857.368 932.342 857.313ZM898.493 852.02L931.159 854.292L952.372 584.086L919.706 581.813L898.493 852.02Z" fill="#E41417"/>
<path d="M905.331 574.613L917.16 580.42L953.225 583.126L943.54 577.752C941.8 576.787 939.875 576.238 937.895 576.146L905.325 574.613L905.331 574.613Z" fill="white"/>
<path d="M953.098 584.594L953.091 584.593L917.034 581.907C916.857 581.895 916.677 581.844 916.518 581.767L904.693 576.005C904.07 575.7 903.74 574.978 903.922 574.284C904.097 573.589 904.726 573.109 905.422 573.138L937.979 574.659C940.173 574.765 942.321 575.371 944.237 576.426L953.919 581.759C954.527 582.095 954.818 582.822 954.618 583.508C954.418 584.188 953.786 584.641 953.098 584.594ZM917.562 578.922L946.433 581.072L942.833 579.09C941.294 578.244 939.556 577.751 937.805 577.67L912.569 576.49L917.562 578.922Z" fill="#E41417"/>
<path d="M897.357 619.288L861.917 616.819L840.505 889.932L875.945 892.401L897.357 619.288Z" fill="#E41417"/>
<path d="M875.842 893.87L840.351 891.402C839.568 891.347 838.99 890.652 839.053 889.842L860.496 616.713C860.56 615.903 861.241 615.295 862.023 615.35L897.514 617.818C898.296 617.873 898.875 618.568 898.811 619.378L877.369 892.507C877.305 893.317 876.624 893.925 875.842 893.87ZM841.993 888.577L874.659 890.85L895.872 620.643L863.206 618.371L841.993 888.577Z" fill="#E41417"/>
<path d="M909.191 625.545L873.751 623.076L852.339 896.189L887.779 898.658L909.191 625.545Z" fill="white"/>
<path d="M887.675 900.127L852.184 897.659C851.402 897.604 850.823 896.909 850.887 896.099L872.33 622.97C872.393 622.16 873.074 621.552 873.857 621.607L909.347 624.075C910.13 624.13 910.709 624.825 910.645 625.635L889.202 898.764C889.139 899.574 888.458 900.182 887.675 900.127ZM853.826 894.834L886.492 897.106L907.706 626.9L875.039 624.627L853.826 894.834Z" fill="#E41417"/>
<path d="M860.666 617.423L872.495 623.229L908.56 625.934L896.24 619.099L860.666 617.423Z" fill="white"/>
<path d="M908.432 627.401L908.425 627.401L872.368 624.716C872.191 624.704 872.011 624.652 871.852 624.576L860.028 618.814C859.404 618.51 859.075 617.787 859.256 617.093C859.432 616.399 860.06 615.919 860.756 615.947L896.317 617.61C896.544 617.626 896.743 617.679 896.931 617.784L909.252 624.567C909.86 624.903 910.152 625.63 909.952 626.316C909.752 626.995 909.12 627.449 908.432 627.401ZM872.896 621.73L901.767 623.88L895.813 620.604L867.897 619.299L872.89 621.73L872.896 621.73Z" fill="#E41417"/>
<path d="M770.288 903.743L734.839 911.583L682.057 643.534L714.196 636.427C716.026 636.021 717.803 637.199 718.17 639.06L770.288 903.743Z" fill="#E41417"/>
<path d="M734.728 913.055C734.107 913.013 733.564 912.555 733.436 911.903L680.635 643.84C680.56 643.459 680.636 643.063 680.85 642.733C681.064 642.403 681.388 642.176 681.763 642.093L713.91 634.986C716.509 634.409 719.056 636.098 719.579 638.74L771.71 903.437C771.864 904.231 771.363 905.013 770.582 905.184L735.124 913.024C734.99 913.053 734.852 913.063 734.722 913.054L734.728 913.055ZM683.741 644.649L735.974 909.843L768.61 902.628L716.757 639.366C716.544 638.3 715.525 637.619 714.476 637.854L683.741 644.649Z" fill="#E41417"/>
<path d="M730.233 638.7L693.245 646.524L748.328 914.047L785.316 906.223L730.233 638.7Z" fill="white"/>
<path d="M747.823 915.796C747.202 915.754 746.659 915.296 746.531 914.644L693.738 646.584C693.663 646.203 693.739 645.807 693.953 645.477C694.167 645.147 694.491 644.92 694.866 644.837L730.322 636.997C731.104 636.827 731.862 637.331 732.017 638.119L784.809 906.178C784.885 906.559 784.809 906.956 784.595 907.286C784.381 907.616 784.057 907.842 783.682 907.925L748.225 915.765C748.092 915.795 747.954 915.804 747.823 915.796ZM696.843 647.393L749.076 912.585L781.71 905.37L729.478 640.179L696.843 647.393Z" fill="#E41417"/>
<path d="M680.545 644.024L693.217 646.455L728.713 638.767L718.397 636.535C716.172 636.051 713.86 636.089 711.629 636.634L680.545 644.024Z" fill="white"/>
<path d="M693.101 647.932C693.044 647.928 692.987 647.924 692.931 647.907L680.264 645.483C679.59 645.353 679.099 644.754 679.093 644.046C679.086 643.338 679.567 642.715 680.246 642.559L711.318 635.193C713.73 634.603 716.295 634.563 718.713 635.084L729.025 637.31C729.698 637.453 730.175 638.063 730.163 638.77C730.15 639.477 729.657 640.086 728.98 640.235L693.496 647.9C693.361 647.93 693.227 647.94 693.094 647.931L693.101 647.932ZM687.685 643.856L693.229 644.914L721.629 638.782L718.071 638.015C716.071 637.58 713.951 637.612 711.946 638.106L687.685 643.856Z" fill="#E41417"/>
<path d="M858.01 642.154L822.858 635.061L767.2 903.409L802.351 910.502L858.01 642.154Z" fill="#E41417"/>
<path d="M802.284 912.188C802.222 912.184 802.16 912.18 802.1 912.163L766.949 905.061C766.577 904.984 766.253 904.765 766.05 904.439C765.846 904.119 765.772 903.72 765.853 903.337L821.487 634.477C821.649 633.686 822.404 633.165 823.186 633.32L858.337 640.422C859.112 640.577 859.602 641.349 859.44 642.14L803.806 911C803.654 911.728 803 912.231 802.291 912.182L802.284 912.188ZM768.944 902.465L801.298 909.001L856.336 643.017L823.981 636.481L768.944 902.465Z" fill="#E41417"/>
<path d="M868.961 649.871L833.809 642.778L778.151 911.126L813.303 918.219L868.961 649.871Z" fill="white"/>
<path d="M813.224 919.898C813.162 919.893 813.1 919.889 813.04 919.872L777.889 912.77C777.517 912.694 777.193 912.474 776.99 912.148C776.786 911.822 776.712 911.429 776.793 911.046L832.426 642.187C832.589 641.396 833.35 640.874 834.12 641.029L869.27 648.131C869.643 648.207 869.966 648.427 870.17 648.753C870.373 649.072 870.447 649.472 870.367 649.855L814.733 918.714C814.581 919.449 813.927 919.946 813.218 919.897L813.224 919.898ZM779.884 910.175L812.238 916.711L867.276 650.727L834.921 644.19L779.884 910.175Z" fill="#E41417"/>
<path d="M821.967 635.589L832.949 642.825L868.283 650.171L856.937 641.854L821.967 635.589Z" fill="white"/>
<path d="M868.154 651.639C868.091 651.635 868.022 651.63 867.96 651.613L832.638 644.291C832.464 644.253 832.298 644.183 832.148 644.089L821.169 636.875C820.585 636.491 820.354 635.735 820.617 635.071C820.88 634.407 821.539 634.017 822.245 634.137L857.203 640.382C857.415 640.423 857.618 640.508 857.791 640.637L869.133 648.927C869.69 649.335 869.889 650.089 869.602 650.738C869.346 651.324 868.759 651.681 868.154 651.639ZM833.529 641.416L861.816 647.28L856.336 643.278L828.892 638.374L833.528 641.423L833.529 641.416Z" fill="#E41417"/>
<path d="M1022.79 826.372L1042.51 742.387L1003.93 723.041C999.471 720.896 994.153 720.741 989.901 723.164C866.34 793.52 748.724 793.322 639.306 695.861C638.067 694.756 636.265 694.262 634.627 694.758L582.925 711.93L596.406 794.873L1022.8 826.373L1022.79 826.372Z" fill="#E41417"/>
<path d="M976.132 1231.72L630.828 1210.58C605.745 1209.05 586.368 1188.19 586.302 1162.66L585.2 728.054L635.229 719.002C637.307 718.623 639.463 719.202 641.019 720.516C749.957 812.664 867.01 812.299 989.905 745.21C993.293 743.356 997.454 743.071 1001.08 744.51L1039.57 759.779L976.138 1231.72L976.132 1231.72Z" fill="white"/>
<path d="M630.444 1212.04C604.915 1210.34 584.914 1188.71 584.845 1162.69L583.736 728.084C583.732 727.36 584.249 726.729 584.959 726.604L634.988 717.552C637.462 717.102 640.064 717.788 641.949 719.38C745.462 806.942 859.059 814.968 989.224 743.916C993.008 741.851 997.641 741.559 1001.61 743.136L1040.11 758.405C1040.72 758.651 1041.09 759.284 1040.99 759.956L977.56 1231.9C977.453 1232.68 976.776 1233.24 976.012 1233.2L630.707 1212.06C630.619 1212.05 630.525 1212.05 630.437 1212.04L630.444 1212.04ZM586.648 729.283L587.752 1162.63C587.814 1187.13 606.652 1207.5 630.69 1209.1C630.778 1209.11 630.86 1209.11 630.941 1209.12L974.88 1230.17L1037.97 760.74L1000.52 745.886C997.328 744.617 993.606 744.848 990.567 746.508C927.367 781.008 866.656 797.002 810.12 794.053C808.909 793.991 807.688 793.916 806.479 793.835C748.056 789.935 692.093 765.665 640.068 721.661C638.831 720.612 637.105 720.164 635.45 720.457L586.641 729.283L586.648 729.283Z" fill="#E41417"/>
<path d="M592.563 1161.77C591.84 1161.72 591.276 1161.1 591.268 1160.33L589.07 728.563C589.065 727.756 589.692 727.088 590.469 727.073C591.241 727.057 591.882 727.7 591.887 728.508L594.084 1160.28C594.089 1161.09 593.463 1161.75 592.685 1161.77C592.643 1161.77 592.606 1161.76 592.564 1161.76L592.563 1161.77Z" fill="#E41417"/>
<path d="M964.683 1105.28L981.135 1114.48L1161.64 788.101L1151.53 782.453C1148.03 780.491 1143.58 781.804 1141.61 785.377L964.683 1105.28Z" fill="#E41417"/>
<path d="M1145.52 781.083L1139.19 792.479L1223.17 883.291L1236.56 870.628L1154.03 780.012C1151.61 777.353 1147.29 777.894 1145.52 781.083L1145.52 781.083Z" fill="#E41417"/>
<path d="M840.195 985.597L1161.53 1008.23L1164.9 964.79L843.563 942.156L840.195 985.597Z" fill="white"/>
<path d="M1161.41 1009.69L840.093 987.079C839.285 987.022 838.686 986.308 838.751 985.479L842.118 942.08C842.183 941.25 842.885 940.628 843.693 940.685L1165.01 963.298C1165.82 963.355 1166.42 964.068 1166.35 964.898L1162.99 1008.3C1162.92 1009.13 1162.22 1009.75 1161.41 1009.69ZM841.784 984.187L1160.19 1006.59L1163.32 966.19L844.92 943.783L841.784 984.187Z" fill="#E41417"/>
<path d="M872.687 1487.88L1057.13 1499C1073.75 1500 1088.46 1487.76 1090.74 1471.04L1152.38 1018.49L837.829 996.847L837.035 1449.51C836.997 1469.91 852.571 1486.67 872.681 1487.88L872.687 1487.88Z" fill="white"/>
<path d="M872.248 1489.34C851.625 1487.92 835.548 1470.5 835.587 1449.53L836.381 996.866C836.382 996.457 836.552 996.061 836.851 995.782C837.15 995.502 837.546 995.357 837.953 995.385L1152.51 1017.02C1152.91 1017.05 1153.27 1017.24 1153.52 1017.55C1153.78 1017.86 1153.88 1018.27 1153.83 1018.67L1092.19 1471.23C1089.82 1488.67 1074.37 1501.52 1057.05 1500.47L872.598 1489.36C872.486 1489.35 872.373 1489.34 872.266 1489.34L872.248 1489.34ZM872.787 1486.43L1057.24 1497.54C1073.04 1498.49 1087.13 1486.77 1089.3 1470.86L1150.73 1019.85L839.274 998.423L838.481 1449.5C838.448 1469.04 853.499 1485.26 872.781 1486.43L872.787 1486.43Z" fill="#E41417"/>
<path d="M816.697 1013.26L1170.18 1038.67C1175.94 1039.08 1180.96 1034.67 1181.41 1028.81L1183.07 1006.95C1183.51 1001.09 1179.21 996.009 1173.45 995.595L819.969 970.182C814.215 969.768 809.191 974.183 808.746 980.042L807.085 1001.9C806.64 1007.76 810.944 1012.84 816.697 1013.26Z" fill="#E41417"/>
<path d="M1650.41 713.481C1649.79 713.481 1649.17 713.199 1648.77 712.672C1648.07 711.761 1648.25 710.463 1649.15 709.768L1653.93 706.112C1658.43 702.672 1663.78 695.745 1663.83 695.679C1664.52 694.777 1665.82 694.608 1666.73 695.303C1667.63 695.999 1667.81 697.296 1667.11 698.207C1666.87 698.508 1661.37 705.632 1656.44 709.411L1651.66 713.067C1651.29 713.349 1650.85 713.49 1650.4 713.49L1650.41 713.481Z" fill="#E41417"/>
<path d="M1642.29 704.373C1641.54 704.373 1640.83 703.969 1640.45 703.255C1639.92 702.24 1640.32 700.989 1641.33 700.463L1646.67 697.69C1651.7 695.078 1658.16 689.175 1658.22 689.119C1659.07 688.348 1660.38 688.404 1661.15 689.241C1661.92 690.087 1661.86 691.393 1661.02 692.164C1660.73 692.418 1654.09 698.489 1648.58 701.356L1643.24 704.129C1642.94 704.288 1642.61 704.364 1642.29 704.364V704.373Z" fill="#E41417"/>
<path d="M1458.95 606.323C1444.31 608.213 1364.74 624.313 1357.99 713.96C1357.83 716.018 1358.91 717.992 1360.69 719.016L1406.7 745.502C1408.43 746.499 1409.47 748.35 1409.41 750.343C1408.9 766.735 1406.27 841.24 1399.31 872.538C1393.89 896.938 1390.12 916.835 1388.32 926.779C1387.68 930.285 1390.55 933.424 1394.11 933.105C1405.37 932.071 1427.71 929.58 1442.43 925.059C1460.93 919.373 1469.1 908.517 1513.81 927.061C1523.2 930.952 1533.84 930.426 1542.82 925.67C1567.31 912.718 1618.28 889.729 1653.42 901.336C1657.41 902.652 1661.29 899.156 1660.38 895.058C1655.25 872.049 1644.51 827.677 1643.36 804.227C1641.94 774.93 1658.78 677.351 1650.94 667.163C1643.48 657.463 1610.61 635.15 1588.4 629.041C1580.27 626.804 1571.72 626.588 1564.86 624.896C1547.65 620.657 1499.95 601.004 1458.95 606.314V606.323Z" fill="#E41417"/>
<path d="M1393.59 935.21C1391.5 935.21 1389.54 934.355 1388.11 932.795C1386.52 931.065 1385.85 928.744 1386.28 926.432C1388.04 916.694 1391.83 896.684 1397.29 872.106C1404.25 840.808 1406.89 765.146 1407.34 750.296C1407.38 749.074 1406.74 747.928 1405.67 747.317L1359.66 720.83C1357.18 719.402 1355.71 716.648 1355.92 713.819C1363.03 619.36 1448.91 605.543 1458.69 604.284C1491.83 599.998 1529.22 611.775 1551.57 618.805C1557.13 620.554 1561.93 622.067 1565.35 622.913C1568.33 623.646 1571.69 624.097 1575.24 624.576C1579.73 625.178 1584.35 625.798 1588.95 627.067C1611.76 633.336 1644.75 655.715 1652.59 665.922C1657.32 672.078 1654.78 699.335 1650.06 743.491C1647.38 768.483 1644.85 792.093 1645.44 804.152C1646.43 824.312 1654.65 860.498 1660.1 884.447C1660.94 888.15 1661.71 891.58 1662.4 894.635C1662.99 897.286 1662.14 899.964 1660.13 901.778C1658.11 903.602 1655.37 904.184 1652.77 903.329C1618.88 892.135 1569.94 913.687 1543.79 927.531C1534.21 932.607 1522.98 933.142 1513.02 929.007C1476.87 914.006 1465.42 918.527 1452.17 923.753C1449.31 924.881 1446.35 926.056 1443.05 927.061C1428.27 931.601 1406.16 934.111 1394.3 935.191C1394.07 935.21 1393.83 935.22 1393.61 935.22L1393.59 935.21ZM1458.95 606.324L1459.21 608.373C1449.79 609.594 1366.92 622.922 1360.04 714.12C1359.95 715.37 1360.61 716.592 1361.72 717.231L1407.73 743.717C1410.12 745.098 1411.55 747.664 1411.48 750.418C1411.01 765.334 1408.36 841.343 1401.33 872.999C1395.88 897.511 1392.11 917.456 1390.36 927.165C1390.17 928.199 1390.47 929.223 1391.16 929.994C1391.87 930.764 1392.87 931.15 1393.91 931.056C1405.61 929.984 1427.4 927.522 1441.81 923.086C1444.96 922.118 1447.85 920.98 1450.64 919.881C1464.15 914.551 1476.9 909.523 1514.59 925.163C1523.43 928.828 1533.36 928.349 1541.85 923.856C1568.59 909.702 1618.72 887.708 1654.06 899.382C1655.22 899.767 1656.45 899.504 1657.34 898.695C1658.23 897.887 1658.61 896.703 1658.35 895.519C1657.67 892.473 1656.89 889.043 1656.04 885.349C1650.56 861.26 1642.29 824.867 1641.29 804.34C1640.69 791.961 1643.23 768.201 1645.93 743.04C1649.24 712.155 1653.36 673.723 1649.3 668.432C1641.78 658.657 1609.23 636.926 1587.85 631.043C1583.51 629.849 1579.03 629.248 1574.69 628.665C1571.02 628.167 1567.55 627.706 1564.36 626.917C1560.81 626.043 1555.95 624.51 1550.32 622.744C1528.29 615.807 1491.46 604.209 1459.21 608.382L1458.95 606.333V606.324Z" fill="white"/>
<path d="M1380.27 824.707C1393.96 845.14 1409.79 851.654 1444.3 842.753C1478.8 833.852 1551.97 781.472 1588.15 731.583C1588.15 731.583 1590.64 727.006 1597.7 727.842C1604.77 728.669 1633.87 739.901 1655.49 720.774C1677.11 701.647 1671.95 687.934 1670.87 685.34C1669.04 680.941 1636.79 686.562 1628.05 682.671C1619.32 678.78 1619.43 672.746 1625.98 663.817C1633.8 653.158 1616.36 650.733 1603.11 669.635C1595.05 681.129 1581.49 696.243 1569.23 702.456C1556.55 708.866 1427.66 755.259 1421.01 753.191C1414.36 751.123 1372.51 725.831 1372.51 725.831C1372.51 725.831 1365.36 802.451 1380.27 824.707Z" fill="white"/>
<path d="M1418.51 848.693C1400.93 848.693 1389.01 841.484 1378.55 825.854C1363.41 803.24 1370.16 728.791 1370.45 725.633C1370.51 724.928 1370.94 724.299 1371.58 723.979C1372.22 723.659 1372.97 723.688 1373.58 724.054C1385.16 731.056 1416.36 749.572 1421.63 751.208C1428.89 752.082 1553.16 708.264 1568.3 700.604C1580.39 694.485 1593.7 679.456 1601.42 668.441C1609.15 657.407 1618.48 653.017 1624.29 653.572C1626.82 653.816 1628.68 654.982 1629.53 656.871C1630.24 658.459 1630.49 661.157 1627.65 665.038C1624.18 669.766 1622.83 673.3 1623.5 675.857C1624.01 677.783 1625.78 679.391 1628.9 680.782C1632.76 682.502 1642.76 682.107 1651.59 681.759C1664.91 681.233 1671.37 681.139 1672.78 684.541C1674.95 689.748 1677.73 703.865 1656.87 722.315C1637.81 739.177 1613.64 733.547 1602.02 730.831C1600.03 730.37 1598.46 730.004 1597.47 729.881C1592 729.242 1590.04 732.447 1589.95 732.588C1589.91 732.645 1589.87 732.729 1589.82 732.786C1554.01 782.177 1480.16 835.629 1444.81 844.746C1434.77 847.34 1426.11 848.684 1418.51 848.684V848.693ZM1374.29 729.318C1373.16 744.158 1369.39 804.734 1381.99 823.551C1393.97 841.446 1407.93 849.99 1443.78 840.742C1478.45 831.794 1551.06 779.151 1586.42 730.427C1586.99 729.496 1590.26 724.872 1597.95 725.774C1599.16 725.915 1600.83 726.31 1602.95 726.799C1613.89 729.346 1636.65 734.656 1654.13 719.214C1672.68 702.794 1670.85 690.904 1669.05 686.346C1667.25 685.284 1658.32 685.631 1651.76 685.895C1642.03 686.28 1631.97 686.675 1627.22 684.56C1622.88 682.624 1620.36 680.124 1619.5 676.919C1618.47 673.028 1620 668.469 1624.31 662.595C1625.8 660.574 1626.03 659.192 1625.76 658.572C1625.47 657.923 1624.37 657.745 1623.91 657.707C1620.17 657.35 1612.02 660.555 1604.82 670.828C1596.83 682.229 1582.96 697.841 1570.18 704.307C1562.56 708.161 1428.99 757.815 1420.41 755.165C1414.57 753.351 1383.96 735.117 1374.31 729.327L1374.29 729.318Z" fill="#E41417"/>
<path d="M1648.6 725.661L1648.1 730.248L1645.24 756.725C1642.28 780.034 1644.58 799.029 1644.58 799.029C1644.53 806.351 1649 814.97 1654.48 819.81C1660.81 825.393 1664.12 826.54 1669.28 828.42C1688.68 835.478 1697.14 833.298 1704.19 813.25C1711.23 793.202 1708.74 780.777 1692.17 718.631C1692.17 718.631 1687.62 706.084 1700.46 697.653C1711.87 690.162 1708.1 672.163 1697.59 658.544C1680.8 636.814 1645.6 722.767 1648.62 725.661H1648.6Z" fill="white"/>
<path d="M1685.34 834.162C1680.94 834.162 1675.58 832.922 1668.57 830.365L1668.33 830.271C1663.28 828.438 1659.63 827.113 1653.12 821.361C1646.87 815.844 1642.52 806.727 1642.52 799.142C1642.3 797.281 1640.33 779.01 1643.19 756.462L1646.49 726.019C1646.17 724.891 1646.4 723.002 1647.54 719.176C1651.29 706.619 1672.13 656.363 1689.53 653.13C1692.11 652.651 1695.89 652.98 1699.21 657.284C1706.83 667.134 1710.64 678.695 1709.18 687.445C1708.32 692.558 1705.7 696.694 1701.59 699.391C1690.33 706.788 1693.96 717.494 1694.12 717.945C1711.14 781.745 1713.34 793.456 1706.14 813.945C1702.53 824.218 1698.49 829.952 1693.03 832.536C1690.75 833.617 1688.25 834.162 1685.34 834.162ZM1650.49 724.797C1650.64 725.135 1650.71 725.502 1650.67 725.878L1647.3 756.95C1644.41 779.752 1646.63 798.597 1646.65 798.785C1646.65 798.87 1646.66 798.954 1646.66 799.048C1646.63 805.439 1650.5 813.522 1655.87 818.269C1661.79 823.495 1664.79 824.585 1669.75 826.389L1669.99 826.484C1680.5 830.309 1686.67 830.976 1691.26 828.805C1695.64 826.737 1699.03 821.728 1702.24 812.583C1709.04 793.211 1706.86 781.754 1690.18 719.186C1690.18 719.186 1685.29 705.153 1699.33 695.942C1702.49 693.865 1704.43 690.782 1705.11 686.778C1706.38 679.127 1702.88 668.798 1695.95 659.831C1693.9 657.181 1691.72 656.514 1688.86 657.642C1672.96 663.948 1650.5 718.857 1650.5 724.816L1650.49 724.797Z" fill="#E41417"/>
<path d="M1660.13 684.945C1660.13 684.945 1631.63 688 1622.8 681.026C1616.26 675.866 1628.47 660.414 1629.39 659.202C1637.12 649.004 1655.17 625.253 1657.87 621.879C1660.3 618.833 1664.94 611.568 1671.02 612.104C1677.09 612.64 1710.69 618.166 1713.14 619.247C1718.26 621.503 1716.1 628.627 1712.35 632.546C1708.6 636.475 1660.13 684.945 1660.13 684.945Z" fill="#E41417"/>
<path d="M1646.58 687.68C1637.62 687.68 1626.7 686.74 1621.52 682.652C1614.61 677.201 1622.39 664.926 1627.63 658.102C1633.71 650.094 1653.41 624.144 1656.25 620.591C1656.53 620.243 1656.84 619.83 1657.18 619.379C1660 615.675 1664.72 609.472 1671.19 610.045C1676.29 610.497 1710.96 616.033 1713.97 617.358C1716.19 618.335 1717.6 620.083 1718.07 622.405C1718.88 626.494 1716.54 631.165 1713.85 633.984C1710.13 637.885 1663.57 684.438 1661.6 686.412C1661.27 686.75 1660.83 686.957 1660.36 687.004C1659.82 687.06 1653.85 687.68 1646.58 687.68ZM1670.4 614.143C1666.36 614.143 1662.7 618.965 1660.48 621.879C1660.11 622.358 1659.78 622.79 1659.48 623.166C1656.67 626.682 1637 652.594 1631.03 660.452C1625.16 668.102 1620.81 676.815 1624.08 679.4C1630.58 684.532 1650.95 683.761 1659.18 682.962C1664.44 677.718 1707.37 634.765 1710.85 631.127C1713.08 628.787 1714.44 625.394 1714.01 623.213C1713.81 622.226 1713.26 621.568 1712.3 621.146C1709.97 620.234 1677.4 614.754 1670.83 614.172C1670.68 614.162 1670.54 614.153 1670.39 614.153L1670.4 614.143Z" fill="white"/>
<path d="M1422.65 922.061C1422.65 922.061 1395.13 1150.9 1391.74 1195.04C1388.34 1239.19 1383.25 1393.7 1391.74 1470.11C1397.24 1519.62 1401.05 1552.72 1403.05 1569.9C1403.98 1577.87 1410.73 1583.87 1418.75 1583.87H1474.83C1477.7 1583.87 1480.03 1581.57 1480.07 1578.71C1480.32 1558.09 1482.16 1479.59 1495.3 1412.37C1510.59 1334.27 1527.56 1212.02 1536.06 1162.78C1538.89 1146.35 1541.27 1128.07 1543.29 1110.19L1549.64 1128.82C1555.99 1147.45 1580.2 1273.14 1586.99 1322.38C1593.17 1367.16 1603.56 1546.83 1605.39 1578.94C1605.55 1581.71 1607.85 1583.87 1610.62 1583.87H1682.44C1685.12 1583.87 1687.38 1581.84 1687.64 1579.16C1690.98 1545.86 1710.65 1344.65 1707.54 1254.47C1704.15 1155.99 1660 1038.83 1651.5 1006.58C1643.02 974.319 1631.63 892.501 1631.63 892.501C1631.63 892.501 1459.46 895.096 1422.63 922.061H1422.65Z" fill="white"/>
<path d="M1682.45 1585.93H1610.63C1606.76 1585.93 1603.55 1582.92 1603.33 1579.05C1601.34 1544.02 1591.07 1367.04 1584.95 1322.66C1578.05 1272.61 1554.02 1148.04 1547.68 1129.49L1544.29 1119.54C1542.3 1136.27 1540.26 1150.6 1538.1 1163.13C1535.15 1180.24 1531.18 1206.11 1526.59 1236.05C1518 1292.08 1507.32 1361.8 1497.34 1412.78C1484.33 1479.3 1482.42 1556.62 1482.15 1578.73C1482.1 1582.71 1478.82 1585.94 1474.84 1585.94H1418.76C1409.69 1585.94 1402.06 1579.15 1401 1570.14C1399.2 1554.64 1395.33 1521.07 1389.69 1470.34C1381.43 1395.95 1385.94 1243.55 1389.69 1194.88C1393.04 1151.2 1420.34 924.1 1420.61 921.816C1420.68 921.243 1420.98 920.736 1421.45 920.397C1458.38 893.357 1624.58 890.546 1631.63 890.443C1631.64 890.443 1631.65 890.443 1631.66 890.443C1632.7 890.443 1633.57 891.204 1633.71 892.229C1633.82 893.046 1645.19 974.291 1653.54 1006.06C1655.24 1012.47 1658.35 1022.29 1662.29 1034.72C1677.89 1083.87 1706.92 1175.36 1709.65 1254.41C1712.74 1343.98 1693.6 1540.82 1689.74 1579.37C1689.36 1583.12 1686.24 1585.94 1682.47 1585.94L1682.45 1585.93ZM1543.29 1108.12C1544.17 1108.12 1544.97 1108.68 1545.25 1109.52L1551.6 1128.15C1557.98 1146.85 1582.13 1271.92 1589.05 1322.1C1595.2 1366.64 1605.47 1543.76 1607.46 1578.82C1607.55 1580.48 1608.95 1581.79 1610.62 1581.79H1682.44C1684.07 1581.79 1685.42 1580.57 1685.58 1578.94C1689.45 1540.43 1708.56 1343.84 1705.47 1254.53C1702.77 1176.06 1673.85 1084.91 1658.31 1035.95C1654.34 1023.46 1651.22 1013.6 1649.5 1007.08C1641.79 977.749 1631.57 906.863 1629.83 894.588C1611.4 894.973 1459.83 898.855 1424.58 923.198C1422.68 939.016 1397.03 1152.99 1393.78 1195.18C1390.05 1243.73 1385.53 1395.74 1393.78 1469.86C1399.42 1520.57 1403.28 1554.15 1405.09 1569.64C1405.9 1576.55 1411.77 1581.78 1418.74 1581.78H1474.82C1476.54 1581.78 1477.96 1580.38 1477.99 1578.66C1478.26 1556.46 1480.19 1478.83 1493.27 1411.96C1503.23 1361.06 1513.91 1291.39 1522.49 1235.4C1527.09 1205.44 1531.06 1179.55 1534.01 1162.41C1536.54 1147.74 1538.9 1130.58 1541.22 1109.94C1541.33 1108.99 1542.09 1108.22 1543.05 1108.12C1543.13 1108.12 1543.2 1108.11 1543.28 1108.11L1543.29 1108.12Z" fill="#E41417"/>
<path d="M1543.37 1111.65C1543.29 1111.65 1543.21 1111.65 1543.13 1111.64C1542 1111.5 1541.18 1110.48 1541.31 1109.34C1542.47 1099.14 1543.58 1088.25 1544.63 1077.02C1546.71 1054.9 1561.52 1035.62 1582.38 1027.9L1594.77 1023.31C1595.85 1022.92 1597.04 1023.47 1597.43 1024.54C1597.83 1025.61 1597.28 1026.8 1596.21 1027.2L1583.81 1031.78C1564.44 1038.95 1550.67 1056.87 1548.75 1077.41C1547.69 1088.67 1546.57 1099.57 1545.42 1109.81C1545.3 1110.87 1544.4 1111.66 1543.36 1111.66L1543.37 1111.65Z" fill="#E41417"/>
<path d="M1666.67 1583.85H1620.91C1617.67 1583.85 1614.75 1585.79 1613.5 1588.79C1609.44 1598.66 1601.18 1621.72 1602.29 1643.6C1602.59 1649.57 1607.56 1654.25 1613.55 1654.25H1747.83C1754.01 1654.25 1758.7 1648.62 1757.47 1642.56C1755.98 1635.32 1750.88 1625.79 1736.16 1617.22C1712.32 1603.35 1682.36 1589.49 1672.92 1585.19C1670.96 1584.3 1668.84 1583.84 1666.68 1583.84L1666.67 1583.85Z" fill="white"/>
<path d="M1747.83 1656.33H1613.55C1606.44 1656.33 1600.59 1650.79 1600.22 1643.71C1599.08 1621.16 1607.79 1597.24 1611.59 1588.01C1613.14 1584.22 1616.79 1581.78 1620.9 1581.78H1666.67C1669.13 1581.78 1671.52 1582.3 1673.75 1583.31C1682.54 1587.31 1713.1 1601.42 1737.19 1615.44C1752.98 1624.63 1758.03 1635.03 1759.48 1642.15C1760.18 1645.62 1759.31 1649.19 1757.05 1651.94C1754.78 1654.72 1751.42 1656.32 1747.82 1656.32L1747.83 1656.33ZM1620.91 1585.91C1618.5 1585.91 1616.33 1587.35 1615.42 1589.58C1611.73 1598.56 1603.26 1621.78 1604.36 1643.5C1604.6 1648.38 1608.65 1652.2 1613.55 1652.2H1747.83C1750.18 1652.2 1752.37 1651.15 1753.87 1649.34C1755.33 1647.55 1755.9 1645.24 1755.44 1642.99C1754.15 1636.71 1749.58 1627.45 1735.11 1619.03C1711.19 1605.12 1680.79 1591.07 1672.04 1587.09C1670.34 1586.32 1668.54 1585.92 1666.67 1585.92H1620.9L1620.91 1585.91Z" fill="#E41417"/>
<path d="M1672.89 1615.95C1672.35 1615.95 1671.82 1615.75 1671.41 1615.33C1670.61 1614.52 1670.62 1613.21 1671.44 1612.41L1690.7 1593.46C1691.51 1592.66 1692.82 1592.67 1693.62 1593.49C1694.42 1594.31 1694.41 1595.61 1693.59 1596.41L1674.33 1615.36C1673.93 1615.76 1673.4 1615.95 1672.89 1615.95Z" fill="#E41417"/>
<path d="M1685.3 1623.72C1684.77 1623.72 1684.23 1623.51 1683.83 1623.1C1683.03 1622.28 1683.04 1620.97 1683.86 1620.17L1703.11 1601.23C1703.92 1600.43 1705.24 1600.44 1706.04 1601.25C1706.84 1602.07 1706.83 1603.38 1706.01 1604.18L1686.75 1623.13C1686.35 1623.52 1685.82 1623.72 1685.3 1623.72Z" fill="#E41417"/>
<path d="M1464.74 1583.85H1418.98C1415.73 1583.85 1412.81 1585.79 1411.57 1588.79C1407.51 1598.66 1399.25 1621.72 1400.36 1643.6C1400.66 1649.57 1405.63 1654.25 1411.62 1654.25H1545.9C1552.07 1654.25 1556.76 1648.62 1555.53 1642.56C1554.05 1635.32 1548.94 1625.79 1534.22 1617.22C1510.38 1603.35 1480.42 1589.49 1470.97 1585.19C1469.01 1584.3 1466.89 1583.84 1464.74 1583.84V1583.85Z" fill="white"/>
<path d="M1545.91 1656.33H1411.63C1404.51 1656.33 1398.66 1650.79 1398.3 1643.71C1397.15 1621.16 1405.86 1597.24 1409.66 1588.01C1411.22 1584.22 1414.88 1581.78 1418.98 1581.78H1464.74C1467.2 1581.78 1469.59 1582.3 1471.83 1583.31C1480.62 1587.31 1511.18 1601.43 1535.26 1615.44C1551.05 1624.63 1556.11 1635.03 1557.55 1642.15C1558.26 1645.62 1557.38 1649.19 1555.13 1651.94C1552.85 1654.72 1549.49 1656.32 1545.9 1656.32L1545.91 1656.33ZM1418.98 1585.91C1416.57 1585.91 1414.41 1587.35 1413.5 1589.58C1409.8 1598.56 1401.33 1621.78 1402.43 1643.49C1402.68 1648.37 1406.72 1652.19 1411.63 1652.19H1545.91C1548.26 1652.19 1550.45 1651.14 1551.93 1649.33C1553.39 1647.54 1553.96 1645.23 1553.5 1642.99C1552.21 1636.7 1547.65 1627.43 1533.17 1619.02C1509.27 1605.11 1478.86 1591.06 1470.11 1587.08C1468.4 1586.31 1466.6 1585.91 1464.73 1585.91H1418.97H1418.98Z" fill="#E41417"/>
<path d="M1465.82 1614.3C1465.28 1614.3 1464.75 1614.09 1464.34 1613.68C1463.54 1612.86 1463.55 1611.56 1464.37 1610.76L1483.63 1591.81C1484.44 1591.01 1485.75 1591.02 1486.55 1591.84C1487.35 1592.65 1487.34 1593.96 1486.53 1594.76L1467.27 1613.71C1466.86 1614.1 1466.34 1614.3 1465.82 1614.3Z" fill="#E41417"/>
<path d="M1478.24 1622.06C1477.7 1622.06 1477.16 1621.86 1476.76 1621.44C1475.96 1620.62 1475.97 1619.32 1476.79 1618.52L1496.05 1599.57C1496.85 1598.77 1498.17 1598.78 1498.97 1599.6C1499.77 1600.42 1499.76 1601.72 1498.94 1602.52L1479.68 1621.47C1479.28 1621.87 1478.75 1622.06 1478.24 1622.06Z" fill="#E41417"/>
<path d="M1517.48 493.189C1518.48 493.527 1519.54 493.96 1520.68 494.514C1520.68 494.514 1523.22 496.065 1525.54 500.313C1527.86 504.561 1531.72 517.711 1536.75 516.93C1541.78 516.16 1547.97 495.67 1547.97 495.67C1547.97 495.67 1549.9 485.623 1565.36 489.486C1580.82 493.349 1592.81 499.918 1597.45 502.625C1602.09 505.332 1606.34 506.103 1610.98 505.718C1615.62 505.332 1630.7 496.441 1627.99 482.136C1625.28 467.83 1612.13 458.112 1600.54 458.168C1588.48 458.234 1571.16 450.433 1568.07 448.892C1564.98 447.35 1546.78 439.888 1536.87 445.414C1528.02 450.349 1520.59 458.168 1516.55 471.703C1513.97 480.34 1515.95 488.264 1516.23 490.867C1516.33 491.892 1516.52 492.86 1517.49 493.189H1517.48Z" fill="#E41417"/>
<path d="M1599.39 504.063C1599.68 504.223 1599.85 504.533 1599.83 504.862C1599.67 507.221 1599.14 516.987 1600.62 525.793C1601.44 530.653 1604.56 542.467 1603.24 544.901C1601.93 547.336 1597.06 547.524 1594.81 547.336C1592.56 547.148 1588.81 548.088 1587.87 549.958C1586.93 551.828 1584.12 569.254 1583.01 573.38C1581.88 577.506 1578.14 582.375 1571.2 581.623C1570.32 581.529 1567.72 580.946 1565.71 580.476C1564.25 580.138 1562.8 581.106 1562.56 582.591C1559.24 603.748 1580.62 627.593 1585.76 633.026C1586.29 633.59 1586.1 634.511 1585.39 634.821C1537.98 655.517 1489.19 619.792 1475.87 608.692C1475.27 608.194 1500.77 601.295 1512.96 571.98C1518.32 559.084 1516.53 539.027 1516.72 531.057C1516.76 529.45 1515.86 527.965 1514.4 527.297C1511.2 525.822 1506.54 520.915 1505.19 516.084C1503.26 509.129 1504.03 486.938 1522.41 495.83C1522.41 495.83 1524.95 497.381 1527.27 501.629C1529.59 505.877 1533.45 519.026 1538.48 518.246C1543.51 517.475 1549.7 496.986 1549.7 496.986C1549.7 496.986 1551.63 486.938 1567.09 490.801C1581.04 494.288 1596.51 502.503 1599.4 504.073L1599.39 504.063Z" fill="white"/>
<path d="M1554.46 643.289C1517.66 643.289 1485.39 619.313 1474.54 610.28C1473.99 609.82 1473.71 609.087 1473.81 608.372C1473.99 607.141 1474.8 606.784 1476.41 606.07C1492.74 598.917 1504.39 587.178 1511.05 571.171C1515.16 561.265 1514.88 546.772 1514.7 537.176C1514.66 534.723 1514.62 532.608 1514.66 530.982C1514.68 530.192 1514.23 529.478 1513.54 529.149C1509.74 527.401 1504.68 521.94 1503.2 516.611C1501.78 511.507 1501.7 499.251 1507.91 494.063C1510.53 491.873 1515.32 490.078 1523.32 493.941C1523.81 494.223 1526.57 496.008 1529.09 500.614C1529.69 501.723 1530.35 503.264 1531.1 505.06C1532.55 508.49 1535.94 516.526 1538.17 516.178C1540.14 515.812 1544.68 506.413 1547.69 496.431C1547.87 495.689 1548.86 492.249 1552.48 489.946C1556.18 487.587 1561.27 487.192 1567.59 488.771C1581.76 492.315 1597.39 500.604 1600.37 502.23C1601.37 502.776 1601.96 503.856 1601.89 504.984C1601.76 506.874 1601.19 516.742 1602.66 525.436C1602.87 526.649 1603.21 528.294 1603.6 530.117C1605.53 539.29 1606.21 543.736 1605.06 545.87C1602.91 549.864 1596 549.498 1594.64 549.385C1592.73 549.225 1590.1 550.137 1589.73 550.87C1589.29 551.875 1588.07 558.389 1587.19 563.145C1586.33 567.713 1585.52 572.027 1585.02 573.907C1583.53 579.358 1578.59 584.49 1570.99 583.663C1570.69 583.634 1569.79 583.531 1565.26 582.469C1565.07 582.422 1564.92 582.497 1564.85 582.544C1564.76 582.601 1564.66 582.704 1564.62 582.892C1561.53 602.536 1581.18 625.131 1587.28 631.588C1587.99 632.34 1588.29 633.392 1588.08 634.407C1587.87 635.422 1587.19 636.278 1586.24 636.701C1575.54 641.372 1564.83 643.27 1554.47 643.27L1554.46 643.289ZM1479.7 609.143C1495.66 621.832 1539.77 651.551 1583.33 633.458C1576.06 625.544 1557.29 602.836 1560.52 582.272C1560.73 581.003 1561.45 579.856 1562.52 579.132C1563.6 578.409 1564.94 578.164 1566.19 578.456C1570.17 579.386 1571.21 579.536 1571.43 579.565C1577.01 580.166 1580.06 576.313 1581.01 572.835C1581.48 571.115 1582.31 566.688 1583.11 562.402C1584.68 554.018 1585.43 550.231 1586.02 549.037C1587.5 546.086 1592.22 545.043 1594.98 545.277C1597.88 545.522 1600.9 544.883 1601.42 543.924C1601.96 542.42 1600.34 534.704 1599.55 530.991C1599.15 529.102 1598.79 527.391 1598.58 526.141C1597.2 517.936 1597.51 509.035 1597.71 505.511C1593.59 503.302 1579.41 496.008 1566.59 492.803C1561.48 491.525 1557.37 491.751 1554.7 493.452C1552.23 495.022 1551.73 497.343 1551.73 497.371C1551.72 497.437 1551.7 497.512 1551.67 497.578C1549.7 504.11 1544.49 519.412 1538.79 520.286C1533.42 521.113 1530 513.114 1527.28 506.676C1526.6 505.06 1525.95 503.528 1525.45 502.606C1523.66 499.336 1521.76 497.888 1521.39 497.616C1516.63 495.341 1512.98 495.219 1510.56 497.249C1506.06 501.009 1505.97 511.131 1507.18 515.511C1508.4 519.882 1512.71 524.215 1515.27 525.399C1517.47 526.414 1518.86 528.651 1518.79 531.095C1518.75 532.664 1518.79 534.722 1518.84 537.1C1519.04 547.035 1519.33 562.055 1514.87 572.76C1508.01 589.255 1496.19 601.474 1479.7 609.124V609.143Z" fill="#E41417"/>
<path d="M1564.41 582.206C1564.23 582.206 1564.02 582.178 1563.83 582.121C1557.47 580.242 1547.23 575.852 1539.99 571.096C1539.03 570.467 1538.76 569.189 1539.39 568.23C1540.02 567.271 1541.31 567.008 1542.26 567.638C1549.16 572.177 1558.93 576.36 1565.01 578.155C1566.11 578.475 1566.73 579.631 1566.41 580.73C1566.14 581.633 1565.32 582.215 1564.42 582.215L1564.41 582.206Z" fill="#E41417"/>
<path d="M446.846 1599.6C446.846 1599.6 441.291 1639.07 454.074 1655.75L457.937 1662.81L393.432 1655.21L397.013 1648.33C403.386 1636.09 406.581 1622.76 406.346 1609.44L446.837 1599.59L446.846 1599.6Z" fill="white"/>
<path d="M457.937 1664.88C457.852 1664.88 457.777 1664.88 457.693 1664.86L393.188 1657.26C392.511 1657.19 391.919 1656.77 391.6 1656.17C391.28 1655.57 391.28 1654.86 391.6 1654.25L395.181 1647.37C401.365 1635.48 404.514 1622.37 404.288 1609.47C404.269 1608.5 404.927 1607.65 405.867 1607.42L446.358 1597.57C447.025 1597.41 447.73 1597.59 448.237 1598.05C448.745 1598.51 448.989 1599.2 448.895 1599.87C448.839 1600.26 443.604 1638.68 455.709 1654.47C455.775 1654.56 455.832 1654.64 455.879 1654.73L459.742 1661.79C460.108 1662.47 460.071 1663.31 459.638 1663.95C459.253 1664.52 458.604 1664.86 457.918 1664.86L457.937 1664.88ZM396.656 1653.51L454.196 1660.28L452.335 1656.87C441.245 1642.2 443.406 1611.99 444.44 1602.31L408.442 1611.07C408.395 1624.12 405.096 1637.3 398.865 1649.28L396.666 1653.5L396.656 1653.51Z" fill="#E41417"/>
<path d="M455.267 1633.91L461.706 1641.44C474.451 1656.37 490.626 1667.97 508.851 1675.24L522.855 1680.83C524.19 1681.37 525.167 1682.53 525.477 1683.93L525.637 1684.64C527.385 1692.56 517.939 1710.36 489.038 1715.89C471.161 1719.32 429.496 1720.86 379.681 1700.59C376.533 1699.31 374.578 1696.14 374.879 1692.75C375.959 1680.41 379.681 1651.01 391.157 1636.66C392.436 1635.06 394.785 1634.87 396.242 1636.3L410.275 1650.08C416.572 1656.27 426.695 1656.15 432.851 1649.84L448.575 1633.69C450.436 1631.78 453.538 1631.88 455.267 1633.91Z" fill="white"/>
<path d="M463.774 1720C443.707 1720 413.847 1716.73 378.902 1702.51C374.888 1700.87 372.435 1696.88 372.82 1692.57C373.901 1680.32 377.68 1650.2 389.541 1635.36C390.528 1634.13 391.994 1633.37 393.554 1633.27C395.086 1633.18 396.6 1633.74 397.699 1634.82L411.723 1648.6C414.373 1651.2 417.869 1652.59 421.591 1652.57C425.304 1652.53 428.772 1651.04 431.366 1648.38L447.091 1632.23C448.378 1630.91 450.164 1630.17 452.034 1630.24C453.886 1630.3 455.634 1631.14 456.837 1632.55L463.276 1640.09C475.748 1654.7 491.773 1666.19 509.612 1673.32L523.616 1678.91C525.59 1679.7 527.038 1681.41 527.498 1683.48L527.658 1684.19C528.523 1688.1 527.179 1693.13 523.964 1698C520.223 1703.68 510.759 1713.82 489.423 1717.92C486.124 1718.55 477.12 1720 463.774 1720ZM393.874 1637.4C393.874 1637.4 393.818 1637.4 393.799 1637.4C393.395 1637.43 393.028 1637.62 392.774 1637.95C381.618 1651.9 377.99 1681.05 376.937 1692.93C376.721 1695.41 378.131 1697.72 380.462 1698.66C437.569 1721.91 480.607 1715.39 488.643 1713.85C508.484 1710.05 517.122 1700.86 520.505 1695.72C523.513 1691.15 524.086 1687.23 523.607 1685.08L523.447 1684.37C523.288 1683.64 522.771 1683.03 522.075 1682.75L508.071 1677.16C489.611 1669.78 473.032 1657.9 460.117 1642.78L453.679 1635.24C453.228 1634.7 452.589 1634.4 451.884 1634.38C451.179 1634.35 450.531 1634.62 450.042 1635.12L434.317 1651.27C430.953 1654.72 426.441 1656.65 421.62 1656.71C416.779 1656.77 412.249 1654.93 408.809 1651.55L394.786 1637.77C394.466 1637.46 394.1 1637.39 393.874 1637.39V1637.4Z" fill="#E41417"/>
<path d="M449.948 1694.15H449.892C428.471 1693.97 407.7 1689.43 388.16 1680.64L377.219 1675.71C376.176 1675.24 375.715 1674.02 376.176 1672.98C376.646 1671.93 377.868 1671.47 378.911 1671.93L389.851 1676.86C408.865 1685.41 429.073 1689.83 449.92 1690.01H449.939C450.662 1690.01 451.32 1689.67 451.753 1689.09C452.185 1688.5 452.307 1687.76 452.072 1687.07L450.23 1681.43C449.506 1679.21 450.145 1676.86 451.884 1675.31C453.632 1673.76 456.029 1673.4 458.153 1674.39L463.623 1676.92C479.301 1684.17 497.516 1684.7 513.588 1678.36L516.746 1677.12C517.808 1676.7 519.011 1677.23 519.434 1678.29C519.857 1679.35 519.331 1680.55 518.269 1680.98L515.111 1682.22C497.995 1688.97 478.586 1688.41 461.885 1680.68L456.414 1678.15C455.503 1677.72 454.817 1678.24 454.638 1678.41C454.45 1678.58 453.858 1679.2 454.168 1680.15L456.01 1685.79C456.659 1687.76 456.32 1689.87 455.089 1691.54C453.877 1693.2 451.997 1694.15 449.939 1694.15H449.948Z" fill="#E41417"/>
<path d="M162.436 1522.61C162.436 1522.61 135.282 1552.77 135.16 1574.16L133.947 1582.32L87.1973 1531.66L94.5378 1529.41C106.456 1522.71 118.721 1519.17 126.297 1507.8L162.426 1522.61H162.436Z" fill="white"/>
<path d="M133.957 1584.39C133.383 1584.39 132.838 1584.16 132.434 1583.73L85.684 1533.07C85.2047 1532.54 85.0167 1531.81 85.2047 1531.12C85.3927 1530.43 85.919 1529.89 86.5957 1529.68L93.7295 1527.49C96.662 1525.85 99.6226 1524.39 102.48 1522.98C111.08 1518.74 119.201 1514.74 124.586 1506.64C125.131 1505.83 126.184 1505.51 127.096 1505.87L163.225 1520.69C163.845 1520.94 164.306 1521.49 164.456 1522.14C164.607 1522.8 164.428 1523.49 163.977 1523.99C163.714 1524.28 137.35 1553.81 137.237 1574.15C137.237 1574.24 137.237 1574.35 137.218 1574.44L136.006 1582.61C135.893 1583.4 135.329 1584.04 134.568 1584.28C134.37 1584.35 134.164 1584.37 133.957 1584.37V1584.39ZM90.9568 1532.68L132.538 1577.74L133.092 1573.99C133.299 1555.25 152.679 1530.87 158.977 1523.43L127.049 1510.34C121.099 1518.41 112.931 1522.44 104.303 1526.7C101.437 1528.12 98.4665 1529.58 95.5623 1531.21C95.4307 1531.29 95.2991 1531.35 95.1581 1531.39L90.9568 1532.68Z" fill="#E41417"/>
<path d="M144.812 1564.33L143.149 1574.26C139.859 1593.94 141.4 1614.13 147.651 1633.08L152.454 1647.64C152.914 1649.03 152.651 1650.55 151.758 1651.71L151.307 1652.3C146.279 1658.84 126.249 1663.12 103.034 1644.23C88.6726 1632.54 60.2221 1601.09 43.4451 1549.04C42.383 1545.75 43.5767 1542.16 46.4057 1540.18C56.7257 1532.95 82.0558 1516.63 100.741 1516.18C102.818 1516.13 104.51 1517.83 104.35 1519.91L102.79 1539.84C102.085 1548.79 108.796 1556.6 117.743 1557.27L140.602 1558.96C143.308 1559.16 145.254 1561.64 144.812 1564.32V1564.33Z" fill="white"/>
<path d="M135.93 1659.92C128.308 1659.92 116.089 1657.52 101.737 1645.83C95.1109 1640.45 61.0869 1610.48 41.4902 1549.68C40.1367 1545.5 41.65 1541 45.2403 1538.49C55.4946 1531.32 81.4167 1514.58 100.713 1514.12C102.329 1514.08 103.852 1514.72 104.942 1515.87C106.014 1516.99 106.549 1518.52 106.427 1520.08L104.867 1540.01C104.566 1543.79 105.769 1547.45 108.232 1550.32C110.694 1553.2 114.134 1554.93 117.913 1555.21L140.771 1556.9C142.641 1557.04 144.371 1557.96 145.536 1559.44C146.692 1560.91 147.181 1562.82 146.871 1564.66L145.207 1574.6C141.983 1593.88 143.515 1613.88 149.634 1632.43L154.437 1646.99C155.114 1649.03 154.728 1651.27 153.422 1652.97L152.971 1653.56C150.499 1656.77 145.705 1659.01 139.831 1659.7C138.722 1659.83 137.425 1659.91 135.949 1659.91L135.93 1659.92ZM100.844 1518.24C100.844 1518.24 100.816 1518.24 100.807 1518.24C82.6386 1518.68 57.5529 1534.91 47.6089 1541.87C45.5223 1543.34 44.6388 1545.96 45.4283 1548.4C64.6679 1608.1 97.8836 1637.36 104.35 1642.62C120.291 1655.59 133.111 1656.31 139.333 1655.59C144.878 1654.94 148.309 1652.82 149.672 1651.04L150.123 1650.45C150.593 1649.84 150.734 1649.03 150.489 1648.29L145.686 1633.73C139.361 1614.53 137.773 1593.85 141.109 1573.91L142.773 1563.98C142.895 1563.26 142.707 1562.56 142.265 1561.99C141.824 1561.42 141.175 1561.07 140.461 1561.02L117.603 1559.33C112.715 1558.97 108.279 1556.72 105.083 1553.01C101.897 1549.3 100.346 1544.56 100.731 1539.68L102.292 1519.75C102.329 1519.22 102.076 1518.87 101.925 1518.7C101.643 1518.4 101.258 1518.24 100.844 1518.24Z" fill="#E41417"/>
<path d="M150.349 1644.4C150.02 1644.4 149.681 1644.31 149.362 1644.14L146.326 1642.5C129.878 1633.58 117.64 1618.12 112.743 1600.06L111.136 1594.14C110.864 1593.14 109.999 1592.94 109.736 1592.9C109.473 1592.86 108.589 1592.8 108.044 1593.69L104.858 1598.81C103.749 1600.6 101.907 1601.71 99.8012 1601.84C97.7052 1601.98 95.7315 1601.12 94.3874 1599.51C80.524 1582.7 70.486 1563.56 64.5553 1542.6L61.2375 1530.86C60.9273 1529.76 61.5664 1528.61 62.6661 1528.3C63.7752 1527.99 64.9124 1528.63 65.2226 1529.73L68.5404 1541.47C74.3113 1561.87 84.0862 1580.51 97.583 1596.86C98.0624 1597.45 98.7673 1597.76 99.5286 1597.7C100.281 1597.65 100.948 1597.25 101.343 1596.61L104.529 1591.49C105.779 1589.49 108.006 1588.45 110.337 1588.8C112.678 1589.15 114.51 1590.77 115.131 1593.05L116.738 1598.97C121.343 1615.94 132.838 1630.48 148.3 1638.86L151.335 1640.5C152.341 1641.05 152.717 1642.31 152.172 1643.31C151.796 1644.01 151.082 1644.4 150.349 1644.4Z" fill="#E41417"/>
<path d="M510.919 1059.56C510.919 1059.56 451.001 1075.2 396.195 1063.55V1063.51L391.731 1062.28C380.142 1059.1 369.296 1054.31 358.76 1048.72C351.729 1044.98 346.015 1039.16 342.359 1032.08C342.359 1032.08 308.222 1084.14 307.789 1173.38C307.301 1274.32 171.298 1369.04 120.554 1502.74C123.89 1521.52 136.156 1537.51 153.44 1545.58L153.92 1545.81C153.92 1545.81 290.486 1490.85 343.872 1405.56C366.147 1369.98 393.498 1307.03 406.901 1274.98C412.568 1312.05 408.311 1344.3 403.132 1364.37C394.475 1397.95 372.247 1498.79 394.438 1608.74C394.438 1608.74 420.106 1620.94 451.226 1610.76C451.226 1610.76 536.784 1433.13 544.454 1322.35C552.123 1211.58 510.928 1059.55 510.928 1059.55L510.919 1059.56Z" fill="#E41417"/>
<path d="M425.548 1616.92C407.108 1616.92 394.288 1610.97 393.536 1610.62C392.944 1610.33 392.521 1609.8 392.398 1609.16C370.8 1502.11 391.299 1401.96 401.121 1363.88C404.918 1349.15 410.313 1319.74 405.867 1282.77C391.186 1317.49 366.298 1373.63 345.62 1406.67C292.488 1491.54 156.053 1547.18 154.681 1547.74C154.146 1547.95 153.553 1547.93 153.036 1547.69L152.557 1547.46C134.68 1539.11 121.954 1522.53 118.505 1503.11C118.439 1502.74 118.477 1502.37 118.608 1502.01C141.598 1441.44 181.102 1390 219.299 1340.26C263.596 1282.57 305.44 1228.1 305.703 1173.36C306.135 1084.53 340.272 1031.46 340.61 1030.94C341.015 1030.33 341.701 1029.96 342.453 1030.01C343.186 1030.05 343.844 1030.47 344.182 1031.13C347.678 1037.89 353.055 1043.34 359.718 1046.89C371.561 1053.18 381.909 1057.43 392.276 1060.28L396.741 1061.5C396.835 1061.53 396.929 1061.56 397.013 1061.6C450.615 1072.85 509.8 1057.7 510.392 1057.55C511.492 1057.25 512.62 1057.91 512.911 1059C513.325 1060.53 554.116 1212.65 546.503 1322.49C538.89 1432.38 453.933 1609.87 453.078 1611.65C452.833 1612.16 452.392 1612.54 451.856 1612.72C442.391 1615.82 433.443 1616.91 425.539 1616.91L425.548 1616.92ZM396.243 1607.27C400.998 1609.22 423.415 1617.35 449.732 1609.06C455.963 1595.96 535.083 1427.54 542.377 1322.22C549.473 1219.8 514.152 1080.15 509.434 1062.05C498.493 1064.61 444.807 1076 395.763 1065.57C395.585 1065.54 395.415 1065.48 395.256 1065.39L391.177 1064.28C380.509 1061.34 369.897 1056.98 357.782 1050.54C351.438 1047.17 346.146 1042.24 342.312 1036.18C335.347 1048.38 310.214 1097.62 309.848 1173.39C309.575 1229.52 267.318 1284.53 222.588 1342.78C184.683 1392.14 145.489 1443.17 122.687 1502.94C126.024 1520.67 137.669 1535.8 153.967 1543.55C165.452 1538.78 291.849 1484.75 342.114 1404.47C364.089 1369.36 390.942 1307.78 404.993 1274.19C405.35 1273.34 406.224 1272.82 407.155 1272.93C408.076 1273.04 408.809 1273.76 408.95 1274.67C415.257 1315.86 409.269 1348.87 405.143 1364.9C395.425 1402.59 375.18 1501.48 396.261 1607.27H396.243Z" fill="white"/>
<path d="M677.26 779.997C682.317 782.205 688.182 779.865 690.353 774.771L721.275 702.174L702.947 694.175L672.025 766.772C669.854 771.867 672.194 777.788 677.26 779.997Z" fill="#E41417"/>
<path d="M681.226 782.901C679.6 782.901 677.974 782.562 676.433 781.895C670.343 779.235 667.513 772.092 670.126 765.964L701.058 693.367C701.274 692.859 701.688 692.455 702.195 692.258C702.703 692.051 703.286 692.06 703.784 692.286L722.112 700.284C723.155 700.736 723.634 701.948 723.183 702.991L692.261 775.588C690.992 778.568 688.642 780.861 685.644 782.055C684.215 782.619 682.721 782.901 681.226 782.901ZM704.038 696.901L673.933 767.581C672.213 771.622 674.074 776.34 678.087 778.098C680.023 778.944 682.157 778.981 684.112 778.201C686.076 777.421 687.618 775.917 688.445 773.962L718.568 703.245L704.038 696.901Z" fill="white"/>
<g filter="url(#filter0_b_111_297)">
<ellipse cx="775.047" cy="539.497" rx="179.519" ry="179.519" fill="white" fill-opacity="0.1"/>
</g>
<path d="M599.253 579.721C621.632 677.442 718.253 738.695 815.061 716.522C911.87 694.35 972.202 597.156 949.814 499.436C927.435 401.715 830.814 340.463 734.005 362.635C637.196 384.807 576.865 482.001 599.253 579.721ZM622.356 574.43C602.928 489.586 655.308 405.202 739.353 385.953C823.398 366.705 907.284 419.884 926.72 504.718C946.148 589.562 893.768 673.945 809.723 693.194C725.678 712.443 641.793 659.264 622.356 574.43Z" fill="#E41417"/>
<path d="M775.421 722.345C692.344 722.345 616.89 664.486 597.406 579.416C574.802 480.737 635.951 382.237 733.718 359.848C831.486 337.46 929.404 399.521 952.008 498.2C962.958 546.003 954.809 595.16 929.065 636.628C903.322 678.105 863.057 706.922 815.696 717.768C802.208 720.86 788.721 722.336 775.431 722.336L775.421 722.345ZM773.983 359.426C760.994 359.426 747.817 360.873 734.639 363.89C639.1 385.771 579.351 482.044 601.438 578.495C620.48 661.647 694.234 718.201 775.421 718.201C788.411 718.201 801.588 716.753 814.765 713.736C861.045 703.134 900.38 674.984 925.541 634.447C950.702 593.909 958.662 545.853 947.966 499.121C928.924 415.969 855.171 359.416 773.983 359.416V359.426ZM775.327 698.435C703.078 698.435 637.455 648.113 620.509 574.134C600.855 488.313 654.034 402.651 739.057 383.177C824.079 363.702 909.243 417.68 928.896 503.501C948.549 589.323 895.37 674.984 810.348 694.459C798.618 697.147 786.888 698.435 775.327 698.435ZM624.541 573.213C643.686 656.807 726.632 709.384 809.427 690.427C892.222 671.46 944.01 588.026 924.864 504.432C905.718 420.838 822.782 368.251 739.978 387.218C657.183 406.185 605.395 489.619 624.541 573.213Z" fill="white"/>
<path d="M679.826 812.32C682.11 813.109 689.375 803.616 691.076 801.943C697.768 795.364 713.314 787.61 716.463 773.86C720.542 756.02 712.778 736.875 708.229 737.467C703.69 738.059 697.919 771.914 680.117 773.145C680.117 773.145 676.113 772.675 676.546 755.955C676.611 753.614 674.093 751.988 672.025 753.069C669.168 754.554 665.53 757.74 662.541 764.536C658.725 773.211 659.458 783.221 660.06 789.217C660.464 793.184 659.017 805.092 662.053 806.145L679.826 812.32Z" fill="white"/>
<path d="M680.127 814.444C679.788 814.444 679.469 814.387 679.149 814.275L661.376 808.1C658.03 806.934 657.88 801.774 658.03 794.029C658.068 792.178 658.105 790.42 658.002 789.424C657.25 781.952 656.874 772.28 660.643 763.699C663.961 756.152 668.143 752.749 671.066 751.227C672.683 750.39 674.582 750.465 676.151 751.452C677.749 752.449 678.67 754.15 678.614 756.011C678.322 767.073 680.042 770.25 680.634 771.011C690.851 769.724 696.932 755.409 700.983 745.86C703.746 739.347 705.269 735.756 707.957 735.408C709.461 735.211 710.955 735.916 712.384 737.495C717.121 742.702 722.008 758.812 718.474 774.31C715.993 785.147 706.641 792.281 699.122 798.005C696.594 799.932 694.206 801.755 692.524 803.409C692.157 803.776 691.509 804.528 690.71 805.468C685.55 811.474 682.561 814.434 680.117 814.434L680.127 814.444ZM662.908 804.246L680.164 810.242C681.809 809.5 685.973 804.65 687.58 802.77C688.482 801.718 689.216 800.872 689.639 800.458C691.509 798.616 694 796.717 696.631 794.715C703.615 789.396 712.309 782.769 714.452 773.389C718.211 756.951 711.378 741.085 708.624 739.61C707.694 740.662 706.105 744.413 704.799 747.477C700.259 758.154 693.407 774.292 680.268 775.203C680.136 775.213 680.005 775.203 679.882 775.203C677.683 774.95 674.065 772.092 674.487 755.907C674.497 755.362 674.13 755.071 673.971 754.968C673.783 754.855 673.407 754.686 672.993 754.911C670.662 756.124 667.279 758.924 664.449 765.382C660.634 774.066 661.686 784.546 662.137 789.02C662.26 790.27 662.231 792.056 662.184 794.123C662.128 797.018 662.015 802.987 662.917 804.255L662.908 804.246Z" fill="#E41417"/>
<path d="M691.378 808.711L655.587 795.562C641.526 820.685 626.431 842.265 609.616 855.79C599.729 863.732 589.014 870.208 577.773 875.246C572.716 877.511 566.795 875.171 564.765 870.011C559.182 855.809 549.905 833.43 533.466 807.047C521.116 787.225 500.608 770.965 483.577 762.525C457.129 749.404 426.366 743.069 397.07 748.915C340.526 760.194 301.849 793.156 301.849 793.156C271.077 817.715 214.251 903.367 234.515 944.61C259.366 995.185 326.352 965.597 326.352 965.597C326.352 965.597 327.724 988.954 313.748 1021.24C296.774 1060.46 313.457 1070.61 313.457 1070.61C382.379 1143.41 535.158 1074.67 522.235 1043.46C508.409 1010.04 508.174 967.684 508.174 967.684C527.282 986.585 553.364 983.615 553.364 983.615C553.364 983.615 568.449 982.478 578.854 978.201C669.337 948.181 691.368 808.73 691.368 808.73L691.378 808.711Z" fill="white"/>
<path d="M397.652 1104.95C366.288 1104.95 334.999 1096.24 312.103 1072.19C309.819 1070.59 295.307 1058.57 311.84 1020.4C322.63 995.467 324.134 975.786 324.284 968.614C310.947 973.605 255.08 991.153 232.645 945.502C211.469 902.399 270.804 815.262 300.543 791.52C300.881 791.229 340.225 758.126 396.646 746.866C424.26 741.358 455.455 746.255 484.479 760.654C500.222 768.464 521.812 784.461 535.205 805.938C550.986 831.259 560.31 853.073 566.673 869.24C567.434 871.176 568.91 872.67 570.836 873.46C572.801 874.259 574.953 874.221 576.908 873.347C588.187 868.3 598.751 861.852 608.3 854.173C623.104 842.284 637.973 822.781 653.763 794.556C654.261 793.663 655.333 793.278 656.282 793.625L692.073 806.774C693.003 807.113 693.558 808.062 693.408 809.04C693.351 809.387 687.665 844.605 670.935 883.018C648.687 934.092 617.07 967.684 579.502 980.147C569.051 984.451 554.144 985.617 553.514 985.664C552.546 985.777 529.415 988.183 510.383 972.468C510.918 984.442 513.324 1016.53 524.133 1042.66C527.959 1051.91 519.819 1063.92 501.792 1075.6C479.075 1090.33 438.293 1104.95 397.633 1104.95L397.652 1104.95ZM326.343 963.501C326.719 963.501 327.095 963.605 327.423 963.802C328.006 964.159 328.373 964.77 328.41 965.447C328.467 966.424 329.651 989.668 315.647 1022.04C299.725 1058.82 314.406 1068.74 314.556 1068.83C314.697 1068.93 314.848 1069.04 314.961 1069.16C365.799 1122.86 460.277 1097.58 499.564 1072.12C515.514 1061.78 523.278 1051.35 520.327 1044.23C506.501 1010.82 506.115 968.097 506.115 967.665C506.115 966.828 506.614 966.067 507.384 965.748C508.155 965.428 509.048 965.597 509.64 966.18C527.836 984.179 552.894 981.557 553.148 981.528C553.373 981.51 568.111 980.353 578.083 976.255C661.141 948.689 686.161 825.864 689.056 810.045L656.536 798.099C640.802 825.967 625.867 845.376 610.923 857.388C601.101 865.283 590.226 871.918 578.619 877.116C575.62 878.46 572.312 878.516 569.295 877.285C566.316 876.073 564.022 873.751 562.847 870.753C556.55 854.746 547.33 833.167 531.718 808.128C518.795 787.385 497.901 771.923 482.665 764.367C454.45 750.372 424.204 745.597 397.483 750.926C342.105 761.979 303.578 794.387 303.203 794.716C273.173 818.692 216.892 903.997 236.386 943.679C260.09 991.914 324.876 963.971 325.525 963.689C325.788 963.567 326.079 963.511 326.361 963.511L326.343 963.501Z" fill="#E41417"/>
<path d="M327.198 941.555C326.343 941.555 325.534 941.019 325.243 940.164C306.257 885.227 315.083 840.799 315.177 840.357C315.412 839.238 316.512 838.524 317.621 838.75C318.739 838.985 319.463 840.075 319.228 841.193C319.143 841.626 310.562 885.002 329.153 938.81C329.529 939.891 328.956 941.066 327.875 941.442C327.649 941.517 327.424 941.555 327.198 941.555Z" fill="#E41417"/>
<path d="M507.046 970.033C506.529 970.033 506.003 969.836 505.599 969.441C475.889 940.427 455.239 873.14 454.375 870.292C454.046 869.202 454.657 868.046 455.756 867.708C456.856 867.379 458.003 867.99 458.341 869.089C458.548 869.775 479.545 938.209 508.493 966.481C509.311 967.28 509.33 968.586 508.531 969.404C508.127 969.817 507.591 970.024 507.046 970.024V970.033Z" fill="#E41417"/>
<path d="M429.355 622.584C440.784 622.64 451.31 628.815 457.053 638.703C459.713 643.28 462.129 647.547 462.617 648.75C463.726 651.495 466.18 660.715 475.165 669.606C476.048 670.481 476.18 671.872 475.409 672.858L469.657 680.218C469.262 680.725 469.093 681.374 469.206 682.004C469.892 685.932 473.323 700.172 472.308 702.747C470.155 708.198 457.128 709.674 453.275 709.994C452.551 710.05 451.903 710.464 451.555 711.093C450.305 713.349 447.006 719.825 444.289 735.963C440.163 760.56 463.604 764.385 458.83 766.801C425.52 783.615 364.173 779.79 367.726 772.797C370.649 767.045 404.316 752.157 407.446 711.695C409.401 686.468 374.07 684.391 399.522 636.363C405.444 625.197 418.245 622.527 429.364 622.574L429.355 622.584Z" fill="white"/>
<path d="M396.214 780.814C381.42 780.814 369.672 778.963 366.608 775.889C365.452 774.724 365.17 773.22 365.865 771.857C366.749 770.118 369.098 768.276 372.661 765.485C383.272 757.176 403.029 741.705 405.359 711.535C406.017 703.057 402.173 697.531 397.718 691.13C389.851 679.814 380.922 666.993 397.671 635.404C402.869 625.591 413.847 620.422 429.355 620.516C441.432 620.572 452.73 627.142 458.83 637.66C463.83 646.278 464.347 647.557 464.516 647.97C464.667 648.346 464.845 648.835 465.052 649.427C466.368 653.093 469.103 660.724 476.594 668.14C478.239 669.766 478.417 672.341 477.007 674.137L471.255 681.496C471.368 682.53 471.659 683.94 472.007 685.613C474.178 696.008 475.052 701.337 474.197 703.518C471.772 709.655 460.136 711.507 453.407 712.071C449.807 718.471 447.561 728.791 446.292 736.32C443.669 751.913 452.899 758.36 457.862 761.828C460.136 763.417 461.631 764.46 461.499 766.265C461.452 766.97 461.095 767.957 459.723 768.652C442.56 777.318 416.507 780.814 396.186 780.814H396.214ZM369.879 773.286C375.706 777.619 426.216 779.921 456.264 765.748C456.01 765.569 455.756 765.391 455.512 765.221C450.211 761.518 439.186 753.802 442.231 735.634C444.149 724.205 446.668 715.614 449.722 710.097C450.408 708.866 451.668 708.057 453.087 707.935C462.326 707.164 469.272 704.777 470.372 701.995C470.86 700.237 468.84 690.585 467.984 686.459C467.627 684.729 467.317 683.282 467.167 682.37C466.96 681.167 467.27 679.917 468.031 678.949L473.783 671.59C473.906 671.43 473.84 671.214 473.718 671.091C465.559 663.018 462.608 654.794 461.189 650.837C461.001 650.31 460.841 649.878 460.71 649.54C460.493 649.004 459.507 647.03 455.277 639.755C449.901 630.498 439.976 624.717 429.355 624.67C415.332 624.586 405.848 628.872 401.355 637.359C385.791 666.721 393.592 677.943 401.139 688.79C405.632 695.247 410.284 701.929 409.514 711.883C407.042 743.867 386.355 760.071 375.236 768.774C372.952 770.569 370.771 772.271 369.897 773.305L369.879 773.286Z" fill="#E41417"/>
<path d="M448.782 661.476L462.11 644.793C468.952 636.231 466.555 623.627 457.091 618.11C454.468 616.578 451.386 614.98 447.946 613.504C413.715 598.767 374.502 623.091 374.465 660.348C374.446 675.603 384.644 693.282 406.318 708.997C406.318 708.997 421.544 696.985 421.356 683.996C421.356 683.996 410.303 670.885 425.877 664.249C428.856 662.98 432.259 663.084 435.163 664.512C439.853 666.824 445.521 665.555 448.782 661.476Z" fill="#E41417"/>
<path d="M428.443 692.042C423.828 692.042 417.963 690.077 413.612 681.853C413.076 680.838 413.461 679.588 414.476 679.052C415.491 678.517 416.741 678.902 417.277 679.917C423.49 691.666 432.842 687.276 433.894 686.741C434.909 686.224 436.16 686.609 436.686 687.624C437.212 688.639 436.827 689.88 435.821 690.406C435.755 690.444 432.616 692.042 428.452 692.042H428.443Z" fill="#E41417"/>
<path d="M392.304 624.98C392.304 624.98 380.743 584.997 338.58 592.526C312.254 597.225 289.264 614.914 276.632 643.788C252.195 699.664 274.32 752.824 234.496 801.323C225.502 812.272 232.833 828.927 246.997 829.416C273.756 830.337 309.876 823.871 334.952 789.414C355.498 761.18 342.584 631.381 387.793 633.336L392.314 624.98H392.304Z" fill="#E41417"/>
<path d="M132.754 1315.3C119.952 1315.3 109.529 1304.89 109.529 1292.08C109.529 1279.27 119.943 1268.85 132.754 1268.85C145.564 1268.85 155.978 1279.27 155.978 1292.08C155.978 1304.89 145.564 1315.3 132.754 1315.3ZM132.754 1273C122.236 1273 113.674 1281.56 113.674 1292.08C113.674 1302.59 122.236 1311.16 132.754 1311.16C143.271 1311.16 151.833 1302.59 151.833 1292.08C151.833 1281.56 143.271 1273 132.754 1273Z" fill="#E41417"/>
<path d="M449.441 144.799C436.639 144.799 426.216 134.386 426.216 121.575C426.216 108.764 436.63 98.3501 449.441 98.3501C462.251 98.3501 472.665 108.764 472.665 121.575C472.665 134.386 462.251 144.799 449.441 144.799ZM449.441 102.495C438.923 102.495 430.361 111.057 430.361 121.575C430.361 132.092 438.923 140.655 449.441 140.655C459.958 140.655 468.52 132.092 468.52 121.575C468.52 111.057 459.958 102.495 449.441 102.495Z" fill="#E41417"/>
<path d="M158.121 1360.62C149.512 1360.62 142.51 1353.62 142.51 1345.01C142.51 1336.4 149.512 1329.4 158.121 1329.4C166.731 1329.4 173.733 1336.4 173.733 1345.01C173.733 1353.62 166.731 1360.62 158.121 1360.62ZM158.121 1333.55C151.796 1333.55 146.655 1338.69 146.655 1345.01C146.655 1351.34 151.796 1356.48 158.121 1356.48C164.447 1356.48 169.588 1351.34 169.588 1345.01C169.588 1338.69 164.447 1333.55 158.121 1333.55Z" fill="#E41417"/>
<path d="M1670.4 389.321C1661.79 389.321 1654.79 382.319 1654.79 373.71C1654.79 365.1 1661.79 358.098 1670.4 358.098C1679.01 358.098 1686.01 365.1 1686.01 373.71C1686.01 382.319 1679.01 389.321 1670.4 389.321ZM1670.4 362.243C1664.07 362.243 1658.93 367.384 1658.93 373.71C1658.93 380.035 1664.07 385.176 1670.4 385.176C1676.72 385.176 1681.86 380.035 1681.86 373.71C1681.86 367.384 1676.72 362.243 1670.4 362.243Z" fill="#E41417"/>
<path d="M1559.97 325.428C1549.55 325.428 1541.06 316.95 1541.06 306.517C1541.06 296.084 1549.54 287.606 1559.97 287.606C1570.4 287.606 1578.88 296.084 1578.88 306.517C1578.88 316.95 1570.4 325.428 1559.97 325.428ZM1559.97 291.751C1551.83 291.751 1545.2 298.378 1545.2 306.517C1545.2 314.656 1551.83 321.283 1559.97 321.283C1568.11 321.283 1574.73 314.656 1574.73 306.517C1574.73 298.378 1568.11 291.751 1559.97 291.751Z" fill="#E41417"/>
<path d="M97.8744 1202.84C96.7277 1202.84 95.8066 1201.91 95.8066 1200.78V1184.7C95.8066 1183.56 96.7371 1182.64 97.8744 1182.64C99.0117 1182.64 99.9422 1183.57 99.9422 1184.7V1200.78C99.9422 1201.92 99.0117 1202.84 97.8744 1202.84Z" fill="#E41417"/>
<path d="M97.8744 1240.29C96.7277 1240.29 95.8066 1239.36 95.8066 1238.22V1222.15C95.8066 1221 96.7371 1220.08 97.8744 1220.08C99.0117 1220.08 99.9422 1221.01 99.9422 1222.15V1238.22C99.9422 1239.37 99.0117 1240.29 97.8744 1240.29Z" fill="#E41417"/>
<path d="M87.1877 1213.53H71.1156C69.9689 1213.53 69.0479 1212.6 69.0479 1211.46C69.0479 1210.33 69.9783 1209.4 71.1156 1209.4H87.1877C88.3344 1209.4 89.2555 1210.33 89.2555 1211.46C89.2555 1212.6 88.325 1213.53 87.1877 1213.53Z" fill="#E41417"/>
<path d="M124.633 1213.53H108.561C107.414 1213.53 106.493 1212.6 106.493 1211.46C106.493 1210.33 107.424 1209.4 108.561 1209.4H124.633C125.78 1209.4 126.701 1210.33 126.701 1211.46C126.701 1212.6 125.77 1213.53 124.633 1213.53Z" fill="#E41417"/>
<path d="M370.368 146.068C369.221 146.068 368.3 145.138 368.3 144V127.928C368.3 126.782 369.23 125.861 370.368 125.861C371.505 125.861 372.435 126.791 372.435 127.928V144C372.435 145.147 371.505 146.068 370.368 146.068Z" fill="#E41417"/>
<path d="M370.368 183.514C369.221 183.514 368.3 182.583 368.3 181.446V165.374C368.3 164.227 369.23 163.306 370.368 163.306C371.505 163.306 372.435 164.236 372.435 165.374V181.446C372.435 182.592 371.505 183.514 370.368 183.514Z" fill="#E41417"/>
<path d="M359.69 156.755H343.618C342.471 156.755 341.55 155.824 341.55 154.687C341.55 153.55 342.481 152.619 343.618 152.619H359.69C360.837 152.619 361.758 153.55 361.758 154.687C361.758 155.824 360.827 156.755 359.69 156.755Z" fill="#E41417"/>
<path d="M397.126 156.755H381.054C379.907 156.755 378.986 155.824 378.986 154.687C378.986 153.55 379.917 152.619 381.054 152.619H397.126C398.273 152.619 399.194 153.55 399.194 154.687C399.194 155.824 398.264 156.755 397.126 156.755Z" fill="#E41417"/>
<path d="M148.722 1026.92C147.867 1026.92 147.059 1026.38 146.768 1025.52C86.3231 850.949 93.4287 716.3 110.027 634.079C128.045 544.855 160.885 496.253 161.214 495.774C161.862 494.834 163.15 494.589 164.09 495.238C165.03 495.886 165.274 497.174 164.625 498.114C164.296 498.593 131.851 546.659 114.031 635.141C97.583 716.817 90.5808 850.601 150.677 1024.16C151.053 1025.24 150.48 1026.42 149.399 1026.79C149.174 1026.87 148.948 1026.91 148.722 1026.91V1026.92Z" fill="#E41417"/>
<path d="M88.1934 960.69C87.2629 960.69 86.417 960.061 86.182 959.111C42.5053 780.025 61.2279 648.167 84.6312 569.085C110.027 483.254 146.344 439.183 146.711 438.75C147.444 437.876 148.751 437.754 149.625 438.487C150.499 439.22 150.621 440.527 149.888 441.401C149.531 441.833 113.664 485.406 88.5318 570.504C65.3259 649.06 46.7818 780.081 90.2142 958.124C90.4867 959.234 89.8006 960.352 88.6915 960.625C88.5224 960.662 88.3626 960.681 88.2028 960.681L88.1934 960.69Z" fill="#E41417"/>
<defs>
<filter id="filter0_b_111_297" x="580.527" y="344.978" width="389.038" height="389.038" filterUnits="userSpaceOnUse" color-interpolation-filters="sRGB">
<feFlood flood-opacity="0" result="BackgroundImageFix"/>
<feGaussianBlur in="BackgroundImageFix" stdDeviation="7.5"/>
<feComposite in2="SourceAlpha" operator="in" result="effect1_backgroundBlur_111_297"/>
<feBlend mode="normal" in="SourceGraphic" in2="effect1_backgroundBlur_111_297" result="shape"/>
</filter>
</defs>
</svg>
