<svg width="1800" height="1720" viewBox="0 0 1800 1720" fill="none" xmlns="http://www.w3.org/2000/svg">
<path d="M473.024 1558.36H1204.29C1235.81 1558.36 1258.12 1532.89 1254.15 1501.48L1074.09 78.9945C1070.12 47.5848 1041.35 22.1159 1009.83 22.1159L315.276 14C235.545 14 224.727 47.5752 228.703 78.9945L408.768 1501.48C412.744 1532.89 441.509 1558.36 473.024 1558.36Z" fill="#E41417"/>
<path d="M517.033 1558.36H1248.3C1279.82 1558.36 1302.13 1532.81 1298.15 1501.29L1118.1 74.2801C1114.12 42.765 1085.36 17.2195 1053.84 17.2195H322.567C291.052 17.2195 268.735 42.765 272.712 74.2801L452.776 1501.29C456.753 1532.81 485.518 1558.36 517.033 1558.36Z" fill="white"/>
<path d="M1248.3 1560.47H517.033C484.54 1560.47 454.769 1534.05 450.668 1501.56L270.604 74.5486C268.592 58.6138 272.951 43.6372 282.878 32.3783C292.7 21.2441 306.795 15.1021 322.567 15.1021H1053.83C1086.33 15.1021 1116.1 41.5291 1120.2 74.012L1300.26 1501.03C1302.28 1516.96 1297.92 1531.94 1287.99 1543.2C1278.17 1554.33 1264.07 1560.47 1248.3 1560.47ZM322.567 19.3469C308.031 19.3469 295.067 24.9715 286.06 35.1859C276.947 45.5152 272.961 59.3133 274.81 74.0216L454.875 1501.04C458.717 1531.48 486.601 1556.24 517.033 1556.24H1248.3C1262.84 1556.24 1275.8 1550.61 1284.81 1540.4C1293.92 1530.07 1297.91 1516.27 1296.06 1501.56L1115.99 74.5486C1112.15 44.1067 1084.27 19.3469 1053.83 19.3469H322.567Z" fill="#E41417"/>
<path d="M591.161 1560.47H517.034C484.542 1560.47 454.771 1534.05 450.67 1501.56L423.112 1283.2C422.968 1282.04 423.792 1280.98 424.952 1280.83C426.121 1280.68 427.175 1281.51 427.318 1282.67L454.876 1501.04C458.719 1531.48 486.602 1556.24 517.034 1556.24H591.161C592.33 1556.24 593.278 1557.19 593.278 1558.36C593.278 1559.52 592.33 1560.47 591.161 1560.47Z" fill="#E41417"/>
<path d="M1244.98 1518.55H509.772C501.474 1518.55 493.875 1511.81 492.831 1503.53L320.911 140.971C320.384 136.822 321.534 132.903 324.14 129.952C326.718 127.02 330.407 125.41 334.527 125.41H1069.73C1078.03 125.41 1085.62 132.156 1086.67 140.435L1258.6 1502.99C1259.13 1507.14 1257.98 1511.06 1255.37 1514.01C1252.8 1516.93 1249.11 1518.55 1244.99 1518.55H1244.98ZM334.518 129.655C331.633 129.655 329.075 130.757 327.312 132.76C325.52 134.791 324.744 137.512 325.108 140.444L497.037 1503C497.823 1509.24 503.534 1514.32 509.772 1514.32H1244.98C1247.86 1514.32 1250.42 1513.22 1252.18 1511.21C1253.97 1509.18 1254.75 1506.46 1254.39 1503.53L1082.46 140.971C1081.67 134.733 1075.96 129.655 1069.73 129.655H334.518Z" fill="#E41417"/>
<path d="M697.368 89.8024C709.173 89.8024 717.538 80.23 716.043 68.425C714.548 56.62 703.778 47.0476 691.973 47.0476C680.168 47.0476 671.803 56.62 673.298 68.425C674.783 80.23 685.563 89.8024 697.368 89.8024Z" fill="#E41417"/>
<path d="M1191.98 1052.68C1191.84 1052.68 1191.71 1052.68 1191.57 1052.68C1149.15 1052.55 1105.49 1027.01 1061.82 976.759C1031.2 941.536 1011.72 906.696 1010.91 905.23C1004.41 893.54 1008.63 878.812 1020.31 872.316C1031.99 865.829 1046.73 870.035 1053.22 881.716C1072.2 915.76 1134.07 1004.1 1191.7 1004.27C1191.79 1004.27 1191.87 1004.27 1191.96 1004.27C1210.24 1004.27 1224.37 998.625 1235.15 987.022C1260.97 959.243 1262.86 903.735 1261.41 884.686C1260.39 871.357 1270.38 859.725 1283.71 858.709C1297.02 857.694 1308.67 867.678 1309.68 881.007C1309.96 884.667 1315.99 971.154 1270.62 1019.97C1250.45 1041.68 1223.99 1052.68 1191.97 1052.68H1191.98Z" fill="#E41417"/>
<path d="M1361.93 878.274H1218.57C1205.21 878.274 1194.37 867.437 1194.37 854.07C1194.37 840.703 1205.21 829.866 1218.57 829.866H1361.93C1375.3 829.866 1386.13 840.703 1386.13 854.07C1386.13 867.437 1375.3 878.274 1361.93 878.274Z" fill="#E41417"/>
<path d="M1164.92 402.118H1176.35C1210.57 402.118 1238.36 429.905 1238.36 464.132V483.229C1238.36 517.456 1210.57 545.243 1176.35 545.243H1164.92V402.108V402.118Z" fill="white"/>
<path d="M1176.34 547.371H1164.92C1163.75 547.371 1162.8 546.422 1162.8 545.253V402.117C1162.8 400.948 1163.75 400 1164.92 400H1176.34C1211.71 400 1240.48 428.774 1240.48 464.142V483.238C1240.48 518.605 1211.71 547.38 1176.34 547.38V547.371ZM1167.04 543.126H1176.34C1209.37 543.126 1236.24 516.258 1236.24 483.229V464.132C1236.24 431.103 1209.37 404.235 1176.34 404.235H1167.04V543.126Z" fill="#E41417"/>
<path d="M518.655 545.244H507.234C473.007 545.244 445.219 517.456 445.219 483.229V464.132C445.219 429.906 473.007 402.118 507.234 402.118H518.655V545.253V545.244Z" fill="white"/>
<path d="M518.654 547.371H507.233C471.865 547.371 443.091 518.596 443.091 483.229V464.132C443.091 428.765 471.865 399.991 507.233 399.991H518.654C519.823 399.991 520.772 400.939 520.772 402.108V545.244C520.772 546.413 519.823 547.362 518.654 547.362V547.371ZM507.233 404.236C474.203 404.236 447.336 431.103 447.336 464.132V483.229C447.336 516.258 474.203 543.126 507.233 543.126H516.537V404.236H507.233Z" fill="#E41417"/>
<path d="M495.525 467.773C495.525 313.973 650.552 154.874 841.799 154.874C1033.05 154.874 1188.07 313.973 1188.07 467.773C1188.07 621.573 1033.05 711.845 841.799 711.845C650.552 711.845 495.525 621.573 495.525 467.773Z" fill="white"/>
<path d="M841.789 713.963C745.711 713.963 658.333 690.976 595.763 649.246C528.794 604.585 493.398 541.832 493.398 467.773C493.398 393.714 530.605 313.187 595.485 252.102C663.526 188.037 751 152.747 841.789 152.747C932.578 152.747 1020.05 188.028 1088.09 252.102C1152.97 313.187 1190.18 391.798 1190.18 467.773C1190.18 543.749 1154.78 604.585 1087.82 649.246C1025.25 690.976 937.868 713.963 841.789 713.963ZM841.789 156.992C644.822 156.992 497.643 321.073 497.643 467.773C497.643 540.347 532.387 601.883 598.12 645.72C660 686.99 746.544 709.718 841.789 709.718C937.034 709.718 1023.58 686.99 1085.46 645.72C1151.19 601.883 1185.94 540.347 1185.94 467.773C1185.94 321.073 1038.76 156.992 841.789 156.992Z" fill="#E41417"/>
<path d="M928.524 758.049H755.052C679.019 758.049 617.388 819.681 617.388 895.714C617.388 945.942 622.284 996.056 632.019 1045.34L656.961 1171.65C674.391 1259.92 751.813 1323.55 841.788 1323.55C931.763 1323.55 1009.18 1259.92 1026.61 1171.65L1051.56 1045.34C1061.28 996.056 1066.19 945.942 1066.19 895.714C1066.19 819.681 1004.56 758.049 928.524 758.049Z" fill="white"/>
<path d="M841.788 1325.67C751.057 1325.67 672.456 1261.06 654.882 1172.06L629.94 1045.75C620.205 996.449 615.271 945.971 615.271 895.714C615.271 818.636 677.975 755.922 755.052 755.922H928.524C1005.6 755.922 1068.32 818.627 1068.32 895.714C1068.32 945.962 1063.38 996.439 1053.65 1045.75L1028.7 1172.06C1011.13 1261.06 932.52 1325.67 841.788 1325.67ZM755.052 760.167C680.313 760.167 619.506 820.974 619.506 895.714C619.506 945.693 624.412 995.893 634.099 1044.92L659.041 1171.23C676.221 1258.26 753.078 1321.42 841.788 1321.42C930.498 1321.42 1007.36 1258.26 1024.54 1171.23L1049.48 1044.92C1059.16 995.884 1064.07 945.684 1064.07 895.714C1064.07 820.974 1003.26 760.167 928.524 760.167H755.052Z" fill="#E41417"/>
<path d="M936.208 760.167H747.357C746.188 760.167 745.239 759.219 745.239 758.05C745.239 756.881 746.188 755.932 747.357 755.932H936.208C937.377 755.932 938.326 756.881 938.326 758.05C938.326 759.219 937.377 760.167 936.208 760.167Z" fill="#E41417"/>
<path d="M1074.59 421.607H741.137C706.498 421.607 678.413 451.867 678.413 489.199V533.295C678.413 561.763 693.61 591.937 719.817 596.862C812.225 614.224 1003.5 614.224 1095.91 596.862C1122.12 591.937 1137.31 561.773 1137.31 533.295V489.199C1137.31 451.867 1109.23 421.607 1074.59 421.607Z" fill="#E41417"/>
<path d="M808.499 532.989C820.104 532.989 829.512 522.851 829.512 510.346C829.512 497.841 820.104 487.704 808.499 487.704C796.893 487.704 787.485 497.841 787.485 510.346C787.485 522.851 796.893 532.989 808.499 532.989Z" fill="white"/>
<path d="M1032.07 532.988C1043.67 532.988 1053.08 522.851 1053.08 510.346C1053.08 497.841 1043.67 487.704 1032.07 487.704C1020.46 487.704 1011.05 497.841 1011.05 510.346C1011.05 522.851 1020.46 532.988 1032.07 532.988Z" fill="white"/>
<path d="M924.203 999.521C967.618 956.107 967.618 885.718 924.203 842.303C880.789 798.888 810.4 798.888 766.985 842.303C723.57 885.718 723.57 956.107 766.985 999.521C810.4 1042.94 880.789 1042.94 924.203 999.521Z" fill="white"/>
<path d="M845.603 1034.2C783.138 1034.2 732.315 983.379 732.315 920.915C732.315 858.45 783.138 807.627 845.603 807.627C908.068 807.627 958.891 858.45 958.891 920.915C958.891 983.379 908.068 1034.2 845.603 1034.2ZM845.603 811.872C785.476 811.872 736.56 860.788 736.56 920.915C736.56 981.041 785.476 1029.96 845.603 1029.96C905.73 1029.96 954.646 981.041 954.646 920.915C954.646 860.788 905.73 811.872 845.603 811.872Z" fill="#E41417"/>
<path d="M620.309 1162.71C572.888 1162.71 508.717 1155.95 467.591 1124.42C443.885 1106.24 430.04 1082.25 426.437 1053.1C410.253 922.238 568.173 847.335 574.9 844.202C587.021 838.568 601.413 843.838 607.047 855.969C612.672 868.08 607.421 882.463 595.319 888.097C593.987 888.72 462.628 951.329 474.481 1047.15C476.464 1063.16 483.842 1075.87 497.046 1085.99C542.264 1120.66 640.872 1115.79 675.051 1110.99C688.283 1109.13 700.529 1118.36 702.388 1131.59C704.247 1144.84 695.029 1157.07 681.787 1158.93C679.362 1159.28 654.076 1162.7 620.309 1162.7V1162.71Z" fill="#E41417"/>
<path d="M787.448 1188.45H740.966C715.574 1188.45 694.513 1169.39 691.983 1144.13L690.364 1127.95C688.984 1114.14 693.535 1100.32 702.849 1090.03C712.163 1079.74 725.472 1073.83 739.347 1073.83H813.492C826.859 1073.83 837.696 1084.67 837.696 1098.04C837.696 1111.4 826.859 1122.24 813.492 1122.24H739.347C739.213 1122.24 738.983 1122.24 738.743 1122.51C738.504 1122.78 738.523 1123.01 738.532 1123.14L740.152 1139.32C740.19 1139.74 740.545 1140.05 740.966 1140.05H787.448C800.815 1140.05 811.652 1150.89 811.652 1164.26C811.652 1177.63 800.815 1188.46 787.448 1188.46V1188.45Z" fill="#E41417"/>
<path d="M1502.18 1142.98C1501.84 1142.98 1501.48 1142.89 1501.16 1142.71C1500.13 1142.14 1499.76 1140.85 1500.32 1139.82L1508.26 1125.4C1508.82 1124.38 1510.11 1124 1511.14 1124.57C1512.17 1125.14 1512.54 1126.43 1511.98 1127.45L1504.04 1141.87C1503.66 1142.57 1502.93 1142.98 1502.18 1142.98Z" fill="#E41417"/>
<path d="M1483.69 1176.56C1483.35 1176.56 1483 1176.48 1482.67 1176.29C1481.64 1175.73 1481.27 1174.44 1481.84 1173.41L1489.77 1158.99C1490.34 1157.96 1491.62 1157.59 1492.65 1158.16C1493.68 1158.72 1494.05 1160.01 1493.49 1161.04L1485.55 1175.46C1485.17 1176.16 1484.44 1176.56 1483.69 1176.56Z" fill="#E41417"/>
<path d="M1487.33 1147.29C1486.98 1147.29 1486.63 1147.2 1486.3 1147.02L1471.88 1139.09C1470.86 1138.52 1470.48 1137.23 1471.05 1136.2C1471.62 1135.18 1472.9 1134.8 1473.93 1135.37L1488.35 1143.3C1489.38 1143.87 1489.75 1145.16 1489.19 1146.19C1488.81 1146.89 1488.08 1147.29 1487.33 1147.29Z" fill="#E41417"/>
<path d="M1520.91 1165.77C1520.57 1165.77 1520.21 1165.69 1519.89 1165.5L1505.47 1157.57C1504.44 1157.01 1504.07 1155.71 1504.63 1154.69C1505.2 1153.66 1506.49 1153.29 1507.52 1153.85L1521.94 1161.79C1522.96 1162.35 1523.34 1163.65 1522.77 1164.67C1522.39 1165.37 1521.66 1165.77 1520.91 1165.77Z" fill="#E41417"/>
<path d="M1386.38 329.276C1383.97 329.276 1381.55 328.826 1379.22 327.925C1374.17 325.961 1370.2 322.109 1368.02 317.069C1363.59 306.787 1368.2 294.733 1378.29 290.201C1383.14 288.016 1388.56 287.882 1393.51 289.808C1398.56 291.772 1402.54 295.624 1404.71 300.664C1409.15 310.946 1404.55 323 1394.46 327.532C1391.87 328.692 1389.12 329.276 1386.38 329.276ZM1386.37 292.702C1384.22 292.702 1382.06 293.162 1380.03 294.072C1372.05 297.656 1368.41 307.218 1371.93 315.382C1373.65 319.368 1376.79 322.415 1380.78 323.958C1384.67 325.472 1388.91 325.367 1392.73 323.651C1400.72 320.068 1404.36 310.505 1400.83 302.332C1399.12 298.345 1395.97 295.298 1391.99 293.756C1390.17 293.047 1388.27 292.692 1386.37 292.692V292.702Z" fill="#E41417"/>
<path d="M1117.12 1667.88C1112.68 1667.88 1108.24 1667.83 1103.81 1667.74C1102.64 1667.72 1101.71 1666.75 1101.73 1665.58C1101.76 1664.41 1102.83 1663.47 1103.89 1663.5C1196.8 1665.38 1290.95 1647.39 1383.57 1610.02C1384.65 1609.58 1385.89 1610.11 1386.33 1611.19C1386.77 1612.27 1386.25 1613.51 1385.15 1613.95C1296.42 1649.75 1206.31 1667.87 1117.11 1667.87L1117.12 1667.88Z" fill="#E41417"/>
<path d="M1070.84 1665.99H1070.82C1011.69 1665.15 974.718 1656.13 974.344 1656.03C973.204 1655.75 972.514 1654.6 972.802 1653.46C973.079 1652.32 974.229 1651.63 975.369 1651.91C975.734 1652 1012.29 1660.92 1070.87 1661.74C1072.04 1661.76 1072.98 1662.72 1072.96 1663.9C1072.94 1665.06 1071.99 1665.99 1070.84 1665.99Z" fill="#E41417"/>
<path d="M1122.79 1706.99C1099.46 1706.99 1085.64 1705.75 1085.16 1705.71C1083.99 1705.59 1083.13 1704.56 1083.25 1703.4C1083.35 1702.23 1084.37 1701.38 1085.57 1701.49C1087.3 1701.65 1261.02 1717.13 1428.85 1635.31C1429.91 1634.79 1431.18 1635.23 1431.69 1636.29C1432.2 1637.34 1431.76 1638.6 1430.71 1639.12C1308.66 1698.63 1183.52 1707 1122.8 1707L1122.79 1706.99Z" fill="#E41417"/>
<path d="M1514.11 1023.34C1513.94 1023.34 1513.78 1023.32 1513.6 1023.28C1512.46 1023 1511.77 1021.85 1512.05 1020.71C1536.32 921.604 1537.88 825.65 1516.68 735.494C1516.41 734.353 1517.12 733.213 1518.26 732.945C1519.39 732.677 1520.54 733.386 1520.81 734.526C1542.17 825.334 1540.61 921.959 1516.18 1021.73C1515.94 1022.69 1515.08 1023.35 1514.12 1023.35L1514.11 1023.34Z" fill="#E41417"/>
<path d="M1541.43 1057.18C1541.21 1057.18 1540.99 1057.14 1540.77 1057.07C1539.66 1056.71 1539.05 1055.51 1539.42 1054.39C1599.73 871.491 1546.28 705.847 1545.73 704.199C1545.37 703.088 1545.96 701.89 1547.08 701.516C1548.21 701.143 1549.39 701.756 1549.77 702.867C1550.32 704.535 1604.22 871.443 1543.46 1055.72C1543.17 1056.61 1542.34 1057.18 1541.45 1057.18H1541.43Z" fill="#E41417"/>
<path d="M252.879 1034.65C250.072 1034.65 247.235 1033.94 244.639 1032.44C236.743 1027.88 234.031 1017.75 238.583 1009.85C243.144 1001.96 253.282 999.247 261.168 1003.81C269.063 1008.37 271.775 1018.5 267.223 1026.39C264.167 1031.69 258.6 1034.65 252.879 1034.65ZM252.917 1005.84C248.673 1005.84 244.533 1008.04 242.253 1011.98C238.861 1017.85 240.882 1025.38 246.747 1028.77C252.611 1032.16 260.142 1030.15 263.534 1024.27C266.926 1018.41 264.904 1010.88 259.04 1007.49C257.114 1006.38 254.997 1005.84 252.908 1005.84H252.917Z" fill="#E41417"/>
<path d="M335.833 1311.6C335.191 1311.6 334.558 1311.31 334.146 1310.77C294.467 1258.74 265.195 1182.12 244.651 1076.53C244.43 1075.38 245.178 1074.27 246.328 1074.04C247.468 1073.82 248.589 1074.57 248.819 1075.72C269.238 1180.65 298.252 1256.69 337.519 1308.19C338.228 1309.12 338.056 1310.45 337.117 1311.16C336.734 1311.46 336.283 1311.59 335.833 1311.59V1311.6Z" fill="#E41417"/>
</svg>
