<svg width="256" height="256" viewBox="0 0 256 256" fill="none" xmlns="http://www.w3.org/2000/svg">
<path d="M54.0218 223.945L22.0835 141.033C18.8781 132.71 23.0252 123.361 31.3525 120.154L182.101 62.0878C190.424 58.8821 199.773 63.0291 202.979 71.3569L234.917 154.268C238.122 162.591 233.975 171.941 225.648 175.148L74.9042 233.214C66.5761 236.42 57.2319 232.269 54.0218 223.945Z" fill="#DE4C3C"/>
<path d="M214.489 101.224L33.7385 171.286L45.7741 202.529L226.532 132.499L214.489 101.224Z" fill="#7A4930"/>
<path d="M21.0032 166.004V77.1549C21.0032 68.2337 28.2365 61 37.1577 61H198.7C207.621 61 214.855 68.2333 214.855 77.1545V166.003C214.855 174.924 207.621 182.158 198.7 182.158H37.1577C28.2365 182.158 21.0032 174.924 21.0032 166.003V166.004Z" fill="#4398D1"/>
<path d="M198.698 61H181.535L60.3772 182.158H198.698C207.62 182.158 214.853 174.925 214.853 166.004V77.1549C214.853 68.2337 207.62 61 198.698 61Z" fill="#3E8CC7"/>
<path d="M37.1564 125.617H53.3109V133.694H37.1564V125.617ZM37.1564 149.849H53.3109V157.926H37.1564V149.849ZM109.851 149.849H126.005V157.926H109.851V149.849ZM61.3881 125.617H77.5411V133.694H61.3881V125.617ZM85.6187 125.617H101.773V133.694H85.6187V125.617ZM109.851 125.617H126.005V133.694H109.851V125.617ZM186.583 77.1549H194.66V89.2708H186.583V77.1549ZM170.428 77.1549H178.506V89.2708H170.428V77.1549ZM154.274 77.1549H162.351V89.2708H154.274V77.1549ZM138.121 77.1549H146.197V89.2708H138.121V77.1549Z" fill="#5EB3D1"/>
<path d="M37.1564 103.002V83.617C37.1564 80.0469 40.0483 77.1549 43.6185 77.1549H63.0033C66.5738 77.1549 69.4638 80.0469 69.4638 83.617V103.002C69.4638 106.572 66.5738 109.464 63.0033 109.464H43.6185C40.0483 109.464 37.1564 106.572 37.1564 103.002Z" fill="#FDB62F"/>
<path d="M37.1564 89.2709H49.2723V97.3482H37.1564V89.2709ZM57.3495 89.2709H69.4638V97.3482H57.3495V89.2709Z" fill="#FD7B2F"/>
</svg>
