<svg width="256" height="256" viewBox="0 0 256 256" fill="none" xmlns="http://www.w3.org/2000/svg">
<path d="M46.3105 60.5164H209.689V103.138H46.3105C34.5393 103.138 25 93.5981 25 81.8269C25 70.0571 34.5393 60.5164 46.3105 60.5164Z" fill="#FFA230"/>
<path d="M46.3105 60.5164C34.5543 60.5029 25.015 70.022 25 81.7786C24.9968 85.5376 25.9882 89.2306 27.8736 92.4826C31.6741 85.892 38.7025 81.8277 46.3105 81.8277H209.689V60.5168L46.3105 60.5164Z" fill="#FDB62F"/>
<path d="M209.689 120.897H220.344C226.23 120.897 231 125.666 231 131.552C231 137.436 226.23 142.207 220.344 142.207H209.689V120.897Z" fill="#543221"/>
<path d="M188.379 113.793L53.4142 184.827L28.5519 92.4823L131.552 25L188.379 113.793Z" fill="#6B962A"/>
<path d="M195.482 131.552L53.4142 188.379L28.5519 92.4823L170.621 39.2077L195.482 131.552Z" fill="#80A834"/>
<path d="M49.7524 103.492L149.311 66.1644L149.516 66.662C151.328 71.0061 156.322 73.0585 160.666 71.2466C160.722 71.2222 160.779 71.1979 160.836 71.1718L174.233 120.925L65.5497 164.401L49.7524 103.492Z" fill="#6B962A"/>
<path d="M209.689 231H46.3105C34.5393 231 25 221.46 25 209.69V81.8273C25 93.5985 34.5393 103.138 46.3105 103.138H209.689V231Z" fill="#75462E"/>
<path d="M40.0592 230.065C42.0852 230.684 44.192 230.999 46.3105 231H209.689V103.137H192.666C143.567 171.637 76.3329 211.931 40.0592 230.065V230.065Z" fill="#6B402A"/>
<path d="M195.482 124.448H183.306V117.345H195.482L195.482 124.448ZM169.1 124.448H154.893V117.345H169.1V124.448ZM140.686 124.448H126.48V117.345H140.686V124.448ZM112.273 124.448H98.0661V117.345H112.273V124.448ZM83.8587 124.448H69.6517V117.345H83.8587V124.448ZM55.4447 124.448H46.3104C44.3384 124.441 42.374 124.203 40.4575 123.738L42.1198 116.847C43.4929 117.174 44.8991 117.341 46.3104 117.345H55.4377L55.4447 124.448ZM195.482 216.793H183.306V209.69H195.482L195.482 216.793ZM169.1 216.793H154.893V209.69H169.1V216.793ZM140.686 216.793H126.48V209.69H140.686V216.793ZM112.273 216.793H98.0661V209.69H112.273V216.793ZM83.8587 216.793H69.6517V209.69H83.8587V216.793ZM55.4447 216.793H46.3104C44.3383 216.786 42.3739 216.548 40.4575 216.082L42.1198 209.192C43.4929 209.518 44.8991 209.685 46.3104 209.69H55.4377L55.4447 216.793Z" fill="#5C3724"/>
<path d="M220.344 184.827H167.069C155.298 184.827 145.759 175.288 145.759 163.516C145.759 151.747 155.298 142.207 167.069 142.207H220.345C226.23 142.207 231 137.436 231 131.552V174.172C231 180.057 226.23 184.827 220.345 184.827L220.344 184.827Z" fill="#875339"/>
<path d="M174.173 163.516C174.173 167.441 170.992 170.62 167.069 170.62C163.145 170.62 159.966 167.441 159.966 163.516C159.966 159.594 163.145 156.414 167.069 156.414C170.992 156.414 174.173 159.594 174.173 163.516Z" fill="#5C3724"/>
</svg>
