<svg width="256" height="256" viewBox="0 0 256 256" fill="none" xmlns="http://www.w3.org/2000/svg">
<path d="M66.3369 48.6677H189.123V207.568H66.3369V48.6677Z" fill="#87CED9"/>
<path d="M66.3369 200.345V207.568H189.123V77.5593L66.3369 200.345Z" fill="#71C4D1"/>
<path d="M189.123 41.4453C189.123 33.4675 182.655 27 174.678 27H80.7818C72.8044 27 66.3369 33.4675 66.3369 41.4453V48.6677H189.123V41.4453ZM66.3369 207.568V222.014C66.3369 229.992 72.8044 236.46 80.7818 236.46H174.678C182.655 236.46 189.123 229.992 189.123 222.014V207.568H66.3369Z" fill="#DADDDF"/>
<path d="M124.119 218.403H131.341V225.626H124.119V218.403Z" fill="#C1C7C9"/>
<path d="M23 149.786V84.7818C23 76.8041 29.4679 70.3365 37.4453 70.3365H153.009C160.986 70.3365 167.455 76.8044 167.455 84.7818V149.786C167.455 157.764 160.986 164.232 153.009 164.232H37.4453C29.4675 164.232 23 157.764 23 149.786Z" fill="#4398D1"/>
<path d="M153.009 70.3365L59.1141 164.233H153.009C160.986 164.233 167.455 157.764 167.455 149.786V84.7818C167.455 76.8041 160.986 70.3365 153.009 70.3365Z" fill="#3E8CC7"/>
<path d="M166.154 78.859C167.007 80.7174 167.451 82.7372 167.455 84.7818V149.786C167.455 157.764 160.986 164.232 153.009 164.232H66.3365V171.455H160.232C168.211 171.455 174.678 164.987 174.678 157.009V92.0043C174.674 89.225 173.868 86.506 172.356 84.174C170.844 81.842 168.69 79.9964 166.154 78.859Z" fill="#71C4D1"/>
<path d="M37.4453 84.7818H59.1141V106.45H37.4453V84.7818Z" fill="#FDB62F"/>
<path d="M37.4453 117.285H51.8902V124.507H37.4453V117.285ZM37.4453 135.341H51.8902V142.564H37.4453V135.341ZM98.8384 135.341H113.285V142.564H98.8384V135.341ZM59.1145 117.285H73.5594V124.507H59.1141L59.1145 117.285ZM80.7819 117.285H95.2271V124.507H80.7819V117.285ZM102.45 117.285H116.896V124.507H102.45V117.285ZM124.119 117.285H138.564V124.507H124.119V117.285ZM145.786 84.7818H153.009V92.0043H145.786V84.7818ZM131.341 84.7818H138.564V92.0043H131.341V84.7818ZM116.896 84.7818H124.119V92.0043H116.896L116.896 84.7818ZM102.45 84.7818H109.672V92.0043H102.45V84.7818Z" fill="#5EB3D1"/>
<path d="M153.009 142.564C153.009 146.553 149.775 149.786 145.786 149.786C141.797 149.786 138.564 146.552 138.564 142.564C138.564 138.575 141.798 135.341 145.786 135.341C149.775 135.341 153.009 138.575 153.009 142.564Z" fill="#FDB62F"/>
<path d="M138.564 142.564C138.564 146.553 135.33 149.786 131.341 149.786C127.352 149.786 124.119 146.552 124.119 142.564C124.119 138.575 127.352 135.341 131.341 135.341C135.33 135.341 138.564 138.575 138.564 142.564Z" fill="#DE4C3C"/>
<path d="M37.4453 101.033V106.45H59.1141V84.7815H53.6964L37.4453 101.033Z" fill="#FFA230"/>
<path d="M223.524 151.448L189.123 113.673V160.621L176.484 147.981C171.416 143.077 163.331 143.206 158.426 148.274C153.634 153.225 153.634 161.087 158.426 166.038L189.123 196.734L186.986 201.006C184.25 206.477 182.705 212.464 182.451 218.575C182.197 224.686 183.24 230.781 185.512 236.46V240.071H232.46V175.226C232.46 166.479 229.285 158.03 223.524 151.448Z" fill="#FFB782"/>
<path d="M210.791 185.901C209.834 185.901 208.913 185.521 208.239 184.842L186.569 163.173C185.183 161.74 185.223 159.454 186.656 158.068C187.33 157.418 188.23 157.055 189.167 157.055C190.103 157.055 191.003 157.418 191.677 158.068L213.344 179.735C214.753 181.147 214.753 183.434 213.344 184.843C213.009 185.178 212.611 185.444 212.173 185.626C211.735 185.807 211.265 185.9 210.791 185.9V185.901Z" fill="#F2A46F"/>
</svg>
