<svg width="191" height="40" viewBox="0 0 191 40" fill="none" xmlns="http://www.w3.org/2000/svg">
<path fill-rule="evenodd" clip-rule="evenodd" d="M16.1571 0.5C16.7725 0.5 17.2714 0.998883 17.2714 1.61429V38.3857C17.2714 39.0011 16.7725 39.5 16.1571 39.5H13.3714C12.756 39.5 12.2571 39.0011 12.2571 38.3857V24.3517C12.2571 24.483 12.2119 24.609 12.1267 24.7089C10.821 26.2396 6.5427 30.9596 3.65035 30.6879C0.201325 30.3638 -0.103287 27.6612 0.022185 25.044C0.0262065 24.9602 0.0341685 24.8776 0.0458953 24.7964C0.0470386 24.7885 0.0453134 24.7804 0.0409874 24.7737L0.0373223 24.768C0.0290956 24.7552 0.033278 24.7381 0.0464869 24.7306C0.0533621 24.7266 0.058134 24.7198 0.0595254 24.712C0.568199 21.8622 5.74315 20.678 7.7231 20.3268C7.75285 20.3216 7.77978 20.3116 7.80602 20.2966C8.02442 20.1718 7.96041 19.8288 7.71276 19.7847C5.64956 19.4179 0.17011 18.1549 0.022185 15.0694C-0.103287 12.4522 0.201325 9.74956 3.65035 9.42555C6.5427 9.15383 10.821 13.8738 12.1267 15.4045C12.2119 15.5044 12.2571 15.6305 12.2571 15.7617V1.61429C12.2571 0.998883 12.756 0.5 13.3714 0.5H16.1571ZM10.0064 16.06C9.40266 17.1326 7.04265 16.9491 4.73518 15.6502C2.42771 14.3513 1.04658 12.4289 1.65033 11.3563C2.25408 10.2838 4.61409 10.4673 6.92156 11.7661C9.22902 13.065 10.6102 14.9875 10.0064 16.06ZM5.89827 24.9226C7.87787 24.0935 9.21411 22.7802 8.88285 21.9892C8.55159 21.1983 6.67827 21.2293 4.69867 22.0584C2.71907 22.8875 1.38283 24.2008 1.71409 24.9917C2.04535 25.7826 3.91867 25.7517 5.89827 24.9226Z" fill="white"/>
<path d="M28.6706 31.4108V37.2719H27.8794V32.1128H24.2023V37.2719H23.4111V31.4108H28.6706Z" fill="white"/>
<path d="M33.1926 37.3277C32.6281 37.3277 32.1192 37.2014 31.6661 36.9488C31.2129 36.6888 30.8564 36.3322 30.5964 35.8791C30.3364 35.4259 30.2064 34.9134 30.2064 34.3414C30.2064 33.7694 30.3364 33.2568 30.5964 32.8037C30.8564 32.3505 31.2129 31.9977 31.6661 31.7451C32.1192 31.4925 32.6281 31.3662 33.1926 31.3662C33.7572 31.3662 34.2661 31.4925 34.7192 31.7451C35.1724 31.9977 35.5252 32.3505 35.7778 32.8037C36.0378 33.2568 36.1678 33.7694 36.1678 34.3414C36.1678 34.9134 36.0378 35.4259 35.7778 35.8791C35.5252 36.3322 35.1724 36.6888 34.7192 36.9488C34.2661 37.2014 33.7572 37.3277 33.1926 37.3277ZM33.1926 36.6257C33.6086 36.6257 33.9801 36.5328 34.3069 36.3471C34.6412 36.1539 34.9012 35.8828 35.0869 35.5337C35.2726 35.1845 35.3655 34.7871 35.3655 34.3414C35.3655 33.8957 35.2726 33.4982 35.0869 33.1491C34.9012 32.7999 34.6412 32.5325 34.3069 32.3468C33.9801 32.1537 33.6086 32.0571 33.1926 32.0571C32.7766 32.0571 32.4015 32.1537 32.0672 32.3468C31.7404 32.5325 31.4804 32.7999 31.2872 33.1491C31.1015 33.4982 31.0086 33.8957 31.0086 34.3414C31.0086 34.7871 31.1015 35.1845 31.2872 35.5337C31.4804 35.8828 31.7404 36.1539 32.0672 36.3471C32.4015 36.5328 32.7766 36.6257 33.1926 36.6257Z" fill="white"/>
<path d="M43.3974 36.5811V38.6871H42.6508V37.2719H37.4025V38.6871H36.656V36.5811H36.9903C37.384 36.5588 37.6514 36.2691 37.7925 35.7119C37.9337 35.1548 38.0303 34.3748 38.0823 33.3719L38.1603 31.4108H42.4837V36.5811H43.3974ZM38.8065 33.4165C38.7694 34.2485 38.6988 34.9357 38.5948 35.4779C38.4908 36.0128 38.3051 36.3805 38.0377 36.5811H41.6925V32.1128H38.8734L38.8065 33.4165Z" fill="white"/>
<path d="M46.8112 31.3662C47.5763 31.3662 48.1632 31.5594 48.5718 31.9457C48.9803 32.3245 49.1846 32.8891 49.1846 33.6394V37.2719H48.4269V36.3582C48.2486 36.6628 47.9849 36.9005 47.6358 37.0714C47.2941 37.2422 46.8855 37.3277 46.4101 37.3277C45.7563 37.3277 45.2363 37.1717 44.8501 36.8597C44.4638 36.5477 44.2706 36.1354 44.2706 35.6228C44.2706 35.1251 44.4489 34.7239 44.8055 34.4194C45.1695 34.1148 45.7452 33.9625 46.5326 33.9625H48.3935V33.6059C48.3935 33.1008 48.2523 32.7182 47.9701 32.4582C47.6878 32.1908 47.2755 32.0571 46.7332 32.0571C46.3618 32.0571 46.0052 32.1202 45.6635 32.2465C45.3218 32.3654 45.0283 32.5325 44.7832 32.7479L44.4266 32.1574C44.7238 31.9048 45.0803 31.7117 45.4963 31.5779C45.9123 31.4368 46.3506 31.3662 46.8112 31.3662ZM46.5326 36.7037C46.9783 36.7037 47.3609 36.6034 47.6803 36.4028C47.9998 36.1948 48.2375 35.8977 48.3935 35.5114V34.5531H46.5549C45.5521 34.5531 45.0506 34.9022 45.0506 35.6005C45.0506 35.9422 45.1806 36.2134 45.4406 36.4139C45.7006 36.6071 46.0646 36.7037 46.5326 36.7037Z" fill="white"/>
<path d="M54.1656 31.3662C54.7153 31.3662 55.213 31.4925 55.6587 31.7451C56.1044 31.9902 56.4536 32.3394 56.7061 32.7925C56.9587 33.2457 57.085 33.7619 57.085 34.3414C57.085 34.9282 56.9587 35.4482 56.7061 35.9014C56.4536 36.3545 56.1044 36.7074 55.6587 36.9599C55.2204 37.2051 54.7227 37.3277 54.1656 37.3277C53.6901 37.3277 53.2593 37.2311 52.873 37.0379C52.4941 36.8374 52.1821 36.5477 51.937 36.1688V39.4337H51.1459V31.4108H51.9036V32.5697C52.1413 32.1834 52.4533 31.8862 52.8396 31.6782C53.2333 31.4702 53.6753 31.3662 54.1656 31.3662ZM54.1099 36.6257C54.5184 36.6257 54.8899 36.5328 55.2241 36.3471C55.5584 36.1539 55.8184 35.8828 56.0041 35.5337C56.1973 35.1845 56.2939 34.7871 56.2939 34.3414C56.2939 33.8957 56.1973 33.5019 56.0041 33.1602C55.8184 32.8111 55.5584 32.5399 55.2241 32.3468C54.8899 32.1537 54.5184 32.0571 54.1099 32.0571C53.6939 32.0571 53.3187 32.1537 52.9844 32.3468C52.6576 32.5399 52.3976 32.8111 52.2044 33.1602C52.0187 33.5019 51.9259 33.8957 51.9259 34.3414C51.9259 34.7871 52.0187 35.1845 52.2044 35.5337C52.3976 35.8828 52.6576 36.1539 52.9844 36.3471C53.3187 36.5328 53.6939 36.6257 54.1099 36.6257Z" fill="white"/>
<path d="M60.7682 34.6645H59.4311V37.2719H58.6399V31.4108H59.4311V33.9848H60.7794L62.8408 31.4108H63.6988L61.3922 34.2522L63.8659 37.2719H62.9299L60.7682 34.6645Z" fill="white"/>
<path d="M64.9697 31.4108H65.7608V36.0685L69.672 31.4108H70.374V37.2719H69.5828V32.6142L65.6828 37.2719H64.9697V31.4108Z" fill="white"/>
<path d="M77.7193 37.3277C77.1399 37.3277 76.6199 37.2014 76.1593 36.9488C75.7062 36.6962 75.3496 36.3434 75.0896 35.8902C74.8296 35.4297 74.6996 34.9134 74.6996 34.3414C74.6996 33.7694 74.8296 33.2568 75.0896 32.8037C75.3496 32.3505 75.7062 31.9977 76.1593 31.7451C76.6199 31.4925 77.1399 31.3662 77.7193 31.3662C78.2244 31.3662 78.6739 31.4665 79.0676 31.6671C79.4687 31.8602 79.7844 32.1462 80.0147 32.5251L79.4241 32.9262C79.231 32.6365 78.9859 32.4211 78.6887 32.2799C78.3916 32.1314 78.0684 32.0571 77.7193 32.0571C77.2959 32.0571 76.9133 32.1537 76.5716 32.3468C76.2373 32.5325 75.9736 32.7999 75.7804 33.1491C75.5947 33.4982 75.5019 33.8957 75.5019 34.3414C75.5019 34.7945 75.5947 35.1957 75.7804 35.5448C75.9736 35.8865 76.2373 36.1539 76.5716 36.3471C76.9133 36.5328 77.2959 36.6257 77.7193 36.6257C78.0684 36.6257 78.3916 36.5551 78.6887 36.4139C78.9859 36.2728 79.231 36.0574 79.4241 35.7677L80.0147 36.1688C79.7844 36.5477 79.4687 36.8374 79.0676 37.0379C78.6664 37.2311 78.217 37.3277 77.7193 37.3277Z" fill="white"/>
<path d="M89.4326 31.4108V37.2719H88.6415V32.1128H84.9643V37.2719H84.1732V31.4108H89.4326Z" fill="white"/>
<path d="M93.9547 37.3277C93.3901 37.3277 92.8813 37.2014 92.4281 36.9488C91.975 36.6888 91.6184 36.3322 91.3584 35.8791C91.0984 35.4259 90.9684 34.9134 90.9684 34.3414C90.9684 33.7694 91.0984 33.2568 91.3584 32.8037C91.6184 32.3505 91.975 31.9977 92.4281 31.7451C92.8813 31.4925 93.3901 31.3662 93.9547 31.3662C94.5193 31.3662 95.0281 31.4925 95.4813 31.7451C95.9344 31.9977 96.2873 32.3505 96.5398 32.8037C96.7998 33.2568 96.9298 33.7694 96.9298 34.3414C96.9298 34.9134 96.7998 35.4259 96.5398 35.8791C96.2873 36.3322 95.9344 36.6888 95.4813 36.9488C95.0281 37.2014 94.5193 37.3277 93.9547 37.3277ZM93.9547 36.6257C94.3707 36.6257 94.7421 36.5328 95.069 36.3471C95.4033 36.1539 95.6633 35.8828 95.849 35.5337C96.0347 35.1845 96.1275 34.7871 96.1275 34.3414C96.1275 33.8957 96.0347 33.4982 95.849 33.1491C95.6633 32.7999 95.4033 32.5325 95.069 32.3468C94.7421 32.1537 94.3707 32.0571 93.9547 32.0571C93.5387 32.0571 93.1635 32.1537 92.8293 32.3468C92.5024 32.5325 92.2424 32.7999 92.0493 33.1491C91.8635 33.4982 91.7707 33.8957 91.7707 34.3414C91.7707 34.7871 91.8635 35.1845 92.0493 35.5337C92.2424 35.8828 92.5024 36.1539 92.8293 36.3471C93.1635 36.5328 93.5387 36.6257 93.9547 36.6257Z" fill="white"/>
<path d="M102.209 34.2411C103.004 34.4268 103.401 34.9059 103.401 35.6785C103.401 36.1911 103.212 36.5848 102.833 36.8597C102.454 37.1345 101.889 37.2719 101.139 37.2719H98.4758V31.4108H101.061C101.73 31.4108 102.253 31.5408 102.632 31.8008C103.011 32.0608 103.2 32.4322 103.2 32.9151C103.2 33.2345 103.111 33.5094 102.933 33.7397C102.762 33.9625 102.521 34.1297 102.209 34.2411ZM99.2447 34.0182H101.005C101.458 34.0182 101.804 33.9328 102.042 33.7619C102.287 33.5911 102.409 33.3422 102.409 33.0154C102.409 32.6885 102.287 32.4434 102.042 32.2799C101.804 32.1165 101.458 32.0348 101.005 32.0348H99.2447V34.0182ZM101.106 36.6479C101.611 36.6479 101.99 36.5662 102.242 36.4028C102.495 36.2394 102.621 35.9831 102.621 35.6339C102.621 35.2848 102.506 35.0285 102.276 34.8651C102.045 34.6942 101.681 34.6088 101.184 34.6088H99.2447V36.6479H101.106Z" fill="white"/>
<path d="M107.528 37.3277C106.964 37.3277 106.455 37.2014 106.002 36.9488C105.549 36.6888 105.192 36.3322 104.932 35.8791C104.672 35.4259 104.542 34.9134 104.542 34.3414C104.542 33.7694 104.672 33.2568 104.932 32.8037C105.192 32.3505 105.549 31.9977 106.002 31.7451C106.455 31.4925 106.964 31.3662 107.528 31.3662C108.093 31.3662 108.602 31.4925 109.055 31.7451C109.508 31.9977 109.861 32.3505 110.113 32.8037C110.373 33.2568 110.503 33.7694 110.503 34.3414C110.503 34.9134 110.373 35.4259 110.113 35.8791C109.861 36.3322 109.508 36.6888 109.055 36.9488C108.602 37.2014 108.093 37.3277 107.528 37.3277ZM107.528 36.6257C107.944 36.6257 108.316 36.5328 108.643 36.3471C108.977 36.1539 109.237 35.8828 109.423 35.5337C109.608 35.1845 109.701 34.7871 109.701 34.3414C109.701 33.8957 109.608 33.4982 109.423 33.1491C109.237 32.7999 108.977 32.5325 108.643 32.3468C108.316 32.1537 107.944 32.0571 107.528 32.0571C107.112 32.0571 106.737 32.1537 106.403 32.3468C106.076 32.5325 105.816 32.7999 105.623 33.1491C105.437 33.4982 105.344 33.8957 105.344 34.3414C105.344 34.7871 105.437 35.1845 105.623 35.5337C105.816 35.8828 106.076 36.1539 106.403 36.3471C106.737 36.5328 107.112 36.6257 107.528 36.6257Z" fill="white"/>
<path d="M117.733 36.5811V38.6871H116.986V37.2719H111.738V38.6871H110.992V36.5811H111.326C111.72 36.5588 111.987 36.2691 112.128 35.7119C112.269 35.1548 112.366 34.3748 112.418 33.3719L112.496 31.4108H116.819V36.5811H117.733ZM113.142 33.4165C113.105 34.2485 113.034 34.9357 112.93 35.4779C112.826 36.0128 112.641 36.3805 112.373 36.5811H116.028V32.1128H113.209L113.142 33.4165Z" fill="white"/>
<path d="M121.548 37.3277C120.983 37.3277 120.475 37.2014 120.021 36.9488C119.568 36.6888 119.212 36.3322 118.952 35.8791C118.692 35.4259 118.562 34.9134 118.562 34.3414C118.562 33.7694 118.692 33.2568 118.952 32.8037C119.212 32.3505 119.568 31.9977 120.021 31.7451C120.475 31.4925 120.983 31.3662 121.548 31.3662C122.113 31.3662 122.621 31.4925 123.075 31.7451C123.528 31.9977 123.881 32.3505 124.133 32.8037C124.393 33.2568 124.523 33.7694 124.523 34.3414C124.523 34.9134 124.393 35.4259 124.133 35.8791C123.881 36.3322 123.528 36.6888 123.075 36.9488C122.621 37.2014 122.113 37.3277 121.548 37.3277ZM121.548 36.6257C121.964 36.6257 122.335 36.5328 122.662 36.3471C122.997 36.1539 123.257 35.8828 123.442 35.5337C123.628 35.1845 123.721 34.7871 123.721 34.3414C123.721 33.8957 123.628 33.4982 123.442 33.1491C123.257 32.7999 122.997 32.5325 122.662 32.3468C122.335 32.1537 121.964 32.0571 121.548 32.0571C121.132 32.0571 120.757 32.1537 120.423 32.3468C120.096 32.5325 119.836 32.7999 119.643 33.1491C119.457 33.4982 119.364 33.8957 119.364 34.3414C119.364 34.7871 119.457 35.1845 119.643 35.5337C119.836 35.8828 120.096 36.1539 120.423 36.3471C120.757 36.5328 121.132 36.6257 121.548 36.6257Z" fill="white"/>
<path d="M132.621 31.4108V37.2719H131.897V32.6365L129.523 36.5588H129.167L126.793 32.6254V37.2719H126.069V31.4108H126.871L129.356 35.6339L131.886 31.4108H132.621Z" fill="white"/>
<path d="M137.499 31.4108H138.29V36.0685L142.201 31.4108H142.903V37.2719H142.112V32.6142L138.212 37.2719H137.499V31.4108Z" fill="white"/>
<path d="M150.639 31.5557C151.181 31.5557 151.664 31.6782 152.087 31.9234C152.518 32.1611 152.852 32.4991 153.09 32.9374C153.328 33.3682 153.447 33.8622 153.447 34.4194C153.447 34.9914 153.32 35.5002 153.068 35.9459C152.823 36.3842 152.477 36.7259 152.031 36.9711C151.586 37.2162 151.073 37.3388 150.494 37.3388C149.521 37.3388 148.767 36.9971 148.232 36.3137C147.697 35.6302 147.429 34.6868 147.429 33.4834C147.429 32.2279 147.667 31.2659 148.143 30.5974C148.625 29.9288 149.376 29.4757 150.393 29.2379L153.023 28.6362L153.157 29.3605L150.683 29.9288C149.844 30.1145 149.227 30.4451 148.833 30.9205C148.44 31.3885 148.224 32.0831 148.187 33.0042C148.425 32.5511 148.755 32.1982 149.179 31.9457C149.602 31.6857 150.089 31.5557 150.639 31.5557ZM150.516 36.6814C150.925 36.6814 151.289 36.5885 151.608 36.4028C151.935 36.2097 152.187 35.9422 152.366 35.6005C152.551 35.2588 152.644 34.8725 152.644 34.4417C152.644 34.0108 152.555 33.6319 152.377 33.3051C152.199 32.9782 151.946 32.7257 151.619 32.5474C151.3 32.3617 150.932 32.2688 150.516 32.2688C150.1 32.2688 149.729 32.3617 149.402 32.5474C149.082 32.7257 148.83 32.9782 148.644 33.3051C148.466 33.6319 148.377 34.0108 148.377 34.4417C148.377 34.8725 148.466 35.2588 148.644 35.6005C148.83 35.9422 149.086 36.2097 149.413 36.4028C149.74 36.5885 150.107 36.6814 150.516 36.6814Z" fill="white"/>
<path d="M160.123 34.5865H155.22C155.265 35.1957 155.499 35.6897 155.922 36.0685C156.346 36.4399 156.881 36.6257 157.527 36.6257C157.891 36.6257 158.225 36.5625 158.53 36.4362C158.834 36.3025 159.098 36.1094 159.321 35.8568L159.767 36.3694C159.507 36.6814 159.18 36.9191 158.786 37.0825C158.4 37.2459 157.973 37.3277 157.505 37.3277C156.903 37.3277 156.368 37.2014 155.9 36.9488C155.439 36.6888 155.079 36.3322 154.819 35.8791C154.559 35.4259 154.429 34.9134 154.429 34.3414C154.429 33.7694 154.552 33.2568 154.797 32.8037C155.049 32.3505 155.391 31.9977 155.822 31.7451C156.26 31.4925 156.751 31.3662 157.293 31.3662C157.835 31.3662 158.322 31.4925 158.753 31.7451C159.183 31.9977 159.521 32.3505 159.767 32.8037C160.012 33.2494 160.134 33.7619 160.134 34.3414L160.123 34.5865ZM157.293 32.0459C156.728 32.0459 156.253 32.2279 155.867 32.5919C155.488 32.9485 155.272 33.4165 155.22 33.9959H159.377C159.325 33.4165 159.105 32.9485 158.719 32.5919C158.34 32.2279 157.865 32.0459 157.293 32.0459Z" fill="white"/>
<path d="M164.43 34.2188C164.846 34.3154 165.165 34.4825 165.388 34.7202C165.619 34.9579 165.734 35.2477 165.734 35.5894C165.734 35.9311 165.615 36.2357 165.377 36.5031C165.147 36.7705 164.831 36.9785 164.43 37.1271C164.029 37.2682 163.587 37.3388 163.104 37.3388C162.681 37.3388 162.265 37.2794 161.856 37.1605C161.447 37.0342 161.091 36.8522 160.786 36.6145L161.054 36.0239C161.321 36.2245 161.633 36.3805 161.99 36.4919C162.346 36.6034 162.707 36.6591 163.071 36.6591C163.613 36.6591 164.055 36.5588 164.397 36.3582C164.746 36.1502 164.92 35.8717 164.92 35.5225C164.92 35.2105 164.779 34.9691 164.497 34.7982C164.215 34.6199 163.828 34.5308 163.338 34.5308H162.335V33.9514H163.293C163.732 33.9514 164.085 33.8697 164.352 33.7062C164.619 33.5354 164.753 33.3088 164.753 33.0265C164.753 32.7145 164.601 32.4694 164.296 32.2911C163.999 32.1128 163.609 32.0237 163.126 32.0237C162.495 32.0237 161.871 32.1834 161.254 32.5028L161.031 31.8899C161.73 31.5259 162.454 31.3439 163.204 31.3439C163.65 31.3439 164.051 31.4108 164.408 31.5445C164.772 31.6708 165.054 31.8528 165.255 32.0905C165.463 32.3282 165.567 32.6031 165.567 32.9151C165.567 33.2122 165.463 33.4759 165.255 33.7062C165.054 33.9365 164.779 34.1074 164.43 34.2188Z" fill="white"/>
<path d="M22.5361 23.3428V22.0696C23.442 21.988 24.0256 21.8207 24.2867 21.5677C24.556 21.3147 24.6907 20.7801 24.6907 19.964V8.44437C24.6907 7.62824 24.556 7.09368 24.2867 6.84068C24.0256 6.58768 23.442 6.42038 22.5361 6.33876V5.0656H31.1789C33.8966 5.0656 35.8839 5.40838 37.1407 6.09392C38.3976 6.77131 39.026 7.84044 39.026 9.30131C39.026 10.4112 38.5853 11.3049 37.7039 11.9823C36.8306 12.6515 35.4677 13.1371 33.6151 13.4391C35.8349 13.7737 37.459 14.3491 38.4873 15.1652C39.5157 15.9731 40.0298 17.0872 40.0298 18.5072C40.0298 20.115 39.3443 21.3229 37.9732 22.1308C36.6021 22.9388 34.5536 23.3428 31.8277 23.3428H22.5361ZM29.2202 8.29747V12.8147H30.4566C31.8441 12.8147 32.8601 12.5617 33.5049 12.0557C34.1578 11.5416 34.4842 10.7418 34.4842 9.65632C34.4842 8.57087 34.2067 7.73026 33.6518 7.13449C33.0968 6.53871 32.3133 6.24083 31.3013 6.24083C30.5097 6.24083 29.9629 6.37549 29.6609 6.64481C29.3671 6.91413 29.2202 7.46502 29.2202 8.29747ZM29.2202 14.0634V19.8293C29.2202 20.7842 29.3671 21.3963 29.6609 21.6656C29.9629 21.935 30.5546 22.0696 31.436 22.0696C32.6275 22.0696 33.5498 21.735 34.2027 21.0658C34.8637 20.3884 35.1943 19.4335 35.1943 18.2012C35.1943 16.8138 34.8188 15.7773 34.068 15.0917C33.3172 14.4062 32.1787 14.0634 30.6525 14.0634H29.2202Z" fill="white"/>
<path d="M46.2609 15.4467H50.0437V15.2141C50.0437 13.7043 49.8968 12.6311 49.603 11.9945C49.3173 11.3498 48.8358 11.0274 48.1584 11.0274C47.4974 11.0274 47.024 11.3457 46.7384 11.9823C46.4609 12.6107 46.3018 13.7655 46.2609 15.4467ZM54.1815 16.5975H46.2854C46.2773 16.7117 46.2691 16.8382 46.2609 16.977C46.2609 17.1076 46.2609 17.2994 46.2609 17.5524C46.2609 19.2009 46.4895 20.417 46.9465 21.2004C47.4035 21.9758 48.1176 22.3634 49.0888 22.3634C49.8397 22.3634 50.5415 22.1145 51.1944 21.6167C51.8473 21.1107 52.4105 20.3925 52.8838 19.4621L54.059 19.8783C53.5449 21.1678 52.7981 22.1349 51.8188 22.7796C50.8394 23.4244 49.6316 23.7468 48.1952 23.7468C47.3546 23.7468 46.567 23.5999 45.8325 23.3061C45.098 23.0122 44.4451 22.5919 43.8738 22.0451C43.2045 21.3922 42.6945 20.6251 42.3435 19.7437C41.9926 18.8541 41.8171 17.8829 41.8171 16.8301C41.8171 14.7734 42.4088 13.1004 43.5922 11.8109C44.7838 10.5214 46.3181 9.87668 48.1952 9.87668C49.9906 9.87668 51.4352 10.4724 52.5288 11.664C53.6306 12.8555 54.1815 14.4429 54.1815 16.4261V16.5975Z" fill="white"/>
<path d="M63.7057 21.6412C62.963 22.3349 62.2162 22.8613 61.4654 23.2204C60.7227 23.5713 59.98 23.7468 59.2374 23.7468C58.2172 23.7468 57.3766 23.4326 56.7155 22.8041C56.0545 22.1757 55.7239 21.3759 55.7239 20.4047C55.7239 19.0336 56.3564 17.9645 57.6214 17.1973C58.8946 16.4302 60.837 15.9446 63.4486 15.7406V13.941C63.4486 12.8066 63.2731 12.0313 62.9222 11.615C62.5712 11.1906 61.9632 10.9784 61.0981 10.9784C60.7146 10.9784 60.3799 11.0397 60.0943 11.1621C59.8087 11.2763 59.6658 11.3988 59.6658 11.5293C59.6658 11.5457 59.6903 11.5946 59.7393 11.6762C59.7638 11.717 59.7801 11.7456 59.7883 11.7619L60.1433 12.3128C60.2167 12.4271 60.2738 12.5699 60.3147 12.7413C60.3636 12.9045 60.3881 13.0718 60.3881 13.2432C60.3881 13.7329 60.2045 14.1409 59.8372 14.4674C59.47 14.7857 58.9925 14.9448 58.4049 14.9448C57.801 14.9448 57.3113 14.7734 56.9359 14.4307C56.5605 14.0879 56.3728 13.639 56.3728 13.0841C56.3728 12.1537 56.8665 11.3865 57.854 10.7826C58.8415 10.1786 60.1229 9.87668 61.698 9.87668C63.6077 9.87668 65.0155 10.2766 65.9214 11.0764C66.8273 11.8762 67.2803 13.1249 67.2803 14.8224V21.1392C67.2803 21.3677 67.3211 21.5391 67.4027 21.6534C67.4843 21.7595 67.6108 21.8125 67.7822 21.8125C67.8965 21.8125 68.0556 21.7677 68.2597 21.6779C68.4718 21.5881 68.6147 21.5432 68.6881 21.5432C68.7861 21.5432 68.8717 21.5881 68.9452 21.6779C69.0268 21.7595 69.0676 21.8533 69.0676 21.9594C69.0676 22.3185 68.7656 22.6858 68.1617 23.0612C67.5578 23.4366 66.913 23.6243 66.2275 23.6243C65.5991 23.6243 65.0808 23.4652 64.6728 23.1469C64.2647 22.8286 63.9423 22.3267 63.7057 21.6412ZM63.4486 16.8056C62.1509 16.9933 61.1838 17.3361 60.5472 17.8339C59.9107 18.3236 59.5924 18.9724 59.5924 19.7804C59.5924 20.3353 59.7474 20.772 60.0576 21.0903C60.3677 21.4086 60.7962 21.5677 61.343 21.5677C62.0775 21.5677 62.6202 21.2821 62.9711 20.7108C63.3221 20.1313 63.4976 19.2377 63.4976 18.0298C63.4976 17.891 63.4935 17.7401 63.4853 17.5768C63.4853 17.4136 63.4731 17.1565 63.4486 16.8056Z" fill="white"/>
<path d="M78.8979 12.9616C78.8979 12.3414 78.8081 11.9415 78.6285 11.7619C78.449 11.5742 78.0654 11.4722 77.4778 11.4559V10.2807C78.4735 10.2235 79.4039 10.1623 80.269 10.097C81.1422 10.0317 81.9828 9.95829 82.7908 9.87668V20.6618C82.7908 21.2821 82.8806 21.686 83.0601 21.8737C83.2397 22.0533 83.6232 22.1512 84.2109 22.1676L84.2231 23.3428C83.2601 23.3999 82.3705 23.4611 81.5544 23.5264C80.7464 23.5917 79.9792 23.6651 79.2529 23.7468V20.9556C78.6 21.886 77.8981 22.5838 77.1473 23.049C76.3964 23.5142 75.5926 23.7468 74.7356 23.7468C73.5196 23.7468 72.6423 23.3265 72.1036 22.4858C71.5731 21.6452 71.3079 20.2497 71.3079 18.2991V12.9616C71.3079 12.3414 71.2181 11.9415 71.0386 11.7619C70.859 11.5742 70.4714 11.4722 69.8756 11.4559V10.2807C70.8794 10.2235 71.8139 10.1623 72.679 10.097C73.5522 10.0317 74.3888 9.95829 75.1886 9.87668V19.0336C75.1886 20.0375 75.2865 20.723 75.4824 21.0903C75.6864 21.4575 76.0414 21.6412 76.5474 21.6412C77.2738 21.6412 77.8451 21.2739 78.2613 20.5394C78.6857 19.7967 78.8979 18.7765 78.8979 17.4789V12.9616Z" fill="white"/>
<path d="M86.8551 11.4314H85.3493V10.2807C86.394 9.96237 87.2428 9.387 87.8957 8.55455C88.5486 7.71394 89.0464 6.56728 89.3892 5.11457H90.7358V10.2807H93.6739V11.4314H90.7358V19.0091C90.7358 19.8661 90.8052 20.4945 90.9439 20.8944C91.0908 21.2861 91.3152 21.482 91.6172 21.482C91.96 21.482 92.2375 21.2168 92.4497 20.6863C92.67 20.1558 92.8169 19.3723 92.8904 18.3358L94.0778 18.3236V18.5072C94.0778 20.1884 93.7351 21.482 93.0495 22.3879C92.364 23.2938 91.3846 23.7468 90.1115 23.7468C88.9444 23.7468 88.1079 23.3958 87.6019 22.694C87.104 21.9921 86.8551 20.8128 86.8551 19.156V11.4314Z" fill="white"/>
<path d="M96.061 5.97151C96.061 5.4247 96.2651 4.97175 96.6731 4.61265C97.0893 4.2454 97.6117 4.06177 98.2401 4.06177C98.8685 4.06177 99.3908 4.2454 99.807 4.61265C100.231 4.97991 100.444 5.43286 100.444 5.97151C100.444 6.51831 100.24 6.9631 99.8315 7.30587C99.4316 7.64865 98.9011 7.82003 98.2401 7.82003C97.5872 7.82003 97.0608 7.64865 96.6609 7.30587C96.261 6.9631 96.061 6.51831 96.061 5.97151ZM95.2531 23.3428V22.192C95.7754 22.1104 96.1222 21.9594 96.2936 21.7391C96.4732 21.5187 96.5629 21.0821 96.5629 20.4292V12.9616C96.5629 12.3495 96.4691 11.9496 96.2814 11.7619C96.1018 11.5742 95.7305 11.4722 95.1674 11.4559V10.2807C95.9998 10.2399 96.8649 10.1868 97.7626 10.1215C98.6604 10.0562 99.5826 9.97461 100.529 9.87668V20.4292C100.529 21.0821 100.615 21.5187 100.786 21.7391C100.966 21.9594 101.313 22.1104 101.827 22.192V23.3428H95.2531Z" fill="white"/>
<path d="M108.536 20.4292C108.536 21.0821 108.638 21.5391 108.842 21.8003C109.046 22.0615 109.388 22.192 109.87 22.192H110.641V23.3428H103.345V22.192C103.867 22.1104 104.214 21.9594 104.386 21.7391C104.565 21.5187 104.655 21.0821 104.655 20.4292V12.4842H103.149V11.2845H104.655C104.655 11.2192 104.651 11.1213 104.643 10.9907C104.634 10.8519 104.63 10.7499 104.63 10.6846C104.63 8.55455 105.116 6.91821 106.087 5.77564C107.066 4.63306 108.462 4.06177 110.274 4.06177C111.384 4.06177 112.277 4.32701 112.955 4.85749C113.64 5.37981 113.983 6.06128 113.983 6.90189C113.983 7.45686 113.808 7.89757 113.457 8.22402C113.114 8.54231 112.645 8.70145 112.049 8.70145C111.535 8.70145 111.135 8.56679 110.849 8.29747C110.564 8.02815 110.421 7.64457 110.421 7.14673C110.421 6.96718 110.445 6.79988 110.494 6.64481C110.551 6.48975 110.625 6.35917 110.715 6.25307L110.996 5.92254C111.037 5.86541 111.066 5.81236 111.082 5.76339C111.106 5.70626 111.119 5.64914 111.119 5.59201C111.119 5.47775 111.041 5.37573 110.886 5.28596C110.731 5.18802 110.551 5.13906 110.347 5.13906C109.719 5.13906 109.258 5.41654 108.964 5.97151C108.678 6.51831 108.536 7.40381 108.536 8.628V11.2845H111.62V12.4842H108.536V20.4292Z" fill="white"/>
<path d="M120.986 12.9616C120.986 12.3414 120.896 11.9415 120.716 11.7619C120.537 11.5742 120.153 11.4722 119.565 11.4559V10.2807C120.561 10.2235 121.492 10.1623 122.357 10.097C123.23 10.0317 124.07 9.95829 124.878 9.87668V20.6618C124.878 21.2821 124.968 21.686 125.148 21.8737C125.327 22.0533 125.711 22.1512 126.299 22.1676L126.311 23.3428C125.348 23.3999 124.458 23.4611 123.642 23.5264C122.834 23.5917 122.067 23.6651 121.341 23.7468V20.9556C120.688 21.886 119.986 22.5838 119.235 23.049C118.484 23.5142 117.68 23.7468 116.823 23.7468C115.607 23.7468 114.73 23.3265 114.191 22.4858C113.661 21.6452 113.396 20.2497 113.396 18.2991V12.9616C113.396 12.3414 113.306 11.9415 113.126 11.7619C112.947 11.5742 112.559 11.4722 111.963 11.4559V10.2807C112.967 10.2235 113.902 10.1623 114.767 10.097C115.64 10.0317 116.476 9.95829 117.276 9.87668V19.0336C117.276 20.0375 117.374 20.723 117.57 21.0903C117.774 21.4575 118.129 21.6412 118.635 21.6412C119.361 21.6412 119.933 21.2739 120.349 20.5394C120.773 19.7967 120.986 18.7765 120.986 17.4789V12.9616Z" fill="white"/>
<path d="M128.992 7.3426C128.992 6.75499 128.89 6.35917 128.686 6.15513C128.49 5.94294 128.114 5.82868 127.559 5.81236V4.67386C128.351 4.64122 129.184 4.57593 130.057 4.47799C130.93 4.38006 131.885 4.24132 132.921 4.06177V20.4292C132.921 21.0658 133.011 21.4983 133.191 21.7268C133.378 21.9554 133.733 22.1104 134.256 22.192V23.3428H127.682V22.192C128.204 22.1104 128.551 21.9594 128.722 21.7391C128.902 21.5187 128.992 21.0821 128.992 20.4292V7.3426Z" fill="white"/>
<path d="M149.166 8.44437V19.9273C149.166 20.8413 149.321 21.429 149.632 21.6901C149.942 21.9431 150.566 22.0696 151.505 22.0696C153.382 22.0696 154.704 21.4942 155.471 20.3435C156.238 19.1846 156.622 17.132 156.622 14.1858C156.622 11.2478 156.238 9.20745 155.471 8.06487C154.704 6.91413 153.382 6.33876 151.505 6.33876C150.566 6.33876 149.942 6.46934 149.632 6.7305C149.321 6.9835 149.166 7.55479 149.166 8.44437ZM142.482 23.3428V22.0696C143.388 21.9798 143.972 21.8085 144.233 21.5555C144.502 21.3025 144.637 20.772 144.637 19.964V8.44437C144.637 7.63641 144.502 7.10592 144.233 6.85292C143.972 6.59992 143.388 6.42854 142.482 6.33876V5.0656H151.248C154.594 5.0656 157.152 5.84909 158.923 7.41605C160.694 8.97485 161.58 11.2314 161.58 14.1858C161.58 17.1484 160.694 19.4172 158.923 20.9923C157.152 22.5593 154.594 23.3428 151.248 23.3428H142.482Z" fill="white"/>
<path d="M171.263 21.6412C170.52 22.3349 169.774 22.8613 169.023 23.2204C168.28 23.5713 167.537 23.7468 166.795 23.7468C165.775 23.7468 164.934 23.4326 164.273 22.8041C163.612 22.1757 163.281 21.3759 163.281 20.4047C163.281 19.0336 163.914 17.9645 165.179 17.1973C166.452 16.4302 168.394 15.9446 171.006 15.7406V13.941C171.006 12.8066 170.831 12.0313 170.48 11.615C170.129 11.1906 169.521 10.9784 168.656 10.9784C168.272 10.9784 167.937 11.0397 167.652 11.1621C167.366 11.2763 167.223 11.3988 167.223 11.5293C167.223 11.5457 167.248 11.5946 167.297 11.6762C167.321 11.717 167.337 11.7456 167.346 11.7619L167.701 12.3128C167.774 12.4271 167.831 12.5699 167.872 12.7413C167.921 12.9045 167.945 13.0718 167.945 13.2432C167.945 13.7329 167.762 14.1409 167.395 14.4674C167.027 14.7857 166.55 14.9448 165.962 14.9448C165.358 14.9448 164.869 14.7734 164.493 14.4307C164.118 14.0879 163.93 13.639 163.93 13.0841C163.93 12.1537 164.424 11.3865 165.411 10.7826C166.399 10.1786 167.68 9.87668 169.255 9.87668C171.165 9.87668 172.573 10.2766 173.479 11.0764C174.385 11.8762 174.838 13.1249 174.838 14.8224V21.1392C174.838 21.3677 174.878 21.5391 174.96 21.6534C175.042 21.7595 175.168 21.8125 175.34 21.8125C175.454 21.8125 175.613 21.7677 175.817 21.6779C176.029 21.5881 176.172 21.5432 176.245 21.5432C176.343 21.5432 176.429 21.5881 176.503 21.6779C176.584 21.7595 176.625 21.8533 176.625 21.9594C176.625 22.3185 176.323 22.6858 175.719 23.0612C175.115 23.4366 174.47 23.6243 173.785 23.6243C173.156 23.6243 172.638 23.4652 172.23 23.1469C171.822 22.8286 171.5 22.3267 171.263 21.6412ZM171.006 16.8056C169.708 16.9933 168.741 17.3361 168.105 17.8339C167.468 18.3236 167.15 18.9724 167.15 19.7804C167.15 20.3353 167.305 20.772 167.615 21.0903C167.925 21.4086 168.354 21.5677 168.9 21.5677C169.635 21.5677 170.178 21.2821 170.529 20.7108C170.879 20.1313 171.055 19.2377 171.055 18.0298C171.055 17.891 171.051 17.7401 171.043 17.5768C171.043 17.4136 171.03 17.1565 171.006 16.8056Z" fill="white"/>
<path d="M183.076 23.2938L178.461 13.537C178.102 12.8025 177.764 12.2802 177.445 11.97C177.127 11.6599 176.756 11.4885 176.331 11.4559L176.282 10.2807H183.48L183.468 11.4559C182.995 11.4722 182.652 11.5293 182.44 11.6273C182.228 11.7252 182.122 11.8762 182.122 12.0802C182.122 12.1782 182.134 12.2843 182.158 12.3985C182.191 12.5046 182.236 12.6229 182.293 12.7535L184.901 18.6786L187.006 13.1942C187.055 13.0637 187.092 12.9372 187.116 12.8147C187.149 12.6923 187.165 12.574 187.165 12.4597C187.165 12.1414 187.043 11.9048 186.798 11.7497C186.553 11.5946 186.141 11.4967 185.562 11.4559L185.537 10.2807H190.422L190.446 11.4559C189.981 11.5293 189.597 11.7089 189.295 11.9945C189.002 12.272 188.732 12.7209 188.487 13.3411L184.301 23.7468C183.55 25.5994 182.766 26.9337 181.95 27.7499C181.134 28.5742 180.187 28.9863 179.11 28.9863C178.278 28.9863 177.617 28.7782 177.127 28.362C176.645 27.9539 176.405 27.3989 176.405 26.6971C176.405 26.1258 176.568 25.6647 176.894 25.3137C177.229 24.971 177.657 24.7996 178.18 24.7996C178.686 24.7996 179.09 24.9383 179.392 25.2158C179.694 25.4933 179.845 25.8646 179.845 26.3298C179.845 26.5991 179.787 26.8644 179.673 27.1255C179.567 27.3867 179.514 27.5213 179.514 27.5295C179.514 27.5785 179.543 27.6152 179.6 27.6397C179.665 27.6642 179.763 27.6764 179.894 27.6764C180.375 27.6764 180.897 27.2888 181.461 26.5134C182.032 25.7381 182.57 24.6649 183.076 23.2938Z" fill="white"/>
</svg>
