<svg width="269" height="55" viewBox="0 0 269 55" fill="none" xmlns="http://www.w3.org/2000/svg">
<path fill-rule="evenodd" clip-rule="evenodd" d="M22.7857 0C23.6536 0 24.3571 0.703552 24.3571 1.57143V53.4286C24.3571 54.2964 23.6536 55 22.7857 55H18.8571C17.9893 55 17.2857 54.2964 17.2857 53.4286V33.637C17.2857 33.8221 17.2219 33.9999 17.1018 34.1407C15.2604 36.2994 9.22688 42.9558 5.14793 42.5726C0.28392 42.1157 -0.145661 38.3043 0.0312865 34.6134C0.0369579 34.4951 0.0481864 34.3787 0.0647241 34.2642C0.0663365 34.253 0.0639035 34.2416 0.0578027 34.2321L0.0526341 34.2241C0.0410323 34.206 0.0469305 34.182 0.0655584 34.1713C0.0752542 34.1658 0.0819839 34.1561 0.0839461 34.1451C0.801307 30.1261 8.09931 28.4561 10.8915 27.9609C10.9335 27.9535 10.9715 27.9394 11.0085 27.9182C11.3165 27.7422 11.2262 27.2585 10.877 27.1964C7.96733 26.679 0.239898 24.8979 0.0312865 20.5465C-0.145661 16.8556 0.28392 13.0442 5.14793 12.5873C9.22688 12.2041 15.2604 18.8605 17.1018 21.0192C17.2219 21.1601 17.2857 21.3378 17.2857 21.5229V1.57143C17.2857 0.703553 17.9893 0 18.8571 0H22.7857ZM14.1116 21.9436C13.2602 23.4562 9.93194 23.1975 6.67782 21.3657C3.4237 19.5339 1.47595 16.8228 2.32739 15.3102C3.17883 13.7976 6.50705 14.0564 9.76117 15.8882C13.0153 17.7199 14.963 20.4311 14.1116 21.9436ZM8.31807 34.4421C11.1098 33.2728 12.9943 31.4208 12.5271 30.3053C12.0599 29.1899 9.41807 29.2336 6.62633 30.4028C3.83459 31.5721 1.95015 33.4242 2.41731 34.5396C2.88447 35.655 5.52633 35.6113 8.31807 34.4421Z" fill="#D9D9D9"/>
<path fill-rule="evenodd" clip-rule="evenodd" d="M22.7857 0C23.6536 0 24.3571 0.703552 24.3571 1.57143V53.4286C24.3571 54.2964 23.6536 55 22.7857 55H18.8571C17.9893 55 17.2857 54.2964 17.2857 53.4286V33.637C17.2857 33.8221 17.2219 33.9999 17.1018 34.1407C15.2604 36.2994 9.22688 42.9558 5.14793 42.5726C0.28392 42.1157 -0.145661 38.3043 0.0312865 34.6134C0.0369579 34.4951 0.0481864 34.3787 0.0647241 34.2642C0.0663365 34.253 0.0639035 34.2416 0.0578027 34.2321L0.0526341 34.2241C0.0410323 34.206 0.0469305 34.182 0.0655584 34.1713C0.0752542 34.1658 0.0819839 34.1561 0.0839461 34.1451C0.801307 30.1261 8.09931 28.4561 10.8915 27.9609C10.9335 27.9535 10.9715 27.9394 11.0085 27.9182C11.3165 27.7422 11.2262 27.2585 10.877 27.1964C7.96733 26.679 0.239898 24.8979 0.0312865 20.5465C-0.145661 16.8556 0.28392 13.0442 5.14793 12.5873C9.22688 12.2041 15.2604 18.8605 17.1018 21.0192C17.2219 21.1601 17.2857 21.3378 17.2857 21.5229V1.57143C17.2857 0.703553 17.9893 0 18.8571 0H22.7857ZM14.1116 21.9436C13.2602 23.4562 9.93194 23.1975 6.67782 21.3657C3.4237 19.5339 1.47595 16.8228 2.32739 15.3102C3.17883 13.7976 6.50705 14.0564 9.76117 15.8882C13.0153 17.7199 14.963 20.4311 14.1116 21.9436ZM8.31807 34.4421C11.1098 33.2728 12.9943 31.4208 12.5271 30.3053C12.0599 29.1899 9.41807 29.2336 6.62633 30.4028C3.83459 31.5721 1.95015 33.4242 2.41731 34.5396C2.88447 35.655 5.52633 35.6113 8.31807 34.4421Z" fill="url(#paint0_radial_701_12425)"/>
<path d="M40.4329 43.5918V51.8576H39.3172V44.5818H34.1315V51.8576H33.0157V43.5918H40.4329Z" fill="black"/>
<path d="M46.8102 51.9361C46.014 51.9361 45.2964 51.758 44.6573 51.4018C44.0183 51.0352 43.5154 50.5323 43.1488 49.8933C42.7821 49.2542 42.5988 48.5314 42.5988 47.7247C42.5988 46.918 42.7821 46.1952 43.1488 45.5561C43.5154 44.9171 44.0183 44.4195 44.6573 44.0633C45.2964 43.7071 46.014 43.529 46.8102 43.529C47.6064 43.529 48.324 43.7071 48.963 44.0633C49.6021 44.4195 50.0997 44.9171 50.4559 45.5561C50.8226 46.1952 51.0059 46.918 51.0059 47.7247C51.0059 48.5314 50.8226 49.2542 50.4559 49.8933C50.0997 50.5323 49.6021 51.0352 48.963 51.4018C48.324 51.758 47.6064 51.9361 46.8102 51.9361ZM46.8102 50.9461C47.3968 50.9461 47.9207 50.8152 48.3816 50.5533C48.853 50.2809 49.2197 49.8985 49.4816 49.4061C49.7435 48.9137 49.8745 48.3533 49.8745 47.7247C49.8745 47.0961 49.7435 46.5356 49.4816 46.0433C49.2197 45.5509 48.853 45.1737 48.3816 44.9118C47.9207 44.6395 47.3968 44.5033 46.8102 44.5033C46.2235 44.5033 45.6945 44.6395 45.223 44.9118C44.7621 45.1737 44.3954 45.5509 44.123 46.0433C43.8611 46.5356 43.7302 47.0961 43.7302 47.7247C43.7302 48.3533 43.8611 48.9137 44.123 49.4061C44.3954 49.8985 44.7621 50.2809 45.223 50.5533C45.6945 50.8152 46.2235 50.9461 46.8102 50.9461Z" fill="black"/>
<path d="M61.2015 50.8833V53.8533H60.1487V51.8576H52.7472V53.8533H51.6944V50.8833H52.1658C52.721 50.8518 53.0982 50.4433 53.2972 49.6576C53.4963 48.8718 53.6325 47.7718 53.7058 46.3576L53.8158 43.5918H59.9129V50.8833H61.2015ZM54.7272 46.4204C54.6748 47.5937 54.5753 48.5628 54.4287 49.3276C54.282 50.0818 54.0201 50.6004 53.6429 50.8833H58.7972V44.5818H54.8215L54.7272 46.4204Z" fill="black"/>
<path d="M66.0159 43.529C67.0949 43.529 67.9225 43.8014 68.4987 44.3461C69.0749 44.8804 69.363 45.6766 69.363 46.7347V51.8576H68.2944V50.569C68.043 50.9985 67.6711 51.3337 67.1787 51.5747C66.6968 51.8156 66.1206 51.9361 65.4501 51.9361C64.5282 51.9361 63.7949 51.7161 63.2501 51.2761C62.7054 50.8361 62.433 50.2547 62.433 49.5318C62.433 48.8299 62.6844 48.2642 63.1873 47.8347C63.7006 47.4052 64.5125 47.1904 65.623 47.1904H68.2473V46.6876C68.2473 45.9752 68.0482 45.4356 67.6501 45.069C67.252 44.6918 66.6706 44.5033 65.9058 44.5033C65.382 44.5033 64.8792 44.5923 64.3973 44.7704C63.9154 44.938 63.5016 45.1737 63.1559 45.4776L62.653 44.6447C63.072 44.2885 63.5749 44.0161 64.1616 43.8275C64.7482 43.6285 65.3663 43.529 66.0159 43.529ZM65.623 51.0561C66.2516 51.0561 66.7911 50.9147 67.2416 50.6318C67.692 50.3385 68.0273 49.9195 68.2473 49.3747V48.0233H65.6544C64.2401 48.0233 63.533 48.5156 63.533 49.5004C63.533 49.9823 63.7163 50.3647 64.083 50.6476C64.4497 50.9199 64.963 51.0561 65.623 51.0561Z" fill="black"/>
<path d="M76.3874 43.529C77.1626 43.529 77.8645 43.7071 78.4931 44.0633C79.1217 44.409 79.6141 44.9014 79.9702 45.5404C80.3264 46.1795 80.5045 46.9076 80.5045 47.7247C80.5045 48.5523 80.3264 49.2856 79.9702 49.9247C79.6141 50.5637 79.1217 51.0614 78.4931 51.4176C77.875 51.7633 77.1731 51.9361 76.3874 51.9361C75.7169 51.9361 75.1093 51.7999 74.5645 51.5276C74.0303 51.2447 73.5903 50.8361 73.2445 50.3018V54.9061H72.1288V43.5918H73.1974V45.2261C73.5326 44.6814 73.9726 44.2623 74.5174 43.969C75.0726 43.6756 75.696 43.529 76.3874 43.529ZM76.3088 50.9461C76.885 50.9461 77.4088 50.8152 77.8802 50.5533C78.3517 50.2809 78.7183 49.8985 78.9803 49.4061C79.2526 48.9137 79.3888 48.3533 79.3888 47.7247C79.3888 47.0961 79.2526 46.5409 78.9803 46.059C78.7183 45.5666 78.3517 45.1842 77.8802 44.9118C77.4088 44.6395 76.885 44.5033 76.3088 44.5033C75.7222 44.5033 75.1931 44.6395 74.7217 44.9118C74.2607 45.1842 73.8941 45.5666 73.6217 46.059C73.3598 46.5409 73.2288 47.0961 73.2288 47.7247C73.2288 48.3533 73.3598 48.9137 73.6217 49.4061C73.8941 49.8985 74.2607 50.2809 74.7217 50.5533C75.1931 50.8152 75.7222 50.9461 76.3088 50.9461Z" fill="black"/>
<path d="M85.6988 48.1804H83.8131V51.8576H82.6974V43.5918H83.8131V47.2218H85.7146L88.6217 43.5918H89.8317L86.5788 47.599L90.0674 51.8576H88.7474L85.6988 48.1804Z" fill="black"/>
<path d="M91.624 43.5918H92.7397V50.1604L98.2554 43.5918H99.2454V51.8576H98.1297V45.289L92.6297 51.8576H91.624V43.5918Z" fill="black"/>
<path d="M109.604 51.9361C108.787 51.9361 108.054 51.758 107.404 51.4018C106.765 51.0456 106.262 50.548 105.896 49.909C105.529 49.2595 105.346 48.5314 105.346 47.7247C105.346 46.918 105.529 46.1952 105.896 45.5561C106.262 44.9171 106.765 44.4195 107.404 44.0633C108.054 43.7071 108.787 43.529 109.604 43.529C110.317 43.529 110.95 43.6704 111.506 43.9533C112.071 44.2256 112.517 44.629 112.841 45.1633L112.008 45.729C111.736 45.3204 111.39 45.0166 110.971 44.8176C110.552 44.608 110.097 44.5033 109.604 44.5033C109.007 44.5033 108.468 44.6395 107.986 44.9118C107.514 45.1737 107.142 45.5509 106.87 46.0433C106.608 46.5356 106.477 47.0961 106.477 47.7247C106.477 48.3637 106.608 48.9295 106.87 49.4218C107.142 49.9037 107.514 50.2809 107.986 50.5533C108.468 50.8152 109.007 50.9461 109.604 50.9461C110.097 50.9461 110.552 50.8466 110.971 50.6476C111.39 50.4485 111.736 50.1447 112.008 49.7361L112.841 50.3018C112.517 50.8361 112.071 51.2447 111.506 51.5276C110.94 51.7999 110.306 51.9361 109.604 51.9361Z" fill="black"/>
<path d="M126.123 43.5918V51.8576H125.007V44.5818H119.822V51.8576H118.706V43.5918H126.123Z" fill="black"/>
<path d="M132.5 51.9361C131.704 51.9361 130.986 51.758 130.347 51.4018C129.708 51.0352 129.205 50.5323 128.839 49.8933C128.472 49.2542 128.289 48.5314 128.289 47.7247C128.289 46.918 128.472 46.1952 128.839 45.5561C129.205 44.9171 129.708 44.4195 130.347 44.0633C130.986 43.7071 131.704 43.529 132.5 43.529C133.296 43.529 134.014 43.7071 134.653 44.0633C135.292 44.4195 135.79 44.9171 136.146 45.5561C136.513 46.1952 136.696 46.918 136.696 47.7247C136.696 48.5314 136.513 49.2542 136.146 49.8933C135.79 50.5323 135.292 51.0352 134.653 51.4018C134.014 51.758 133.296 51.9361 132.5 51.9361ZM132.5 50.9461C133.087 50.9461 133.611 50.8152 134.072 50.5533C134.543 50.2809 134.91 49.8985 135.172 49.4061C135.434 48.9137 135.565 48.3533 135.565 47.7247C135.565 47.0961 135.434 46.5356 135.172 46.0433C134.91 45.5509 134.543 45.1737 134.072 44.9118C133.611 44.6395 133.087 44.5033 132.5 44.5033C131.914 44.5033 131.385 44.6395 130.913 44.9118C130.452 45.1737 130.085 45.5509 129.813 46.0433C129.551 46.5356 129.42 47.0961 129.42 47.7247C129.42 48.3533 129.551 48.9137 129.813 49.4061C130.085 49.8985 130.452 50.2809 130.913 50.5533C131.385 50.8152 131.914 50.9461 132.5 50.9461Z" fill="black"/>
<path d="M144.14 47.5833C145.261 47.8452 145.822 48.5209 145.822 49.6104C145.822 50.3333 145.555 50.8885 145.02 51.2761C144.486 51.6637 143.69 51.8576 142.632 51.8576H138.876V43.5918H142.522C143.465 43.5918 144.203 43.7752 144.738 44.1418C145.272 44.5085 145.539 45.0323 145.539 45.7133C145.539 46.1637 145.413 46.5514 145.162 46.8761C144.921 47.1904 144.58 47.4261 144.14 47.5833ZM139.96 47.269H142.443C143.082 47.269 143.57 47.1485 143.905 46.9076C144.25 46.6666 144.423 46.3156 144.423 45.8547C144.423 45.3937 144.25 45.048 143.905 44.8176C143.57 44.5871 143.082 44.4718 142.443 44.4718H139.96V47.269ZM142.585 50.9776C143.297 50.9776 143.831 50.8623 144.188 50.6318C144.544 50.4014 144.722 50.0399 144.722 49.5476C144.722 49.0552 144.56 48.6937 144.235 48.4633C143.91 48.2223 143.397 48.1018 142.695 48.1018H139.96V50.9776H142.585Z" fill="black"/>
<path d="M151.642 51.9361C150.846 51.9361 150.129 51.758 149.49 51.4018C148.851 51.0352 148.348 50.5323 147.981 49.8933C147.614 49.2542 147.431 48.5314 147.431 47.7247C147.431 46.918 147.614 46.1952 147.981 45.5561C148.348 44.9171 148.851 44.4195 149.49 44.0633C150.129 43.7071 150.846 43.529 151.642 43.529C152.439 43.529 153.156 43.7071 153.795 44.0633C154.434 44.4195 154.932 44.9171 155.288 45.5561C155.655 46.1952 155.838 46.918 155.838 47.7247C155.838 48.5314 155.655 49.2542 155.288 49.8933C154.932 50.5323 154.434 51.0352 153.795 51.4018C153.156 51.758 152.439 51.9361 151.642 51.9361ZM151.642 50.9461C152.229 50.9461 152.753 50.8152 153.214 50.5533C153.685 50.2809 154.052 49.8985 154.314 49.4061C154.576 48.9137 154.707 48.3533 154.707 47.7247C154.707 47.0961 154.576 46.5356 154.314 46.0433C154.052 45.5509 153.685 45.1737 153.214 44.9118C152.753 44.6395 152.229 44.5033 151.642 44.5033C151.056 44.5033 150.527 44.6395 150.055 44.9118C149.594 45.1737 149.228 45.5509 148.955 46.0433C148.693 46.5356 148.562 47.0961 148.562 47.7247C148.562 48.3533 148.693 48.9137 148.955 49.4061C149.228 49.8985 149.594 50.2809 150.055 50.5533C150.527 50.8152 151.056 50.9461 151.642 50.9461Z" fill="black"/>
<path d="M166.034 50.8833V53.8533H164.981V51.8576H157.579V53.8533H156.527V50.8833H156.998C157.553 50.8518 157.93 50.4433 158.129 49.6576C158.329 48.8718 158.465 47.7718 158.538 46.3576L158.648 43.5918H164.745V50.8833H166.034ZM159.56 46.4204C159.507 47.5937 159.408 48.5628 159.261 49.3276C159.114 50.0818 158.852 50.6004 158.475 50.8833H163.629V44.5818H159.654L159.56 46.4204Z" fill="black"/>
<path d="M171.414 51.9361C170.618 51.9361 169.9 51.758 169.261 51.4018C168.622 51.0352 168.119 50.5323 167.752 49.8933C167.386 49.2542 167.202 48.5314 167.202 47.7247C167.202 46.918 167.386 46.1952 167.752 45.5561C168.119 44.9171 168.622 44.4195 169.261 44.0633C169.9 43.7071 170.618 43.529 171.414 43.529C172.21 43.529 172.928 43.7071 173.567 44.0633C174.206 44.4195 174.703 44.9171 175.06 45.5561C175.426 46.1952 175.61 46.918 175.61 47.7247C175.61 48.5314 175.426 49.2542 175.06 49.8933C174.703 50.5323 174.206 51.0352 173.567 51.4018C172.928 51.758 172.21 51.9361 171.414 51.9361ZM171.414 50.9461C172.001 50.9461 172.524 50.8152 172.985 50.5533C173.457 50.2809 173.823 49.8985 174.085 49.4061C174.347 48.9137 174.478 48.3533 174.478 47.7247C174.478 47.0961 174.347 46.5356 174.085 46.0433C173.823 45.5509 173.457 45.1737 172.985 44.9118C172.524 44.6395 172.001 44.5033 171.414 44.5033C170.827 44.5033 170.298 44.6395 169.827 44.9118C169.366 45.1737 168.999 45.5509 168.727 46.0433C168.465 46.5356 168.334 47.0961 168.334 47.7247C168.334 48.3533 168.465 48.9137 168.727 49.4061C168.999 49.8985 169.366 50.2809 169.827 50.5533C170.298 50.8152 170.827 50.9461 171.414 50.9461Z" fill="black"/>
<path d="M187.03 43.5918V51.8576H186.008V45.3204L182.661 50.8518H182.158L178.811 45.3047V51.8576H177.79V43.5918H178.921L182.425 49.5476L185.993 43.5918H187.03Z" fill="black"/>
<path d="M193.909 43.5918H195.025V50.1604L200.54 43.5918H201.53V51.8576H200.415V45.289L194.915 51.8576H193.909V43.5918Z" fill="black"/>
<path d="M212.439 43.7961C213.204 43.7961 213.885 43.969 214.482 44.3147C215.089 44.6499 215.561 45.1266 215.896 45.7447C216.231 46.3523 216.399 47.049 216.399 47.8347C216.399 48.6414 216.221 49.359 215.865 49.9876C215.519 50.6056 215.032 51.0876 214.403 51.4333C213.775 51.779 213.052 51.9518 212.235 51.9518C210.862 51.9518 209.799 51.4699 209.045 50.5061C208.29 49.5423 207.913 48.2118 207.913 46.5147C207.913 44.7442 208.249 43.3876 208.919 42.4447C209.6 41.5018 210.658 40.8628 212.093 40.5275L215.802 39.679L215.99 40.7004L212.502 41.5018C211.318 41.7637 210.449 42.2299 209.893 42.9004C209.338 43.5604 209.034 44.5399 208.982 45.839C209.317 45.1999 209.783 44.7023 210.38 44.3461C210.978 43.9795 211.664 43.7961 212.439 43.7961ZM212.266 51.0247C212.842 51.0247 213.356 50.8937 213.806 50.6318C214.267 50.3595 214.623 49.9823 214.875 49.5004C215.137 49.0185 215.268 48.4737 215.268 47.8661C215.268 47.2585 215.142 46.7242 214.89 46.2633C214.639 45.8023 214.283 45.4461 213.822 45.1947C213.371 44.9328 212.853 44.8018 212.266 44.8018C211.68 44.8018 211.156 44.9328 210.695 45.1947C210.244 45.4461 209.888 45.8023 209.626 46.2633C209.375 46.7242 209.249 47.2585 209.249 47.8661C209.249 48.4737 209.375 49.0185 209.626 49.5004C209.888 49.9823 210.249 50.3595 210.71 50.6318C211.171 50.8937 211.69 51.0247 212.266 51.0247Z" fill="black"/>
<path d="M225.815 48.0704H218.9C218.963 48.9295 219.293 49.6261 219.89 50.1604C220.488 50.6842 221.242 50.9461 222.153 50.9461C222.667 50.9461 223.138 50.8571 223.568 50.679C223.997 50.4904 224.369 50.218 224.683 49.8618L225.312 50.5847C224.945 51.0247 224.484 51.3599 223.929 51.5904C223.384 51.8209 222.782 51.9361 222.122 51.9361C221.273 51.9361 220.519 51.758 219.859 51.4018C219.209 51.0352 218.701 50.5323 218.335 49.8933C217.968 49.2542 217.785 48.5314 217.785 47.7247C217.785 46.918 217.958 46.1952 218.303 45.5561C218.659 44.9171 219.141 44.4195 219.749 44.0633C220.367 43.7071 221.058 43.529 221.823 43.529C222.588 43.529 223.274 43.7071 223.882 44.0633C224.489 44.4195 224.966 44.9171 225.312 45.5561C225.658 46.1847 225.83 46.9076 225.83 47.7247L225.815 48.0704ZM221.823 44.4876C221.027 44.4876 220.357 44.7442 219.812 45.2576C219.278 45.7604 218.974 46.4204 218.9 47.2376H224.762C224.688 46.4204 224.379 45.7604 223.835 45.2576C223.3 44.7442 222.63 44.4876 221.823 44.4876Z" fill="black"/>
<path d="M231.889 47.5518C232.475 47.688 232.926 47.9237 233.24 48.259C233.565 48.5942 233.727 49.0028 233.727 49.4847C233.727 49.9666 233.559 50.3961 233.224 50.7733C232.899 51.1504 232.454 51.4437 231.889 51.6533C231.323 51.8523 230.699 51.9518 230.019 51.9518C229.421 51.9518 228.835 51.868 228.258 51.7004C227.682 51.5223 227.179 51.2656 226.75 50.9304L227.127 50.0976C227.504 50.3804 227.944 50.6004 228.447 50.7576C228.95 50.9147 229.458 50.9933 229.971 50.9933C230.736 50.9933 231.359 50.8518 231.841 50.569C232.334 50.2756 232.58 49.8828 232.58 49.3904C232.58 48.9504 232.381 48.6099 231.983 48.369C231.585 48.1176 231.04 47.9918 230.349 47.9918H228.934V47.1747H230.286C230.904 47.1747 231.401 47.0595 231.779 46.829C232.156 46.588 232.344 46.2685 232.344 45.8704C232.344 45.4304 232.129 45.0847 231.7 44.8333C231.281 44.5818 230.731 44.4561 230.05 44.4561C229.159 44.4561 228.279 44.6814 227.41 45.1318L227.096 44.2676C228.08 43.7542 229.102 43.4976 230.16 43.4976C230.788 43.4976 231.354 43.5918 231.857 43.7804C232.37 43.9585 232.769 44.2152 233.051 44.5504C233.345 44.8856 233.491 45.2733 233.491 45.7133C233.491 46.1323 233.345 46.5042 233.051 46.829C232.769 47.1537 232.381 47.3947 231.889 47.5518Z" fill="black"/>
<path d="M31.7823 32.2141V30.4186C33.0599 30.3035 33.8828 30.0675 34.2511 29.7107C34.6309 29.3539 34.8209 28.6001 34.8209 27.4491V11.2035C34.8209 10.0525 34.6309 9.29866 34.2511 8.94187C33.8828 8.58507 33.0599 8.34913 31.7823 8.23404V6.43856H43.9709C47.8036 6.43856 50.6061 6.92195 52.3786 7.88875C54.151 8.84404 55.0373 10.3518 55.0373 12.412C55.0373 13.9773 54.4158 15.2376 53.1727 16.1928C51.9412 17.1366 50.0191 17.8214 47.4065 18.2473C50.5371 18.7192 52.8274 19.5306 54.2776 20.6815C55.7278 21.821 56.4529 23.392 56.4529 25.3947C56.4529 27.6621 55.4861 29.3655 53.5525 30.5049C51.6189 31.6443 48.7301 32.2141 44.8859 32.2141H31.7823ZM41.2086 10.9963V17.3668H42.9523C44.9089 17.3668 46.3418 17.01 47.2511 16.2964C48.1719 15.5713 48.6322 14.4434 48.6322 12.9126C48.6322 11.3819 48.2409 10.1964 47.4583 9.35621C46.6756 8.51602 45.5707 8.09592 44.1435 8.09592C43.0271 8.09592 42.256 8.28583 41.8301 8.66564C41.4158 9.04545 41.2086 9.82234 41.2086 10.9963ZM41.2086 19.1278V27.2592C41.2086 28.6058 41.4158 29.469 41.8301 29.8489C42.256 30.2287 43.0904 30.4186 44.3334 30.4186C46.0138 30.4186 47.3144 29.9467 48.2352 29.0029C49.1674 28.0476 49.6336 26.701 49.6336 24.9631C49.6336 23.0065 49.1041 21.5448 48.0453 20.578C46.9864 19.6112 45.3808 19.1278 43.2285 19.1278H41.2086Z" fill="black"/>
<path d="M65.2404 21.0786H70.5751V20.7506C70.5751 18.6213 70.3679 17.1079 69.9536 16.2101C69.5507 15.3009 68.8717 14.8462 67.9164 14.8462C66.9841 14.8462 66.3166 15.2951 65.9137 16.1928C65.5224 17.0791 65.298 18.7077 65.2404 21.0786ZM76.4104 22.7015H65.275C65.2634 22.8626 65.2519 23.041 65.2404 23.2367C65.2404 23.4208 65.2404 23.6913 65.2404 24.0481C65.2404 26.373 65.5627 28.0879 66.2072 29.1928C66.8518 30.2862 67.8588 30.8329 69.2285 30.8329C70.2873 30.8329 71.2771 30.4819 72.1979 29.7798C73.1187 29.0662 73.9128 28.0534 74.5804 26.7413L76.2377 27.3283C75.5126 29.1468 74.4595 30.5106 73.0784 31.4199C71.6972 32.3291 69.9938 32.7838 67.9682 32.7838C66.7827 32.7838 65.672 32.5766 64.6362 32.1623C63.6003 31.7479 62.6796 31.1552 61.8739 30.384C60.9301 29.4633 60.2108 28.3814 59.7159 27.1384C59.221 25.8838 58.9735 24.5142 58.9735 23.0295C58.9735 20.1291 59.8079 17.7696 61.4768 15.9511C63.1572 14.1326 65.321 13.2234 67.9682 13.2234C70.5003 13.2234 72.5374 14.0636 74.0797 15.744C75.6335 17.4244 76.4104 19.663 76.4104 22.4598V22.7015Z" fill="black"/>
<path d="M89.842 29.8143C88.7946 30.7926 87.7415 31.535 86.6826 32.0414C85.6352 32.5363 84.5879 32.7838 83.5405 32.7838C82.1018 32.7838 80.9163 32.3407 79.9841 31.4544C79.0518 30.5682 78.5857 29.4403 78.5857 28.0706C78.5857 26.137 79.4777 24.6293 81.2616 23.5474C83.0571 22.4655 85.7964 21.7807 89.4794 21.493V18.9551C89.4794 17.3553 89.2319 16.2619 88.737 15.6749C88.2421 15.0764 87.3847 14.7772 86.1647 14.7772C85.6237 14.7772 85.1518 14.8635 84.749 15.0361C84.3462 15.1973 84.1448 15.3699 84.1448 15.5541C84.1448 15.5771 84.1793 15.6461 84.2483 15.7612C84.2829 15.8188 84.3059 15.8591 84.3174 15.8821L84.8181 16.659C84.9216 16.8201 85.0022 17.0215 85.0598 17.2632C85.1288 17.4934 85.1633 17.7294 85.1633 17.9711C85.1633 18.6616 84.9044 19.2371 84.3865 19.6975C83.8685 20.1464 83.1952 20.3708 82.3665 20.3708C81.5148 20.3708 80.8243 20.1291 80.2948 19.6457C79.7654 19.1623 79.5007 18.5293 79.5007 17.7466C79.5007 16.4345 80.197 15.3527 81.5896 14.501C82.9823 13.6492 84.7893 13.2234 87.0106 13.2234C89.7038 13.2234 91.6892 13.7874 92.9668 14.9153C94.2443 16.0432 94.8831 17.8042 94.8831 20.1981V29.1065C94.8831 29.4288 94.9407 29.6705 95.0557 29.8316C95.1708 29.9812 95.3492 30.056 95.5909 30.056C95.7521 30.056 95.9765 29.9927 96.2642 29.8661C96.5635 29.7395 96.7649 29.6762 96.8685 29.6762C97.0066 29.6762 97.1275 29.7395 97.231 29.8661C97.3461 29.9812 97.4037 30.1136 97.4037 30.2632C97.4037 30.7696 96.9778 31.2875 96.1261 31.817C95.2744 32.3464 94.3652 32.6111 93.3984 32.6111C92.5122 32.6111 91.7813 32.3867 91.2058 31.9378C90.6304 31.489 90.1757 30.7811 89.842 29.8143ZM89.4794 22.995C87.6494 23.2597 86.2855 23.7431 85.3878 24.4451C84.49 25.1357 84.0412 26.0507 84.0412 27.1902C84.0412 27.9728 84.2599 28.5886 84.6972 29.0374C85.1346 29.4863 85.7388 29.7107 86.51 29.7107C87.5458 29.7107 88.3112 29.3079 88.8061 28.5022C89.301 27.6851 89.5485 26.4248 89.5485 24.7214C89.5485 24.5257 89.5427 24.3128 89.5312 24.0826C89.5312 23.8524 89.5139 23.4899 89.4794 22.995Z" fill="black"/>
<path d="M111.267 17.574C111.267 16.6993 111.14 16.1353 110.887 15.8821C110.634 15.6174 110.093 15.4735 109.264 15.4505V13.7931C110.668 13.7126 111.98 13.6262 113.2 13.5342C114.432 13.4421 115.617 13.3385 116.757 13.2234V28.4332C116.757 29.3079 116.883 29.8776 117.137 30.1423C117.39 30.3956 117.931 30.5337 118.76 30.5567L118.777 32.2141C117.419 32.2946 116.164 32.3809 115.013 32.473C113.874 32.5651 112.792 32.6687 111.768 32.7838V28.8475C110.847 30.1596 109.857 31.1437 108.798 31.7997C107.739 32.4558 106.606 32.7838 105.397 32.7838C103.682 32.7838 102.445 32.191 101.685 31.0056C100.937 29.8201 100.563 27.852 100.563 25.1012V17.574C100.563 16.6993 100.436 16.1353 100.183 15.8821C99.93 15.6174 99.3833 15.4735 98.5431 15.4505V13.7931C99.9588 13.7126 101.277 13.6262 102.497 13.5342C103.728 13.4421 104.908 13.3385 106.036 13.2234V26.137C106.036 27.5527 106.174 28.5195 106.45 29.0374C106.738 29.5554 107.239 29.8143 107.952 29.8143C108.976 29.8143 109.782 29.2964 110.369 28.2605C110.968 27.2132 111.267 25.7745 111.267 23.9445V17.574Z" fill="black"/>
<path d="M122.489 15.416H120.365V13.7931C121.838 13.3442 123.035 12.5328 123.956 11.3589C124.877 10.1734 125.579 8.5563 126.062 6.50761H127.961V13.7931H132.105V15.416H127.961V26.1025C127.961 27.311 128.059 28.1972 128.255 28.7612C128.462 29.3137 128.779 29.5899 129.204 29.5899C129.688 29.5899 130.079 29.2158 130.378 28.4677C130.689 27.7196 130.896 26.6147 131 25.153L132.675 25.1357V25.3947C132.675 27.7656 132.191 29.5899 131.224 30.8674C130.258 32.145 128.876 32.7838 127.081 32.7838C125.435 32.7838 124.255 32.2889 123.542 31.299C122.84 30.3092 122.489 28.6461 122.489 26.3097V15.416Z" fill="black"/>
<path d="M135.471 7.71611C135.471 6.94497 135.759 6.3062 136.335 5.79978C136.922 5.28185 137.658 5.02289 138.544 5.02289C139.431 5.02289 140.167 5.28185 140.754 5.79978C141.353 6.31771 141.652 6.95648 141.652 7.71611C141.652 8.48724 141.364 9.11451 140.789 9.59791C140.225 10.0813 139.477 10.323 138.544 10.323C137.624 10.323 136.881 10.0813 136.317 9.59791C135.753 9.11451 135.471 8.48724 135.471 7.71611ZM134.332 32.2141V30.5912C135.068 30.4761 135.558 30.2632 135.799 29.9524C136.053 29.6417 136.179 29.0259 136.179 28.1052V17.574C136.179 16.7108 136.047 16.1468 135.782 15.8821C135.529 15.6174 135.005 15.4735 134.211 15.4505V13.7931C135.385 13.7356 136.605 13.6608 137.871 13.5687C139.137 13.4766 140.438 13.3615 141.773 13.2234V28.1052C141.773 29.0259 141.894 29.6417 142.135 29.9524C142.389 30.2632 142.878 30.4761 143.603 30.5912V32.2141H134.332Z" fill="black"/>
<path d="M153.064 28.1052C153.064 29.0259 153.207 29.6705 153.495 30.0388C153.783 30.4071 154.266 30.5912 154.945 30.5912H156.033V32.2141H145.744V30.5912C146.48 30.4761 146.969 30.2632 147.211 29.9524C147.464 29.6417 147.591 29.0259 147.591 28.1052V16.9007H145.467V15.2088H147.591C147.591 15.1167 147.585 14.9786 147.574 14.7944C147.562 14.5988 147.556 14.4549 147.556 14.3628C147.556 11.3589 148.241 9.05121 149.611 7.43988C150.992 5.82855 152.96 5.02289 155.515 5.02289C157.08 5.02289 158.341 5.39695 159.296 6.14506C160.263 6.88167 160.746 7.84271 160.746 9.02819C160.746 9.81083 160.499 10.4323 160.004 10.8927C159.52 11.3416 158.859 11.566 158.018 11.566C157.293 11.566 156.729 11.3761 156.326 10.9963C155.924 10.6165 155.722 10.0756 155.722 9.37347C155.722 9.12027 155.757 8.88432 155.826 8.66564C155.906 8.44696 156.01 8.26281 156.137 8.11319L156.534 7.64705C156.591 7.56648 156.632 7.49167 156.655 7.42262C156.689 7.34205 156.706 7.26148 156.706 7.18092C156.706 7.01978 156.597 6.87592 156.378 6.74931C156.16 6.6112 155.906 6.54214 155.619 6.54214C154.732 6.54214 154.082 6.93346 153.668 7.71611C153.265 8.48724 153.064 9.73602 153.064 11.4624V15.2088H157.414V16.9007H153.064V28.1052Z" fill="black"/>
<path d="M170.621 17.574C170.621 16.6993 170.495 16.1353 170.241 15.8821C169.988 15.6174 169.447 15.4735 168.619 15.4505V13.7931C170.023 13.7126 171.335 13.6262 172.555 13.5342C173.786 13.4421 174.972 13.3385 176.111 13.2234V28.4332C176.111 29.3079 176.238 29.8776 176.491 30.1423C176.744 30.3956 177.285 30.5337 178.114 30.5567L178.131 32.2141C176.773 32.2946 175.519 32.3809 174.368 32.473C173.228 32.5651 172.146 32.6687 171.122 32.7838V28.8475C170.201 30.1596 169.211 31.1437 168.152 31.7997C167.094 32.4558 165.96 32.7838 164.751 32.7838C163.037 32.7838 161.799 32.191 161.04 31.0056C160.292 29.8201 159.917 27.852 159.917 25.1012V17.574C159.917 16.6993 159.791 16.1353 159.538 15.8821C159.284 15.6174 158.738 15.4735 157.898 15.4505V13.7931C159.313 13.7126 160.631 13.6262 161.851 13.5342C163.083 13.4421 164.262 13.3385 165.39 13.2234V26.137C165.39 27.5527 165.528 28.5195 165.805 29.0374C166.092 29.5554 166.593 29.8143 167.307 29.8143C168.331 29.8143 169.137 29.2964 169.724 28.2605C170.322 27.2132 170.621 25.7745 170.621 23.9445V17.574Z" fill="black"/>
<path d="M181.912 9.6497C181.912 8.82102 181.768 8.26281 181.48 7.97507C181.204 7.67582 180.675 7.51469 179.892 7.49167V5.8861C181.009 5.84006 182.183 5.74799 183.414 5.60987C184.646 5.47176 185.992 5.2761 187.454 5.02289V28.1052C187.454 29.0029 187.581 29.6129 187.834 29.9352C188.098 30.2574 188.599 30.4761 189.336 30.5912V32.2141H180.065V30.5912C180.801 30.4761 181.291 30.2632 181.532 29.9524C181.785 29.6417 181.912 29.0259 181.912 28.1052V9.6497Z" fill="black"/>
<path d="M210.364 11.2035V27.3973C210.364 28.6864 210.582 29.5151 211.02 29.8834C211.457 30.2402 212.337 30.4186 213.661 30.4186C216.308 30.4186 218.173 29.6072 219.255 27.9843C220.337 26.35 220.877 23.4553 220.877 19.3004C220.877 15.157 220.337 12.2796 219.255 10.6683C218.173 9.04545 216.308 8.23404 213.661 8.23404C212.337 8.23404 211.457 8.41819 211.02 8.78649C210.582 9.14328 210.364 9.94895 210.364 11.2035ZM200.937 32.2141V30.4186C202.215 30.292 203.038 30.0503 203.406 29.6935C203.786 29.3367 203.976 28.5886 203.976 27.4491V11.2035C203.976 10.064 203.786 9.31593 203.406 8.95913C203.038 8.60234 202.215 8.36064 200.937 8.23404V6.43856H213.298C218.017 6.43856 221.626 7.54347 224.123 9.75329C226.621 11.9516 227.869 15.134 227.869 19.3004C227.869 23.4784 226.621 26.678 224.123 28.8993C221.626 31.1091 218.017 32.2141 213.298 32.2141H200.937Z" fill="black"/>
<path d="M241.525 29.8143C240.478 30.7926 239.425 31.535 238.366 32.0414C237.319 32.5363 236.271 32.7838 235.224 32.7838C233.785 32.7838 232.6 32.3407 231.668 31.4544C230.735 30.5682 230.269 29.4403 230.269 28.0706C230.269 26.137 231.161 24.6293 232.945 23.5474C234.741 22.4655 237.48 21.7807 241.163 21.493V18.9551C241.163 17.3553 240.915 16.2619 240.421 15.6749C239.926 15.0764 239.068 14.7772 237.848 14.7772C237.307 14.7772 236.835 14.8635 236.433 15.0361C236.03 15.1973 235.828 15.3699 235.828 15.5541C235.828 15.5771 235.863 15.6461 235.932 15.7612C235.966 15.8188 235.989 15.8591 236.001 15.8821L236.502 16.659C236.605 16.8201 236.686 17.0215 236.743 17.2632C236.812 17.4934 236.847 17.7294 236.847 17.9711C236.847 18.6616 236.588 19.2371 236.07 19.6975C235.552 20.1464 234.879 20.3708 234.05 20.3708C233.198 20.3708 232.508 20.1291 231.978 19.6457C231.449 19.1623 231.184 18.5293 231.184 17.7466C231.184 16.4345 231.881 15.3527 233.273 14.501C234.666 13.6492 236.473 13.2234 238.694 13.2234C241.387 13.2234 243.373 13.7874 244.65 14.9153C245.928 16.0432 246.567 17.8042 246.567 20.1981V29.1065C246.567 29.4288 246.624 29.6705 246.739 29.8316C246.854 29.9812 247.033 30.056 247.274 30.056C247.436 30.056 247.66 29.9927 247.948 29.8661C248.247 29.7395 248.448 29.6762 248.552 29.6762C248.69 29.6762 248.811 29.7395 248.915 29.8661C249.03 29.9812 249.087 30.1136 249.087 30.2632C249.087 30.7696 248.661 31.2875 247.81 31.817C246.958 32.3464 246.049 32.6111 245.082 32.6111C244.196 32.6111 243.465 32.3867 242.889 31.9378C242.314 31.489 241.859 30.7811 241.525 29.8143ZM241.163 22.995C239.333 23.2597 237.969 23.7431 237.071 24.4451C236.174 25.1357 235.725 26.0507 235.725 27.1902C235.725 27.9728 235.943 28.5886 236.381 29.0374C236.818 29.4863 237.422 29.7107 238.193 29.7107C239.229 29.7107 239.995 29.3079 240.49 28.5022C240.985 27.6851 241.232 26.4248 241.232 24.7214C241.232 24.5257 241.226 24.3128 241.215 24.0826C241.215 23.8524 241.197 23.4899 241.163 22.995Z" fill="black"/>
<path d="M258.185 32.145L251.677 18.3854C251.17 17.3495 250.693 16.6129 250.244 16.1756C249.795 15.7382 249.271 15.4965 248.673 15.4505L248.604 13.7931H258.755L258.738 15.4505C258.07 15.4735 257.587 15.5541 257.288 15.6922C256.988 15.8303 256.839 16.0432 256.839 16.331C256.839 16.4691 256.856 16.6187 256.891 16.7798C256.937 16.9295 257 17.0963 257.081 17.2805L260.758 25.6364L263.727 17.902C263.796 17.7179 263.848 17.5395 263.883 17.3668C263.929 17.1942 263.952 17.0273 263.952 16.8662C263.952 16.4173 263.779 16.0835 263.434 15.8648C263.089 15.6461 262.507 15.508 261.69 15.4505L261.656 13.7931H268.544L268.579 15.4505C267.922 15.5541 267.382 15.8073 266.956 16.2101C266.541 16.6014 266.162 17.2345 265.816 18.1092L259.912 32.7838C258.853 35.3964 257.748 37.2782 256.597 38.4292C255.446 39.5916 254.111 40.1729 252.592 40.1729C251.418 40.1729 250.486 39.8794 249.795 39.2924C249.116 38.7169 248.776 37.9343 248.776 36.9445C248.776 36.1388 249.007 35.4885 249.467 34.9936C249.939 34.5102 250.543 34.2685 251.28 34.2685C251.993 34.2685 252.563 34.4642 252.989 34.8555C253.415 35.2468 253.628 35.7705 253.628 36.4265C253.628 36.8063 253.547 37.1804 253.386 37.5487C253.236 37.917 253.162 38.1069 253.162 38.1184C253.162 38.1875 253.202 38.2393 253.282 38.2738C253.374 38.3083 253.513 38.3256 253.697 38.3256C254.376 38.3256 255.112 37.7789 255.907 36.6855C256.712 35.5921 257.472 34.0786 258.185 32.145Z" fill="black"/>
<defs>
<radialGradient id="paint0_radial_701_12425" cx="0" cy="0" r="1" gradientUnits="userSpaceOnUse" gradientTransform="translate(26.3214 27.5) rotate(-177.797) scale(20.4437 16.9467)">
<stop offset="0.105082" stop-color="#FF8E95"/>
<stop offset="1" stop-color="#FE545E"/>
</radialGradient>
</defs>
</svg>
